<svg xmlns="http://www.w3.org/2000/svg" xmlns:xlink="http://www.w3.org/1999/xlink" xml:space="preserve">
<g>
	<path fill="#FFFFFF" d="M48.476,361.18c-22.593,0-40.975-18.381-40.975-40.975v-0.979c0-22.594,18.381-40.975,40.975-40.975
		h271.728c22.594,0,40.975,18.381,40.975,40.975v0.979c0,22.594-18.381,40.975-40.975,40.975H48.476z"/>
	<path fill="#005CB9" d="M320.203,285.751c18.458,0,33.475,15.017,33.475,33.475v0.979c0,18.458-15.017,33.475-33.475,33.475H48.477
		c-18.458,0-33.475-15.017-33.475-33.475v-0.979c0-18.458,15.017-33.475,33.475-33.475H320.203 M320.203,270.751H48.477
		c-26.772,0-48.475,21.703-48.475,48.475v0.979c0,26.772,21.703,48.475,48.475,48.475h271.727c26.772,0,48.475-21.703,48.475-48.475
		v-0.979C368.678,292.454,346.975,270.751,320.203,270.751L320.203,270.751z"/>
</g>
<g>
	<path fill="#FFFFFF" d="M48.476,225.804c-22.593,0-40.975-18.381-40.975-40.975v-0.979c0-22.593,18.381-40.975,40.975-40.975
		h271.728c22.594,0,40.975,18.381,40.975,40.975v0.979c0,22.593-18.381,40.975-40.975,40.975H48.476z"/>
	<path fill="#005CB9" d="M320.203,150.376c18.458,0,33.475,15.017,33.475,33.475v0.979c0,18.458-15.017,33.475-33.475,33.475H48.477
		c-18.458,0-33.475-15.017-33.475-33.475v-0.979c0-18.458,15.017-33.475,33.475-33.475H320.203 M320.203,135.376H48.477
		c-26.772,0-48.475,21.703-48.475,48.475v0.979c0,26.772,21.703,48.475,48.475,48.475h271.727c26.772,0,48.475-21.703,48.475-48.475
		v-0.979C368.678,157.078,346.975,135.376,320.203,135.376L320.203,135.376z"/>
</g>
<g>
	<path fill="#FFFFFF" d="M48.476,90.429c-22.593,0-40.975-18.381-40.975-40.975v-0.979C7.502,25.881,25.883,7.5,48.476,7.5h271.728
		c22.594,0,40.975,18.381,40.975,40.975v0.979c0,22.594-18.381,40.975-40.975,40.975H48.476z"/>
	<path fill="#005CB9" d="M320.203,15c18.458,0,33.475,15.017,33.475,33.475v0.979c0,18.458-15.017,33.475-33.475,33.475H48.477
		c-18.458,0-33.475-15.017-33.475-33.475v-0.979C15.002,30.017,30.019,15,48.477,15H320.203 M320.203,0H48.477
		C21.705,0,0.002,21.703,0.002,48.475v0.979c0,26.772,21.703,48.475,48.475,48.475h271.727c26.772,0,48.475-21.703,48.475-48.475
		v-0.979C368.678,21.703,346.975,0,320.203,0L320.203,0z"/>
</g>
</svg>
