<?xml version="1.0" standalone="no"?>
<!DOCTYPE svg PUBLIC "-//W3C//DTD SVG 1.1//EN" "http://www.w3.org/Graphics/SVG/1.1/DTD/svg11.dtd" >
<svg xmlns="http://www.w3.org/2000/svg">
<metadata>
This is a custom SVG font generated by IcoMoon.
<iconset grid="16"></iconset>
</metadata>
<defs>
<font id="icons" horiz-adv-x="512" >
<font-face units-per-em="512" ascent="480" descent="-32" />
<missing-glyph horiz-adv-x="512" />
<glyph unicode="&#xe000;" d="M 512.00,382.791c-18.838-8.354-39.082-14.001-60.33-16.54c 21.686,13.00, 38.343,33.585, 46.186,58.115
	c-20.298-12.039-42.778-20.78-66.705-25.49c-19.16,20.415-46.461,33.17-76.673,33.17c-58.011,0.00-105.044-47.029-105.044-105.039
	c0.00-8.233, 0.929-16.25, 2.72-23.939c-87.30,4.382-164.701,46.20-216.509,109.753c-9.042-15.514-14.223-33.558-14.223-52.809
	c0.00-36.444, 18.544-68.596, 46.73-87.433c-17.219,0.546-33.416,5.271-47.577,13.139c-0.01-0.438-0.01-0.878-0.01-1.321
	c0.00-50.894, 36.209-93.348, 84.261-103.00c-8.813-2.40-18.094-3.686-27.674-3.686c-6.769,0.00-13.349,0.66-19.764,1.886
	c 13.368-41.73, 52.16-72.103, 98.126-72.948c-35.95-28.175-81.243-44.967-130.458-44.967c-8.479,0.00-16.84,0.497-25.058,1.47
	c 46.486-29.805, 101.701-47.197, 161.021-47.197c 193.211,0.00, 298.868,160.062, 298.868,298.872c0.00,4.554-0.103,9.084-0.305,13.59
	C 480.11,343.227, 497.918,361.727, 512.00,382.791z"  />
<glyph unicode="&#xe001;" d="M 416.00,416.00L 96.00,416.00 c-52.80,0.00-96.00-43.20-96.00-96.00l0.00-192.00 c0.00-52.80, 43.20-96.00, 96.00-96.00l 320.00,0.00 c 52.80,0.00, 96.00,43.20, 96.00,96.00L 512.00,320.00 C 512.00,372.80, 468.80,416.00, 416.00,416.00z
	 M 192.00,96.00L 192.00,352.00 l 160.00-128.00L 192.00,96.00z"  />
<glyph unicode="&#xe002;" d="M 64.00,224.00L 192.00,352.00L 128.00,352.00L0.00,224.00L 128.00,96.00L 192.00,96.00 	zM 384.00,352.00L 320.00,352.00L 448.00,224.00L 320.00,96.00L 384.00,96.00L 512.00,224.00 	zM 272.00,416.00L 192.00,32.00L 240.00,32.00L 320.00,416.00 	z"  />
<glyph unicode="&#xe003;" d="M 256.00,480.00C 114.615,480.00,0.00,365.385,0.00,224.00s 114.615-256.00, 256.00-256.00s 256.00,114.615, 256.00,256.00S 397.385,480.00, 256.00,480.00z M 408.028,71.972
	c-19.759-19.758-42.756-35.266-68.354-46.093c-6.503-2.75-13.107-5.164-19.80-7.246L 319.874,57.00 c0.00,20.167-6.917,35.00-20.75,44.50
	c 8.667,0.833, 16.625,2.00, 23.875,3.50s 14.917,3.667, 23.00,6.50s 15.333,6.208, 21.75,10.125s 12.583,9.00, 18.50,15.25s 10.875,13.333, 14.875,21.25
	s 7.167,17.417, 9.50,28.50s 3.50,23.292, 3.50,36.625c0.00,25.833-8.417,47.833-25.25,66.00c 7.667,20.00, 6.833,41.75-2.50,65.25l-6.25,0.75
	c-4.333,0.50-12.125-1.333-23.375-5.50s-23.875-11.00-37.875-20.50c-19.833,5.50-40.417,8.25-61.75,8.25c-21.50,0.00-42.00-2.75-61.50-8.25
	c-8.833,6.00-17.208,10.958-25.125,14.875c-7.917,3.917-14.25,6.583-19.00,8.00s-9.167,2.292-13.25,2.625s-6.708,0.417-7.875,0.25
	s-2.00-0.333-2.50-0.50c-9.333-23.667-10.167-45.417-2.50-65.25c-16.833-18.167-25.25-40.167-25.25-66.00c0.00-13.333, 1.167-25.542, 3.50-36.625
	s 5.50-20.583, 9.50-28.50s 8.958-15.00, 14.875-21.25s 12.083-11.333, 18.50-15.25s 13.667-7.292, 21.75-10.125s 15.75-5.00, 23.00-6.50
	s 15.208-2.667, 23.875-3.50c-13.667-9.333-20.50-24.167-20.50-44.50l0.00-39.115 c-7.549,2.247-14.99,4.902-22.30,7.994
	c-25.597,10.827-48.594,26.335-68.353,46.093c-19.758,19.759-35.267,42.756-46.093,68.354C 46.679,166.805, 41.00,194.957, 41.00,224.00
	s 5.679,57.195, 16.879,83.675c 10.827,25.597, 26.335,48.594, 46.093,68.353s 42.756,35.267, 68.353,46.093
	C 198.805,433.321, 226.957,439.00, 256.00,439.00s 57.195-5.679, 83.675-16.879c 25.598-10.827, 48.595-26.335, 68.354-46.093
	c 19.758-19.758, 35.266-42.756, 46.093-68.353C 465.321,281.195, 471.00,253.043, 471.00,224.00s-5.679-57.195-16.879-83.675
	C 443.294,114.728, 427.786,91.73, 408.028,71.972z"  />
<glyph unicode="&#xe004;" d="M 129.139,256.729 L 55.873,383.63 C 102.782,442.362 174.99,480.00 256.00,480.00 C 349.716,480.00 431.655,429.632 476.266,354.50 L 267.381,354.50 C 263.629,354.825 259.835,355.00 256.00,355.00 C 195.063,355.00 143.711,313.178 129.139,256.729 ZM 347.653,317.50 L 494.383,317.50 C 505.753,288.535 512.00,256.998 512.00,224.00 C 512.00,83.587 398.95-30.402 258.907-31.963 L 363.604,149.376 C 378.344,170.565 387.00,196.289 387.00,224.00 C 387.00,260.585 371.918,293.71 347.653,317.50 ZM 163.00,224.00 C 163.00,275.28 204.72,317.00 256.00,317.00 C 307.28,317.00 349.00,275.28 349.00,224.00 C 349.00,172.72 307.28,131.00 256.00,131.00 C 204.72,131.00 163.00,172.72 163.00,224.00 ZM 291.091,97.779 L 217.802-29.16 C 94.536-10.718 0.00,95.598 0.00,224.00 C 0.00,269.609 11.942,312.423 32.848,349.512 L 137.363,168.485 C 158.297,123.929 203.601,93.00 256.00,93.00 C 268.15,93.00 279.918,94.67 291.091,97.779 Z"  />
<glyph unicode="&#xe005;" d="M 511.263,312.93l-5.93-38.04c0.00,0.00-8.477,70.428-18.866,96.757c-15.923,40.344-23.007,40.02-23.054,39.961
	c 10.665-27.102, 8.731-41.662, 8.731-41.662s-18.896,51.499-68.856,67.884c-55.343,18.141-85.285,13.182-88.744,12.243
	c-0.525,0.004-1.032,0.005-1.515,0.005c 0.409-0.031, 0.806-0.073, 1.213-0.106c-0.017-0.01-0.045-0.021-0.041-0.026
	c 0.225-0.274, 61.153-10.651, 71.958-25.498c0.00,0.00-25.88,0.00-51.636-7.421c-1.164-0.333, 94.762-11.982, 114.373-107.837
	c0.00,0.00-10.515,21.938-23.52,25.664c 8.553-26.018, 6.357-75.388-1.788-99.925c-1.048-3.156-2.12,13.641-18.164,20.875
	c 5.14-36.823-0.308-95.228-25.854-111.316c-1.991-1.252, 16.015,57.655, 3.621,34.881c-71.354-109.401-155.702-50.486-193.624-24.555
	c 19.433-4.231, 56.327,0.659, 72.657,12.806c 0.021,0.015, 0.039,0.028, 0.059,0.043c 17.734,12.126, 28.236,20.982, 37.667,18.886
	c 9.437-2.107, 15.719,7.363, 8.39,15.765c-7.338,8.419-25.157,19.989-49.262,13.683c-17.00-4.452-38.067-23.261-70.224-4.216
	c-24.682,14.625-27.006,26.773-27.225,35.188c 0.609,2.983, 1.377,5.768, 2.288,8.312c 2.841,7.935, 11.456,10.329, 16.247,12.219
	c 8.128-1.396, 15.131-3.931, 22.484-7.703c 0.095,2.447, 0.126,5.695-0.009,9.38c 0.705,1.401, 0.269,5.626-0.861,10.79
	c-0.651,5.154-1.71,10.487-3.376,15.346c 0.006,0.001, 0.01,0.005, 0.015,0.007c 0.028,0.009, 0.054,0.02, 0.078,0.035
	c 0.039,0.022, 0.073,0.056, 0.104,0.095c 0.006,0.01, 0.015,0.017, 0.022,0.026c 0.041,0.062, 0.077,0.136, 0.099,0.233
	c 0.51,2.309, 6.011,6.762, 12.859,11.55c 6.136,4.29, 13.351,8.848, 19.034,12.376c 5.03,3.124, 8.86,5.441, 9.673,6.049
	c 0.309,0.233, 0.679,0.506, 1.082,0.818c 0.075,0.058, 0.15,0.116, 0.227,0.177c 0.047,0.037, 0.095,0.074, 0.143,0.113
	c 2.705,2.154, 6.742,6.224, 7.589,14.789c 0.002,0.021, 0.005,0.04, 0.006,0.061c 0.025,0.252, 0.046,0.507, 0.065,0.767
	c 0.014,0.181, 0.025,0.363, 0.036,0.548c 0.007,0.142, 0.016,0.283, 0.022,0.428c 0.015,0.337, 0.025,0.682, 0.03,1.032
	c0.00,0.02, 0.001,0.038, 0.002,0.058c 0.011,0.829-0.003,1.693-0.052,2.601c-0.027,0.507-0.063,0.965-0.149,1.381
	c-0.004,0.022-0.009,0.046-0.014,0.068c-0.009,0.041-0.018,0.082-0.029,0.122c-0.018,0.073-0.038,0.146-0.061,0.215
	c-0.003,0.009-0.005,0.016-0.008,0.023c-0.026,0.08-0.056,0.157-0.087,0.232c-0.002,0.003-0.002,0.005-0.003,0.008
	c-0.877,2.054-4.16,2.829-17.721,3.059c-0.013,0.001-0.025,0.001-0.038,0.001l0.00,0.00c-5.533,0.094-12.769,0.097-22.251,0.059
	c-16.625-0.067-25.814,16.252-28.747,22.566c 4.02,22.23, 15.638,38.071, 34.725,48.813c 0.361,0.203, 0.29,0.371-0.137,0.489
	c 3.732,2.257-45.123,0.062-67.593-28.518c-19.944,4.957-37.327,4.623-52.308,1.107c-2.877,0.081-6.462,0.44-10.717,1.326
	c-9.962,9.028-24.224,25.701-24.988,45.604c0.00,0.00-0.046-0.036-0.126-0.102c-0.01,0.191-0.028,0.38-0.036,0.571
	c0.00,0.00-30.358-23.332-25.814-86.941c-0.011-1.018-0.032-1.993-0.06-2.937c-8.216-11.144-12.293-20.51-12.596-22.578
	C 13.398,316.822, 6.011,294.517,0.00,260.654c0.00,0.00, 4.204,13.333, 12.642,28.433c-6.206-19.011-11.082-48.578-8.218-92.928
	c0.00,0.00, 0.757,9.833, 3.437,23.997c 2.093-27.505, 11.259-61.462, 34.429-101.394c 44.474-76.66, 112.835-115.37, 188.396-121.308
	c 13.418-1.106, 27.025-1.132, 40.712-0.093c 1.258,0.089, 2.516,0.182, 3.775,0.287c 15.482,1.087, 31.067,3.426, 46.619,7.183
	C 534.378,56.23, 511.263,312.93, 511.263,312.93z"  />
<glyph unicode="&#xe006;" d="M 367.101,165.585l 118.025,0.00 c 0.91,8.185, 1.274,16.549, 1.274,25.098c0.00,40.112-10.767,77.734-29.562,110.133
	c 19.44,51.654, 18.746,95.494-7.278,121.695c-24.748,24.64-91.145,20.64-166.206-12.599c-5.552,0.42-11.159,0.636-16.819,0.636
	c-103.024,0.00-189.463-70.897-213.354-166.425C 85.50,285.50, 119.50,315.50, 164.92,337.347c-4.13-3.87-28.227-27.826-32.28-31.882
	C 12.866,185.726-24.905,29.312, 15.737-11.337c 30.893-30.887, 86.879-25.671, 151.188,5.824
	c 29.903-15.229, 63.75-23.815, 99.609-23.815c 96.567,0.00, 178.402,62.158, 208.045,148.724L 355.645,119.396 
	c-16.367-30.191-48.374-50.74-85.109-50.74c-36.734,0.00-68.742,20.549-85.108,50.74c-7.275,13.637-11.457,29.277-11.457,45.828l0.00,0.361 
	L 367.101,165.585 z M 174.151,223.598c 2.728,48.555, 43.10,87.292, 92.383,87.292c 49.283,0.00, 89.656-38.736, 92.383-87.292L 174.151,223.598 z M 448.483,398.096
	c 16.763-16.94, 16.344-48.107, 2.006-87.011c-24.568,37.454-60.259,66.968-102.396,83.82
	C 393.146,414.224, 429.796,416.783, 448.483,398.096z M 46.741-3.628c-21.391,21.398-14.942,66.309, 12.615,120.416
	c 17.154-48.135, 50.578-88.545, 93.668-114.577C 105.309-19.448, 66.256-23.126, 46.741-3.628z"  />
<glyph unicode="&#xe007;" d="M 30.269,480.00l 41.072-460.815L 255.719-32.00l 184.862,51.262L 481.731,480.00L 30.269,480.00 z M 392.315,329.286l-0.195,0.00 L 176.045,329.286 l 5.151-57.875
	L 387.18,271.411 l-15.521-173.505L 255.99,65.818l-0.115-0.039l-0.077,0.00 l-0.061,0.00 l-115.786,32.127l-7.915,88.756l 56.747,0.00 l 4.024-45.116
	l 62.931-16.958l 0.139,0.039l 62.967,16.996l 6.535,73.275L 129.509,214.898 L 114.262,385.798l 283.107,0.00 L 392.315,329.286z"  />
<glyph unicode="&#xe008;" d="M 255.023,480.00C 115.161,480.00, 14.649,378.552, 14.649,226.388C 14.649,90.979, 112.40-32.00, 255.041-32.00
	c 144.039,0.00, 242.31,122.943, 242.31,258.388C 497.351,379.768, 393.628,480.00, 255.023,480.00z M 344.179,230.729
	c-0.034-84.676-4.549-205.241-89.138-205.241l0.00-0.017 c-83.392,0.00-86.716,120.633-86.716,205.154c0.00,99.19, 9.28,194.284, 86.716,194.284
	C 332.478,424.909, 344.179,328.617, 344.179,230.729z"  />
<glyph unicode="&#xe009;" d="M 256.00,448.00c-12.032,0.00-23.854-0.896-35.412-2.606c-0.15,0.391-0.312,0.774-0.491,1.148c 6.413,5.001, 9.775,11.915, 8.317,18.776
		C 226.547,474.10, 217.217,480.00, 205.197,480.00c-2.59,0.00-5.229-0.281-7.84-0.836c-15.084-3.207-25.073-14.311-22.741-25.281
		c 1.417-6.669, 7.146-11.669, 15.082-13.692c-0.016-0.486-0.008-0.975, 0.021-1.467C 89.408,409.959, 16.00,317.555, 16.00,208.00
		c0.00-132.549, 107.452-240.00, 240.00-240.00c 132.549,0.00, 240.00,107.451, 240.00,240.00C 496.00,340.548, 388.549,448.00, 256.00,448.00z M 182.441,455.546
		c-1.353,6.363, 6.24,13.595, 16.579,15.792C 201.086,471.777, 203.165,472.00, 205.197,472.00c 8.018,0.00, 14.347-3.432, 15.392-8.345
		c 0.798-3.755-1.535-7.805-5.693-10.952c-3.517,2.483-8.008,3.563-12.55,2.598c-4.522-0.961-8.174-3.754-10.379-7.428
		C 186.875,449.098, 183.213,451.915, 182.441,455.546z M 384.693,79.307c-21.984-21.984-48.605-37.639-77.655-46.077l-21.198,34.384
		l-5.373-39.979C 272.422,26.559, 264.254,26.00, 256.00,26.00c-48.614,0.00-94.318,18.932-128.693,53.307
		c-21.984,21.983-37.639,48.605-46.077,77.654l 34.384,21.199l-39.98,5.373C 74.559,191.578, 74.00,199.746, 74.00,208.00
		c0.00,48.614, 18.931,94.318, 53.307,128.693c 21.984,21.984, 48.606,37.639, 77.655,46.078l 21.198-34.385l 5.374,39.98
		C 239.578,389.441, 247.746,390.00, 256.00,390.00c 48.614,0.00, 94.318-18.931, 128.693-53.307c 21.984-21.984, 37.639-48.606, 46.077-77.655
		l-34.385-21.199l 39.98-5.373C 437.441,224.422, 438.00,216.254, 438.00,208.00C 438.00,159.386, 419.068,113.682, 384.693,79.307zM 380.451,332.451l-98.489-74.852c-7.322,3.829-15.438,6.031-23.708,6.363l-25.54,53.59l-1.534-59.332
		c-6.642-3.268-12.552-7.832-17.438-13.475l-31.544,11.182l 23.046-24.269c-3.167-6.759-4.933-14.015-5.217-21.412l-53.579-25.533
		l 59.369-1.534c 0.19-0.384, 0.387-0.763, 0.585-1.141l-74.852-98.49l 98.489,74.852c 7.322-3.828, 15.437-6.03, 23.708-6.362l 25.54-53.591
		l 1.533,59.332c 6.643,3.269, 12.553,7.832, 17.439,13.476l 31.545-11.184l-23.047,24.27c 3.168,6.76, 4.934,14.015, 5.218,21.412
		l 53.578,25.533l-59.368,1.535c-0.189,0.383-0.387,0.762-0.585,1.14L 380.451,332.451z M 256.051,257.733l0.00-1.724 L 256.051,257.733 
		L 256.051,257.733z M 246.021,254.951c 3.363,0.715, 6.722,1.059, 10.028,1.059c 2.072,0.00, 4.125-0.135, 6.147-0.398l 0.046-0.016
		l-0.005,0.011c 4.366-0.572, 8.588-1.75, 12.566-3.448l-35.773-27.188l-27.19-35.776c-1.188,2.797-2.135,5.742-2.79,8.826
		C 203.537,223.951, 220.09,249.439, 246.021,254.951z M 281.06,167.058L 281.06,167.058L 281.06,167.058
		c-4.528-2.772-9.591-4.842-15.08-6.009c-3.363-0.715-6.722-1.059-10.027-1.059c-2.075,0.00-4.129,0.136-6.154,0.399l-0.039,0.015
		l 0.005-0.01c-4.367,0.571-8.587,1.75-12.566,3.447l 35.772,27.188l 27.19,35.777c 1.188-2.797, 2.135-5.743, 2.79-8.827
		C 307.296,197.538, 297.923,177.379, 281.06,167.058z"  />
<glyph unicode="&#xe00a;" d="M 448.00,384.00 L 64.00,384.00 L 64.00,64.00 L 448.00,64.00 L 448.00,384.00 Z M 512.00,448.00 L 512.00,448.00 L 512.00,0.00 L 0.00,0.00 L 0.00,448.00 L 512.00,448.00 ZM 416.00,96.00 L 96.00,96.00 L 96.00,160.00 L 192.00,320.00 L 323.50,160.00 L 416.00,224.00 L 416.00,192.00 ZM 320.00,304.00A48.00,48.00 2700.00 1 1 416.00,304A48.00,48.00 2700.00 1 1 320.00,304z"  />
<glyph unicode="&#xe00b;" d="M 310.627,41.373l 160.00,160.00c 12.497,12.496, 12.497,32.758,0.00,45.255l-160.00,160.00c-12.497,12.496-32.758,12.496-45.255,0.00
	c-12.497-12.497-12.497-32.758,0.00-45.255L 370.745,256.00L 64.00,256.00 c-17.673,0.00-32.00-14.327-32.00-32.00s 14.327-32.00, 32.00-32.00l 306.745,0.00 L 265.372,86.627
	C 259.124,80.379, 256.00,72.189, 256.00,64.00s 3.124-16.379, 9.372-22.627C 277.869,28.876, 298.13,28.876, 310.627,41.373z"  />
<glyph unicode="&#xe00c;" d="M 201.373,406.627l-160.00-160.00c-12.497-12.496-12.497-32.758,0.00-45.254l 160.00-160.00c 12.497-12.496, 32.758-12.496, 45.255,0.00
	c 12.498,12.496, 12.498,32.758,0.00,45.254L 141.254,192.00L 448.00,192.00 c 17.673,0.00, 32.00,14.326, 32.00,32.00c0.00,17.673-14.327,32.00-32.00,32.00L 141.254,256.00 l 105.373,105.373
	C 252.875,367.621, 256.00,375.811, 256.00,384.00s-3.124,16.379-9.372,22.627C 234.13,419.124, 213.87,419.124, 201.373,406.627z"  />
<glyph unicode="&#xe00d;" d="M 512.00,300.922 C 512.00,257.741 493.391,218.907 463.755,192.00 L 464.00,192.00 L 304.00,32.00 C 288.00,16.00 272.00,0.00 256.00,0.00 C 240.00,0.00 224.00,16.00 208.00,32.00 L 48.00,192.00 L 48.245,192.00 C 18.609,218.907 0.00,257.741 0.00,300.922 C 0.00,382.151 65.849,448.00 147.078,448.00 C 190.259,448.00 229.093,429.391 256.00,399.755 C 282.907,429.391 321.741,448.00 364.922,448.00 C 446.15,448.00 512.00,382.151 512.00,300.922 Z"  />
<glyph unicode="&#xe00e;" d="M 544.00,29.417 C 544.00,6.667 557.014-13.037 576.00-22.675 L 576.00-30.644 C 570.687-31.371 565.264-31.756 559.75-31.756 C 525.746-31.756 495.076-17.492 473.389,5.376 C 460.278,1.885 446.388,0.00 432.00,0.00 C 352.471,0.00 288.00,57.308 288.00,128.00 C 288.00,198.692 352.471,256.00 432.00,256.00 C 511.529,256.00 576.00,198.692 576.00,128.00 C 576.00,100.326 566.118,74.704 549.322,53.767 C 545.91,46.355 544.00,38.111 544.00,29.417 ZM 115.339,369.407 C 82.232,342.508 64.00,307.915 64.00,272.00 C 64.00,251.851 69.594,232.311 80.626,213.925 C 92.002,194.965 109.117,177.632 130.12,163.799 C 145.298,153.803 155.51,137.825 158.208,119.852 C 159.108,113.86 159.672,107.808 159.893,101.79 C 163.628,104.887 167.268,108.213 170.833,111.778 C 182.91,123.854 199.223,130.523 216.084,130.523 C 218.768,130.523 221.465,130.355 224.162,130.011 C 234.636,128.68 245.334,128.003 255.959,128.001 L 255.959,64.001 C 242.395,64.002 229.082,64.87 216.088,66.522 C 161.099,11.533 95.463,1.672 32.00,0.224 L 32.00,13.682 C 66.268,30.471 96.00,61.052 96.00,96.00 C 96.00,100.877 95.621,105.665 94.918,110.348 C 37.02,148.48 0.00,206.725 0.00,272.00 C 0.00,386.875 114.615,480.00 256.00,480.00 C 395.229,480.00 508.496,389.693 511.918,277.24 C 491.37,286.398 468.998,291.951 445.787,293.529 C 440.022,321.563 423.086,347.937 396.661,369.407 C 379.00,383.756 358.203,395.102 334.847,403.129 C 309.994,411.669 283.467,416.00 256.00,416.00 C 228.534,416.00 202.006,411.669 177.153,403.129 C 153.797,395.102 133.00,383.757 115.339,369.407 Z" horiz-adv-x="576"  />
<glyph unicode="&#xe00f;" d="M 501.467,71.062l-230.276,197.38C 281.915,288.591, 288.00,311.583, 288.00,336.00C 288.00,415.529, 223.529,480.00, 144.00,480.00
	c-14.547,0.00-28.586-2.166-41.823-6.177l 83.195-83.195c 12.445-12.445, 12.445-32.81,0.00-45.255l-50.745-50.745
	c-12.445-12.445-32.81-12.445-45.255,0.00L 6.177,377.823C 2.166,364.586,0.00,350.547,0.00,336.00c0.00-79.529, 64.471-144.00, 144.00-144.00
	c 24.417,0.00, 47.409,6.085, 67.558,16.81l 197.38-230.276c 11.454-13.362, 31.008-14.113, 43.452-1.669l 50.746,50.746
	C 515.58,40.055, 514.829,59.608, 501.467,71.062z"  />
<glyph unicode="&#xe010;" d="M 448.00,128.00L 448.00,384.00 c0.00,17.60-14.40,32.00-32.00,32.00L 96.00,416.00 c-17.60,0.00-32.00-14.40-32.00-32.00l0.00-256.00 L0.00,128.00 l0.00-96.00 l 512.00,0.00 l0.00,96.00 L 448.00,128.00 z M 320.00,64.00L 192.00,64.00 l0.00,32.00 l 128.00,0.00 L 320.00,64.00 z M 416.00,128.00L 96.00,128.00 
	L 96.00,383.943 c 0.017,0.02, 0.038,0.041, 0.057,0.057l 319.885,0.00 c 0.02-0.017, 0.041-0.038, 0.058-0.058L 416.00,128.00 z"  />
<glyph unicode="&#xe011;" d="M 480.00,96.00c0.00,0.00-132.00,0.00-160.00,0.00s 32.00-96.00, 32.00-96.00c0.00-17.664-14.336-32.00-32.00-32.00l-128.00,0.00 c-17.664,0.00-32.00,14.336-32.00,32.00
	c0.00,0.00, 60.992,96.00, 32.00,96.00S 32.00,96.00, 32.00,96.00c-17.664,0.00-32.00,14.336-32.00,32.00L0.00,448.00 c0.00,17.664, 14.336,32.00, 32.00,32.00l 448.00,0.00 c 17.664,0.00, 32.00-14.336, 32.00-32.00l0.00-320.00 C 512.00,110.336, 497.664,96.00, 480.00,96.00z
	 M 256.00,112.00c 17.664,0.00, 32.00,14.336, 32.00,32.00s-14.336,32.00-32.00,32.00s-32.00-14.336-32.00-32.00S 238.336,112.00, 256.00,112.00z M 480.00,416.00c0.00,17.664-14.336,32.00-32.00,32.00L 64.00,448.00 C 46.336,448.00, 32.00,433.664, 32.00,416.00l0.00-192.00 
	c0.00-17.664, 14.336-32.00, 32.00-32.00l 384.00,0.00 c 17.664,0.00, 32.00,14.336, 32.00,32.00L 480.00,416.00 z"  />
<glyph unicode="&#xe012;" d="M 368.00,480.00L 144.00,480.00 c-26.40,0.00-48.00-21.60-48.00-48.00l0.00-416.00 c0.00-26.40, 21.60-48.00, 48.00-48.00l 224.00,0.00 c 26.40,0.00, 48.00,21.60, 48.00,48.00L 416.00,432.00 C 416.00,458.40, 394.40,480.00, 368.00,480.00z M 192.00,456.00
	l 128.00,0.00 l0.00-16.00 L 192.00,440.00 L 192.00,456.00 z M 256.00,0.00c-17.673,0.00-32.00,14.327-32.00,32.00s 14.327,32.00, 32.00,32.00s 32.00-14.327, 32.00-32.00S 273.673,0.00, 256.00,0.00z M 384.00,96.00L 128.00,96.00 L 128.00,416.00 l 256.00,0.00 L 384.00,96.00 
	z"  />
<glyph unicode="&#xe013;" d="M 400.00,480.00L 80.00,480.00 C 53.60,480.00, 32.00,458.40, 32.00,432.00l0.00-416.00 c0.00-26.40, 21.60-48.00, 48.00-48.00l 320.00,0.00 c 26.40,0.00, 48.00,21.60, 48.00,48.00L 448.00,432.00 C 448.00,458.40, 426.40,480.00, 400.00,480.00z M 240.00-16.00
	c-8.836,0.00-16.00,7.163-16.00,16.00s 7.164,16.00, 16.00,16.00s 16.00-7.163, 16.00-16.00S 248.836-16.00, 240.00-16.00z M 384.00,32.00L 96.00,32.00 L 96.00,416.00 l 288.00,0.00 L 384.00,32.00 z"  />
<glyph unicode="&#xe014;" d="M 160.00,288.00L 224.00,288.00L 224.00,224.00L 160.00,224.00zM 256.00,288.00L 320.00,288.00L 320.00,224.00L 256.00,224.00zM 352.00,288.00L 416.00,288.00L 416.00,224.00L 352.00,224.00zM 64.00,96.00L 128.00,96.00L 128.00,32.00L 64.00,32.00zM 160.00,96.00L 224.00,96.00L 224.00,32.00L 160.00,32.00zM 256.00,96.00L 320.00,96.00L 320.00,32.00L 256.00,32.00zM 160.00,192.00L 224.00,192.00L 224.00,128.00L 160.00,128.00zM 256.00,192.00L 320.00,192.00L 320.00,128.00L 256.00,128.00zM 352.00,192.00L 416.00,192.00L 416.00,128.00L 352.00,128.00zM 64.00,192.00L 128.00,192.00L 128.00,128.00L 64.00,128.00zM 416.00,480.00l0.00-32.00 l-64.00,0.00 L 352.00,480.00 L 128.00,480.00 l0.00-32.00 L 64.00,448.00 L 64.00,480.00 L0.00,480.00 l0.00-512.00 l 480.00,0.00 L 480.00,480.00 L 416.00,480.00 z M 448.00,0.00L 32.00,0.00 L 32.00,352.00 l 416.00,0.00 L 448.00,0.00 z"  />
<glyph unicode="&#xe015;" d="M 512.00,265.372c0.00,100.463-29.396,181.969-65.741,182.613c 0.146,0.003, 0.289,0.015, 0.436,0.015l-41.471,0.00 
	c0.00,0.00-97.40-73.168-237.615-101.877c-4.28-22.646-7.015-49.637-7.015-80.751c0.00-31.114, 2.733-58.104, 7.015-80.75
	c 140.214-28.709, 237.615-101.878, 237.615-101.878l 41.471,0.00 c-0.146,0.00-0.289,0.012-0.436,0.016C 482.607,83.404, 512.00,164.909, 512.00,265.372
	z M 432.412,110.374c-4.691,0.00-9.766,4.871-12.373,7.774c-6.315,7.032-12.396,17.98-17.594,31.664
	c-11.628,30.616-18.033,71.655-18.033,115.562c0.00,43.905, 6.405,84.945, 18.033,115.561c 5.197,13.684, 11.281,24.633, 17.594,31.664
	c 2.607,2.906, 7.682,7.776, 12.373,7.776c 4.69,0.00, 9.768-4.872, 12.372-7.776c 6.317-7.032, 12.398-17.979, 17.594-31.664
	c 11.629-30.615, 18.034-71.656, 18.034-115.561c0.00-43.902-6.405-84.944-18.034-115.562c-5.195-13.684-11.281-24.632-17.594-31.664
	C 442.18,115.245, 437.104,110.374, 432.412,110.374z M 125.906,265.372c0.00,25.975, 1.905,51.215, 5.526,74.547
	c-23.686-3.277-44.471-5.162-70.17-5.162c-33.529,0.00-33.529,0.00-33.529,0.00L0.00,287.414l0.00-44.085 l 27.73-47.343c0.00,0.00,0.00,0.00, 33.53,0.00
	c 25.699,0.00, 46.484-1.887, 70.17-5.162C 127.812,214.156, 125.906,239.397, 125.906,265.372z M 184.075,158.914l-63.999,12.255
	l 40.921-160.772c 2.118-8.317, 10.372-12.519, 18.343-9.327l 59.278,23.726c 7.972,3.188, 11.164,11.982, 7.098,19.542L 184.075,158.914zM 432.412,205.635c-1.809,0.00-3.764,1.877-4.769,2.996c-2.435,2.71-4.778,6.93-6.781,12.204
	c-4.481,11.80-6.95,27.617-6.95,44.539c0.00,16.922, 2.469,32.739, 6.95,44.539c 2.003,5.274, 4.348,9.494, 6.781,12.204
	c 1.005,1.12, 2.96,2.997, 4.769,2.997c 1.808,0.00, 3.765-1.878, 4.769-2.997c 2.435-2.71, 4.778-6.929, 6.78-12.204
	c 4.482-11.799, 6.951-27.617, 6.951-44.539c0.00-16.921-2.469-32.739-6.951-44.539c-2.002-5.274-4.348-9.494-6.78-12.204
	C 436.177,207.512, 434.221,205.635, 432.412,205.635z"  />
<glyph unicode="&#xe016;" d="M 288.117,335.365L 409.473,376.081L 511.265,72.689L 389.909,31.973zM0.00,32.00l 128.00,0.00 L 128.00,384.00 L0.00,384.00 L0.00,32.00 z M 32.00,320.00l 64.00,0.00 l0.00-32.00 L 32.00,288.00 L 32.00,320.00 zM 160.00,32.00l 128.00,0.00 L 288.00,384.00 L 160.00,384.00 L 160.00,32.00 z M 192.00,320.00l 64.00,0.00 l0.00-32.00 l-64.00,0.00 L 192.00,320.00 z"  />
<glyph unicode="&#xe017;" d="M 256.00,480.00C 167.634,480.00, 96.00,408.366, 96.00,320.00c0.00-160.00, 160.00-352.00, 160.00-352.00s 160.00,192.00, 160.00,352.00C 416.00,408.366, 344.365,480.00, 256.00,480.00z M 256.00,224.00
	c-53.02,0.00-96.00,42.98-96.00,96.00s 42.98,96.00, 96.00,96.00s 96.00-42.98, 96.00-96.00S 309.02,224.00, 256.00,224.00z"  />
<glyph unicode="&#xe018;" d="M 160.00,384.00A96.00,96.00 10980.00 1 1 352.00,384A96.00,96.00 10980.00 1 1 160.00,384zM 384.039,256.00l-0.078,0.00 l-17.634,0.00 l-99.552-202.122L 304.00,240.00l-48.00,48.00l-48.00-48.00l 37.225-186.122L 145.674,256.00l-17.635,0.00 l-0.077,0.00 
		C 64.00,256.00, 64.00,213.007, 64.00,160.00l0.00-160.00 l 384.00,0.00 L 448.00,160.00 C 448.00,213.007, 448.00,256.00, 384.039,256.00z"  />
<glyph unicode="&#xe019;" d="M 432.00,480.00L 48.00,480.00 C 21.60,480.00,0.00,458.40,0.00,432.00l0.00-416.00 c0.00-26.40, 21.60-48.00, 48.00-48.00l 384.00,0.00 c 26.40,0.00, 48.00,21.60, 48.00,48.00L 480.00,432.00 C 480.00,458.40, 458.40,480.00, 432.00,480.00z M 416.00,32.00L 64.00,32.00 
		L 64.00,416.00 l 352.00,0.00 L 416.00,32.00 zM 128.00,192.00L 352.00,192.00L 352.00,160.00L 128.00,160.00zM 128.00,128.00L 352.00,128.00L 352.00,96.00L 128.00,96.00zM 160.00,336.00A48.00,48.00 4860.00 1 1 256.00,336A48.00,48.00 4860.00 1 1 160.00,336zM 240.00,288.00l-64.00,0.00 c-26.40,0.00-48.00-14.40-48.00-32.00l0.00-32.00 l 160.00,0.00 l0.00,32.00 C 288.00,273.60, 266.40,288.00, 240.00,288.00z"  />
<glyph unicode="&#xe01a;" d="M 192.00,480.00L0.00,224.00L 192.00,224.00L 64.00-32.00L 512.00,288.00L 256.00,288.00L 448.00,480.00 z"  />
<glyph unicode="&#xe01b;" d="M 437.02,405.019 C 485.371,356.667 512.00,292.379 512.00,223.999 C 512.00,155.619 485.371,91.332 437.02,42.98 C 388.667-5.371 324.38-32.00 256.00-32.00 C 187.62-32.00 123.333-5.371 74.98,42.98 C 26.629,91.332 0.00,155.619 0.00,223.999 C 0.00,292.379 26.627,356.667 74.98,405.019 C 123.333,453.371 187.62,480.00 256.00,480.00 C 324.38,480.00 388.667,453.371 437.02,405.019 Z M 414.392,65.607 C 445.921,97.137 466.885,136.411 475.528,179.138 C 468.791,169.22 462.347,165.541 458.356,187.741 C 454.246,223.936 421.002,200.815 400.098,213.671 C 378.096,198.842 328.645,242.502 337.049,193.259 C 350.016,171.048 407.053,222.984 378.623,175.988 C 360.486,143.18 312.302,70.522 318.57,32.859 C 319.361-22.013 262.503,21.417 242.913,39.619 C 229.735,76.079 238.422,139.806 203.964,157.662 C 166.563,159.286 134.462,162.685 119.967,204.497 C 111.244,234.411 129.249,278.944 161.306,285.819 C 208.231,315.302 224.993,251.292 269.001,250.102 C 282.665,264.399 319.909,268.945 322.997,284.977 C 294.122,290.072 359.631,309.256 320.233,320.168 C 298.498,317.612 284.494,297.631 296.049,280.689 C 253.93,270.868 252.581,341.641 212.094,319.318 C 211.065,284.023 145.983,307.875 189.576,315.032 C 204.554,321.576 165.146,340.54 186.436,337.094 C 196.894,337.662 232.102,350.00 222.574,358.295 C 242.179,370.465 258.654,329.15 277.843,359.236 C 291.697,382.369 272.033,386.64 254.668,374.914 C 244.878,385.876 271.953,409.552 295.834,419.783 C 303.793,423.193 311.395,425.051 317.207,424.525 C 329.236,410.629 351.482,408.222 352.646,426.196 C 322.855,440.463 290.008,448.00 256.00,448.00 C 207.189,448.00 160.765,432.488 122.346,403.805 C 132.671,399.075 138.532,393.186 128.585,385.657 C 120.857,362.63 89.50,331.719 61.973,336.095 C 47.68,311.447 38.267,284.292 34.243,255.831 C 57.299,248.203 62.615,233.106 57.661,228.056 C 45.913,217.812 38.693,203.291 34.973,187.395 C 42.478,141.477 64.059,99.157 97.608,65.607 C 139.916,23.30 196.167,0.00 256.00,0.00 C 315.832,0.00 372.084,23.30 414.392,65.607 Z"  />
<glyph unicode="&#xe01c;" d="M 512.00,151.229c0.00,41.045-28.339,75.45-66.498,84.74C 443.881,300.319, 391.273,352.00, 326.571,352.00
	c-37.896,0.00-71.633-17.747-93.427-45.366c-12.221,15.799-31.345,25.98-52.854,25.98c-36.905,0.00-66.821-29.937-66.821-66.861
	c0.00-3.218, 0.24-6.38, 0.682-9.477c-5.611,1.012-11.383,1.569-17.285,1.569C 43.367,257.846,0.00,214.452,0.00,160.924
	C0.00,107.393, 43.367,64.00, 96.865,64.00l 328.131,0.00 l0.00,0.006 C 473.065,64.098, 512.00,103.112, 512.00,151.229z"  />
<glyph unicode="&#xe01d;" d="M 256.00,480.00 C 397.385,480.00 512.00,365.385 512.00,224.00 C 512.00,93.453 414.281-14.265 288.00-30.013 L 288.00,160.00 L 376.00,160.00 L 384.00,224.00 L 288.00,224.00 L 288.00,256.00 C 288.00,273.673 302.327,288.00 320.00,288.00 L 384.00,288.00 L 384.00,352.00 L 320.00,352.00 C 266.98,352.00 224.00,309.02 224.00,256.00 L 224.00,224.00 L 176.00,224.00 L 176.00,160.00 L 224.00,160.00 L 224.00,33.50 L 224.00-23.935 L 224.00-30.013 C 97.719-14.265 0.00,93.453 0.00,224.00 C 0.00,365.385 114.615,480.00 256.00,480.00 Z"  />
<glyph unicode="&#xe01e;" d="M 240.00,448.00C 107.452,448.00,0.00,340.548,0.00,208.00c0.00-132.549, 107.452-240.00, 240.00-240.00c 132.549,0.00, 240.00,107.451, 240.00,240.00
		C 480.00,340.548, 372.549,448.00, 240.00,448.00z M 240.00,16.00c-106.039,0.00-192.00,85.961-192.00,192.00c0.00,106.039, 85.961,192.00, 192.00,192.00
		c 106.039,0.00, 192.00-85.961, 192.00-192.00C 432.00,101.961, 346.039,16.00, 240.00,16.00zM 256.00,224.00l0.00,64.00 l 64.00,0.00 l0.00,32.00 l-64.00,0.00 l0.00,32.00 l-32.00,0.00 l0.00-32.00 l-64.00,0.00 l0.00-128.00 l 64.00,0.00 l0.00-64.00 l-64.00,0.00 l0.00-32.00 l 64.00,0.00 l0.00-32.00 l 32.00,0.00 l0.00,32.00 l 64.00,0.00 l 0.001,0.00 L 320.00,224.00L 256.00,224.00 z M 224.00,224.00l-32.00,0.00 l0.00,64.00 l 32.00,0.00 L 224.00,224.00 z
	 M 288.001,128.00L 256.00,128.00 l0.00,64.00 l 32.001,0.00 L 288.001,128.00 z"  />
<glyph unicode="&#xe01f;" d="M 311.413,128.632c-11.055,1.759-11.307,32.157-11.307,32.157s 32.484,32.158, 39.564,75.401
	c 19.045,0.00, 30.809,45.973, 11.761,62.148C 352.226,315.365, 375.911,432.00, 256.00,432.00c-119.911,0.00-96.225-116.635-95.432-133.662
	c-19.047-16.175-7.285-62.148, 11.761-62.148c 7.079-43.243, 39.564-75.401, 39.564-75.401s-0.252-30.398-11.307-32.157
	C 164.976,122.966, 32.00,64.315, 32.00,0.00l 224.00,0.00 l 224.00,0.00 C 480.00,64.315, 347.024,122.966, 311.413,128.632z"  />
<glyph unicode="&#xe020;" d="M 32.00,384.00L 480.00,384.00L 480.00,288.00L 32.00,288.00zM 32.00,256.00L 480.00,256.00L 480.00,160.00L 32.00,160.00zM 32.00,128.00L 480.00,128.00L 480.00,32.00L 32.00,32.00z"  />
<glyph unicode="&#xe021;" d="M 192.00,224.00 L 32.00,224.00 L 32.00,288.00 L 192.00,288.00 L 192.00,352.00 L 288.00,256.00 L 192.00,160.00 ZM 512.00,480.00 L 512.00,64.00 L 320.00-32.00 L 320.00,64.00 L 128.00,64.00 L 128.00,192.00 L 160.00,192.00 L 160.00,96.00 L 320.00,96.00 L 320.00,384.00 L 448.00,448.00 L 160.00,448.00 L 160.00,320.00 L 128.00,320.00 L 128.00,480.00 Z"  />
<glyph unicode="&#x62;" d="M 228.708,161.164l 0.00-193.605 c0.00,0.00 -2.933,66.092 -49.933,110.148C 178.774,77.707, 211.082,93.609, 228.708,161.164
		zM 238.99,161.164l 0.00-193.605 c0.00,0.00, 2.939,66.092, 49.933,110.148C 288.922,77.707, 256.613,93.609, 238.99,161.164
		zM 146.462,273.041c0.00,0.00, 95.466-38.185, 30.843-182.112c0.00,0.00, 44.057,22.03, 39.652,99.867
		C 212.554,268.635, 146.462,273.041, 146.462,273.041zM 323.014,273.041c0.00,0.00 -95.464-38.185 -30.845-182.112c0.00,0.00 -44.059,22.03 -39.652,99.867
		C 256.924,268.635, 323.014,273.041, 323.014,273.041zM 150.11,287.536c0.00,0.00, 71.998-21.246, 79.529-86.187c0.00,0.00, 0.469,81.009 -85.173,138.421
		C 144.465,339.771, 149.641,317.652, 150.11,287.536zM 318.579,287.536c0.00,0.00 -71.998-21.246 -79.529-86.187c0.00,0.00 -0.468,81.009, 85.175,138.421
		C 324.224,339.771, 319.049,317.652, 318.579,287.536zM 192.464,319.065c0.00,0.00, 39.057-41.882, 41.414-82.35c0.00,0.00, 1.879,37.644, 39.996,80.94
		C 273.874,317.655, 232.933,280.007, 192.464,319.065zM 162.818,352.003c0.00,0.00 -24.469,24.94 -24.469,40.471c 0.00,15.528, 0.00,55.526, 0.00,55.526
		s -43.293-19.764 -55.526-42.35c0.00,0.00, 37.644,0.469, 39.524-3.764c0.00,0.00 -0.941,9.411 -12.706,13.177c0.00,0.00, 8.584,12.232, 17.054,13.644
		l 0.772-33.411C 127.469,395.297, 142.583,355.769, 162.818,352.003zM 304.403,352.003c0.00,0.00, 24.47,24.94, 24.47,40.471c 0.00,15.528, 0.00,55.526, 0.00,55.526s 43.297-19.764, 55.531-42.35
		c0.00,0.00 -37.644,0.469 -39.529-3.764c0.00,0.00, 0.942,9.411, 12.709,13.177c0.00,0.00 -8.586,12.232 -17.055,13.644l -0.774-33.411
		C 339.753,395.297, 324.638,355.769, 304.403,352.003zM 318.103,158.599c0.00,0.00, 15.067,61.173, 12.708,79.527c -2.35,18.351 -9.41,74.82, 0.939,98.35
		c0.00,0.00, 1.419-58.355, 28.71-65.411C 360.46,271.065, 367.993,239.537, 318.103,158.599zM 149.106,158.599c0.00,0.00 -15.06,61.173 -12.706,79.527c 2.354,18.351, 9.41,74.82 -0.942,98.35
		c0.00,0.00 -1.41-58.355 -28.706-65.411C 106.754,271.065, 99.226,239.537, 149.106,158.599zM 360.926,376.001c0.00,0.00, 37.645-83.291, 7.056-104.467c0.00,0.00, 3.299-50.35 -24.47-107.759
		c0.00,0.00, 59.769,93.174, 59.296,109.173C 402.338,288.947, 404.694,333.182, 360.926,376.001zM 107.291,376.001c0.00,0.00 -37.647-83.291 -7.059-104.467c0.00,0.00 -3.296-50.35, 24.469-107.759
		c0.00,0.00 -59.762,93.174 -59.293,109.173C 65.879,288.947, 63.528,333.182, 107.291,376.001zM 119.052,377.885c0.00,0.00 -15.998-87.999 -17.879-91.292C 99.289,283.298, 86.585,344.003, 119.052,377.885zM 349.386,377.885c0.00,0.00, 15.999-87.999, 17.88-91.292C 369.146,283.298, 381.859,344.003, 349.386,377.885zM 345.342,376.058c0.00,0.00, 12.765-80.525, 14.647-90.876C 361.873,274.829, 321.346,331.824, 345.342,376.058zM 122.647,376.058c0.00,0.00 -12.762-80.525 -14.646-90.876C 106.122,274.829, 146.646,331.824, 122.647,376.058zM 105.408,383.06c0.00,0.00 -59.765-63.528 -54.59-153.409c0.00,0.00 -12.234,20.706 -8.469,94.119
		C 42.352,323.771, 70.587,367.533, 105.408,383.06zM 362.565,383.06c0.00,0.00, 59.762-63.528, 54.587-153.409c0.00,0.00, 12.235,20.706, 8.469,94.119
		C 425.621,323.771, 397.388,367.533, 362.565,383.06zM 184.935,360.472c0.00,0.00, 21.174,13.179, 24.471,30.118c 3.293,16.941 -7.53,26.825 -28.237,15.999
		c0.00,0.00, 5.177,29.177, 37.174,33.882c 32.001,4.705, 46.119-31.53, 46.119-31.53s -1.881-36.233, 18.356-45.642
		c0.00,0.00 -15.063-9.411 -24.943,23.055c -9.886,32.471 -15.529,42.821 -46.586,33.939C 211.288,420.292, 243.75,372.707, 184.935,360.472zM 176.463,361.414c0.00,0.00 -35.293,67.292, 5.177,118.586C 181.641,480.00, 23.997,462.588, -0.002,269.651
		c0.00,0.00, 22.588,49.41, 57.881,81.41l -7.529,0.942c0.00,0.00 -4.233,18.822, 56.941,46.586c0.00,0.00 -16.942,1.883 -39.999-6.119
		c0.00,0.00, 20.761,43.822, 79.583,64.997C 146.875,457.466, 134.113,362.354, 176.463,361.414zM 293.641,361.414c0.00,0.00, 35.294,67.292 -5.176,118.586c0.00,0.00, 157.638-17.412, 181.64-210.349
		c0.00,0.00 -22.588,49.41 -57.878,81.41l 7.524,0.942c0.00,0.00, 4.236,18.822 -56.938,46.586c0.00,0.00, 16.94,1.883, 39.999-6.119
		c0.00,0.00 -20.762,43.822 -79.583,64.997C 323.229,457.466, 335.992,362.354, 293.641,361.414zM 223.518,408.035c0.00,0.00, 20.038-61.906 -49.884-61.46c0.00,0.00 -3.119-7.572, 21.377-6.682
		c0.00,0.00 -5.345-8.016 -10.244-8.016l 18.709-0.446c0.00,0.00 -2.229-5.79 -5.792-6.234c0.00,0.00, 17.817-0.89, 20.041,1.336
		c0.00,0.00, 3.12-4.01 -2.67-8.019c0.00,0.00, 9.801-1.334, 15.588,8.019c0.00,0.00, 6.683-8.91, 17.812-9.354c0.00,0.00 -5.344,7.127 -3.56,9.354
		c0.00,0.00, 9.35-6.234, 19.594-4.453c0.00,0.00 -7.572,5.342 -4.452,9.797c0.00,0.00, 12.914-4.01, 16.034-1.781c0.00,0.00 -8.465,5.344 -5.35,8.46
		c0.00,0.00, 13.364-3.116, 20.045,8.464c0.00,0.00 -32.066-7.126 -39.192,26.721C 244.446,407.589, 231.531,406.253, 223.518,408.035z" horiz-adv-x="470.07244094488186"  />
<glyph unicode="&#x66;" d="M 517.867-22.998l0.00-4.338 l-1.329,0.00 l0.00,9.605 l 3.43,0.00 c 1.61,0.00, 3.274-0.505, 3.274-2.406c0.00-1.157-0.691-2.048-1.811-2.316l0.00-0.028 
				c 1.157-0.277, 1.315-0.891, 1.466-1.967c 0.144-0.961, 0.251-1.985, 0.598-2.89l-1.422,0.00 c-0.126,0.573-0.279,1.199-0.342,1.771
				c-0.112,0.863-0.112,1.652-0.552,2.129c-0.384,0.438-0.915,0.398-1.448,0.438L 517.867-22.998 z M 517.839-21.853l 2.197,0.00 
				c 1.473,0.065, 1.804,0.733, 1.804,1.492c0.00,0.759-0.333,1.422-1.804,1.489l-2.197,0.00 L 517.839-21.853 zM 528.559-22.507c0.00-4.936-4.008-8.934-8.937-8.934s-8.937,4.001-8.937,8.934c0.00,4.934, 4.008,8.934, 8.937,8.934
			S 528.559-17.571, 528.559-22.507z M 519.619-14.913c-4.194,0.00-7.596-3.40-7.596-7.596s 3.402-7.596, 7.596-7.596
			s 7.596,3.40, 7.596,7.596S 523.811-14.913, 519.619-14.913zM 182.914,57.158l 66.432,0.00 l-4.836-22.749L 212.687,34.411 l-1.983-9.314l 31.732,0.00 l-4.871-22.749L 205.873,2.346 l-6.921-32.547L 164.345-30.201 L 182.914,57.158
		zM 257.199,57.158l 34.607,0.00 l-18.572-87.361L 238.629-30.203 L 257.199,57.158zM 328.15,20.734l 3.526,16.579l 3.144,0.00 c 6.779,0.00, 10.975-1.329, 9.607-7.75c-1.385-6.533-6.719-8.83-13.37-8.83L 328.15,20.734 z
		 M 283.443-30.203l 33.88,0.00 l 6.612,31.097l 3.991,0.00 c 5.571,0.00, 7.384-1.699, 7.187-6.053c-0.384-7.508-1.636-18.513-0.968-25.048l 33.883,0.00 
		c-1.189,13.186, 1.68,25.526, 1.334,33.031c-0.279,6.658-4.08,10.408-12.393,11.134l 0.049,0.235c 13.738,3.151, 19.596,10.773, 21.73,20.813
		c 3.498,16.456-6.305,22.149-25.062,22.149l-51.668,0.00 L 283.443-30.203zM 459.469,32.149l 0.256,5.695c 0.882,16.384-13.177,21.383-32.801,21.383c-25.53,0.00-42.356-10.289-46.217-28.442
		c-2.392-11.252, 0.605-19.356, 13.186-23.352l 23.021-7.263c 3.065-0.966, 5.243-2.662, 4.552-5.928c-0.824-3.873-4.79-7.142-9.868-7.142
		c-3.263,0.00-5.218,1.089-6.184,2.788c-0.947,1.815-0.915,4.231-0.40,6.654l-33.154,0.00 c-4.838-22.749, 13.135-29.279, 34.19-29.279
		c 24.683,0.00, 44.013,8.951, 48.563,30.366c 2.234,10.524-0.929,18.392-10.961,22.996c-8.041,3.752-19.745,6.17-25.989,8.106
		c-3.40,1.091-5.171,2.42-4.508,5.565c 0.573,2.665, 3.503,5.09, 9.065,5.09c 4.48,0.00, 7.126-1.82, 6.083-7.261M 460.386,31.683L 460.446,31.688L 481.776,31.702L 468.629-30.899L 503.363-30.934L 516.724,31.716L 538.10,31.716L 543.881,56.504L 465.757,56.471 	zM 418.001,404.85l-1.61-1.671l-52.931-54.856c-23.496,10.182-53.79,15.714-83.305,14.792
	c-10.582-0.33-23.284-1.68-33.396-3.554L 181.534,471.55l-0.044-0.023l 0.067,0.14L 155.883,480.735L0.00,162.818l 24.911-11.138l 0.049-0.149
	l 117.227,34.392c 18.653-45.412, 77.096-77.393, 145.289-75.278c 28.165,0.88, 54.277,7.494, 76.374,18.197l 50.134-48.642l 147.803,152.299
	l 10.426,22.996l 0.296,0.305L 418.001,404.85z M 278.991,357.879c 29.47,0.917, 56.893-3.747, 80.298-13.878l-22.023-22.826
	c-16.582,6.959-35.991,10.708-56.669,10.065c-5.62-0.175-11.122-0.684-16.493-1.466l-14.55,24.981
	C 259.053,356.475, 268.884,357.562, 278.991,357.879z M 316.344,299.497l-21.576-22.36l-14.878,25.542c 0.535,0.023, 1.066,0.061, 1.606,0.077
	C 293.569,303.132, 305.408,301.891, 316.344,299.497z M 413.996,168.858l 9.216-8.906l 92.972,96.249l-96.312,93.089l-92.972-96.244
	l 1.671-1.622l 44.018-42.545c 0.936,1.273, 1.836,2.562, 2.697,3.868l-35.589,34.395l 27.013,27.985c 10.107-8.958, 17.441-19.675, 21.148-31.483
	c 0.817,4.659, 1.173,9.335, 1.029,13.964c-0.137,4.382-0.533,8.52-1.32,12.502c-1.752,6.358-4.529,12.421-8.25,18.078l 30.771,31.877
	l 83.454-80.60l-70.447-72.934l-6.391,6.179c 10.405,15.432, 16.065,32.805, 15.497,51.06l-0.005,0.168
	c-0.007,0.528, 0.021,1.047, 0.005,1.578l-0.947,30.22c 0.791-25.411-10.44-49.136-29.838-68.252l-3.377-3.207
	c-8.625-7.889-18.672-14.92-29.887-20.855l-0.128,0.123c-8.625-4.603-17.929-8.571-27.792-11.788c-16.573-5.318-34.672-8.543-53.716-9.137
	c-73.349-2.283-134.356,34.325-147.754,85.229l-0.289,0.796c-1.068,3.561-1.89,7.194-2.462,10.887l-0.158,0.533
	c-0.282,2.346-0.749,4.061-0.824,6.451l-0.147-7.324l-22.845-6.845l 70.472,143.707l 35.049-62.145
	C 193.031,299.555, 177.206,277.651, 176.477,253.359c 0.219-4.345, 0.933-8.576, 2.078-12.691l 78.762,23.636L 184.906,392.851l-3.733-7.64
	l-0.135-0.007l-78.534-160.559l-0.363-0.873l-3.379-7.052l 36.862,11.062l 0.363-11.492c 0.284-9.162, 2.127-18.011, 5.313-26.419l-113.238-32.915
	l-0.382,0.195L 178.842,466.111l 113.887-197.834l 4.655,4.364l 0.291,0.328l 120.446,125.307l 147.81-142.594l-141.456-146.688l-36.941,35.703
	c 9.979,7.287, 18.588,15.562, 25.507,24.604L 413.996,168.858z M 230.246,291.414l 11.383-20.182l-55.359-16.612
	C 195.372,269.91, 210.844,282.824, 230.246,291.414z M 295.168,234.028l-98.423-27.995l 0.014-0.014l-3.309-0.957
	c 19.351-22.153, 55.498-37.474, 94.334-36.266c 10.645,0.33, 20.88,1.813, 30.506,4.247l 1.783,0.412c 10.098,2.651, 17.976,5.939, 26.214,11.103
	l-48.554,46.925L 295.168,234.028z M 287.495,174.32c-33.052-1.029-65.061,11.15-85.457,28.125l 66.369,18.998l 45.103-43.76
	C 305.489,175.779, 296.906,174.613, 287.495,174.32z" horiz-adv-x="572.5090909090909"  />
<glyph unicode="&#x21;" d="M 480.002,335.997L 368.003,447.996L 400.003,479.996L 512.002,367.997zM 448.00,304.00 L 432.00,128.00 C 288.00,128.00 80.00-32.00 80.00-32.00 L 53.435-5.435 L 190.267,131.397 C 195.754,129.213 201.734,128.00 208.00,128.00 C 234.51,128.00 256.00,149.49 256.00,176.00 C 256.00,202.51 234.51,224.00 208.00,224.00 C 181.49,224.00 160.00,202.51 160.00,176.00 C 160.00,169.734 161.213,163.755 163.397,158.267 L 26.565,21.435 L 0.00,48.00 C 0.00,48.00 160.00,256.00 160.00,400.00 L 336.00,416.00 L 448.00,304.00 Z"  />
<glyph unicode="&#x23;" d="M 119.37,128.188c-0.529-3.198-1.695-4.798-3.463-4.798L 68.999,123.394 c-1.602,0.00-2.577,1.501-2.935,4.532
		c 0.18,0.538, 0.266,1.242, 0.266,2.131l 14.125,74.889c0.00,0.54, 0.088,0.796, 0.268,0.796l 51.96,0.00 c 0.36,0.00, 0.54-0.71, 0.54-2.131l0.00-0.529 
		L 119.37,128.188z M 144.151,219.067c-0.18-3.026-1.242-4.532-3.198-4.532L 79.922,214.54 c-1.42,0.00-2.221,1.419-2.398,4.261
		c0.00,0.35,0.00,0.794,0.00,1.335c0.00,0.529, 0.088,1.237, 0.266,2.132l 1.602,7.457c 0.71,2.849, 1.865,4.271, 3.465,4.271l 61.03,0.00 
		c 1.417,0.00, 2.131-1.242, 2.131-3.731l0.00-3.199 L 144.151,219.067z M 99.115,305.15l-9.327,0.00 c-0.892,0.00-1.562,0.40-2.00,1.192
		c-0.446,0.808-0.666,1.734-0.666,2.799c0.00,1.242, 0.088,2.043, 0.266,2.398l 1.594,8.263c 0.715,3.198, 1.87,4.80, 3.465,4.80l 42.64,0.00 
		c 9.419,0.00, 14.567-7.11, 15.459-21.326c-0.358-2.311-0.578-4.752-0.666-7.327s-0.398-5.285-0.936-8.123l-7.995-43.974l-0.53-0.794
		c0.00-0.182-17.235-0.268-51.702-0.268c-0.715,0.00-1.067,0.616-1.067,1.865c0.00,0.18, 0.038,0.36, 0.13,0.54
		c 0.088,0.168, 0.132,0.35, 0.132,0.538L 99.115,305.15zM 201.446,128.188c-0.529-3.198-1.693-4.798-3.463-4.798L 151.08,123.394 c-1.602,0.00-2.575,1.501-2.937,4.532
		c 0.18,0.538, 0.268,1.242, 0.268,2.131l 14.125,74.889c0.00,0.54, 0.088,0.796, 0.266,0.796l 51.961,0.00 c 0.36,0.00, 0.54-0.71, 0.54-2.131l0.00-0.529 
		L 201.446,128.188z M 226.23,219.067c-0.18-3.026-1.242-4.532-3.198-4.532L 162.002,214.54 c-1.422,0.00-2.221,1.419-2.398,4.261
		c0.00,0.35,0.00,0.794,0.00,1.335c0.00,0.529, 0.088,1.237, 0.268,2.132l 1.602,7.457c 0.709,2.849, 1.865,4.271, 3.463,4.271l 61.032,0.00 
		c 1.417,0.00, 2.131-1.242, 2.131-3.731l0.00-3.199 L 226.23,219.067z M 181.198,305.15l-9.327,0.00 c-0.894,0.00-1.564,0.40-2.00,1.192
		c-0.448,0.808-0.666,1.734-0.666,2.799c0.00,1.242, 0.088,2.043, 0.268,2.398l 1.594,8.263c 0.715,3.198, 1.87,4.80, 3.465,4.80l 42.64,0.00 
		c 9.417,0.00, 14.567-7.11, 15.459-21.326c-0.36-2.311-0.578-4.752-0.666-7.327c-0.088-2.577-0.398-5.285-0.935-8.123l-7.995-43.974
		l-0.529-0.794c0.00-0.182-17.235-0.268-51.702-0.268c-0.715,0.00-1.067,0.616-1.067,1.865c0.00,0.18, 0.04,0.36, 0.132,0.54
		c 0.088,0.168, 0.13,0.35, 0.13,0.538L 181.198,305.15zM 287.79,168.167c-0.709-3.376-1.067-6.841-1.067-10.395c0.00-4.801, 0.666-8.574, 1.998-11.332s 3.417-4.124, 6.263-4.124l 17.862,0.00 
		c 3.548,0.00, 7.10,2.349, 10.656,7.061c 3.553,4.704, 6.222,13.462, 7.995,26.254c 2.131,9.768, 3.201,17.671, 3.201,23.712
		c0.00,0.887-0.048,1.645-0.139,2.261c-0.088,0.626-0.134,1.372-0.134,2.271c0.00,1.242, 0.172,1.865, 0.53,1.865l 52.506,0.00 
		c 0.529,0.00, 0.794-0.618, 0.794-1.865l0.00-2.935 c0.00-11.898-1.293-22.652-3.861-32.241c-2.575-9.599-5.913-17.73-9.997-24.389
		c-4.089-6.664-8.623-11.769-13.591-15.327c-4.981-3.553-9.778-5.328-14.397-5.328l-87.678,0.00 c-6.40,0.00-11.56,3.105-15.459,9.327
		c-3.913,6.213-5.862,15.542-5.862,27.978c0.00,3.731, 0.218,7.594, 0.666,11.598c 0.439,3.995, 0.936,8.124, 1.467,12.389l 3.733,20.525
		c 0.18,0.17, 17.056,0.263, 50.638,0.263c 0.358,0.00, 0.54-0.71, 0.54-2.131l0.00-0.529 L 287.79,168.167z M 364.549,233.996
		c 9.769-0.54, 16.519-4.981, 20.249-13.332l 1.067-2.925c 0.35-0.715, 0.53-1.335, 0.53-1.87c0.00-0.889-0.264-1.326-0.796-1.326L 240.617,214.54 
		c-1.594,0.00-2.489,1.865-2.659,5.596l 0.796,5.059c 0.709,5.862, 2.311,8.80, 4.80,8.80L 364.549,233.994 z M 255.812,272.108
		c 1.242,7.457, 3.376,14.387, 6.40,20.777c 3.019,6.40, 6.483,11.963, 10.395,16.711c 3.904,4.742, 8.075,8.425, 12.524,11.059
		c 4.431,2.624, 8.881,3.947, 13.32,3.947l 105.005,0.00 c 1.235,0.00, 2.043-1.318, 2.398-3.947c0.00-0.348-0.048-0.747-0.139-1.178
		c-0.088-0.448-0.132-0.841-0.132-1.189l-1.604-8.42c-0.358-3.153-1.42-4.727-3.198-4.727L 326.169,305.15 c-8.712,0.00-14.397-7.016-17.058-21.055
		l-7.469-40.242c0.00-0.529-1.065-0.844-3.196-0.938s-6.134-0.13-11.997-0.13l-34.908,0.00 c-0.18,0.00-0.36,0.311-0.54,0.936
		c-0.18,0.616-0.263,1.287-0.263,1.998L 255.812,272.108zM 467.948,219.067c-0.18-3.026-1.242-4.532-3.198-4.532l-55.436,0.00 c-1.424,0.00-2.221,1.419-2.40,4.261
		c0.00,0.17, 0.05,0.578, 0.139,1.192c 0.088,0.626, 0.13,1.372, 0.13,2.273l 1.604,7.457c 0.53,2.849, 1.685,4.271, 3.463,4.271l 55.438,0.00 
		c 1.417,0.00, 2.131-1.602, 2.131-4.801c0.00-0.892-0.096-1.60-0.268-2.131L 467.948,219.067z M 492.468,159.371
		c 1.424,3.198, 2.925,7.726, 4.532,13.593c 1.60,5.862, 3.105,12.873, 4.532,21.055l 1.865,11.461c 0.18,0.17, 18.566,0.263, 55.167,0.263
		c 0.358,0.00, 0.538-0.529, 0.538-1.594l0.00-1.602 c-3.026-11.73-6.616-22.482-10.79-32.246c-4.18-9.771-8.749-18.121-13.73-25.05
		c-4.978-6.932-10.083-12.306-15.325-16.121c-5.236-3.828-10.433-5.734-15.593-5.734l-67.155,0.00 c-12.44,0.00-20.787,9.768-25.06,29.31l0.00-0.263 
		c-1.771,7.102-2.659,15.631-2.659,25.579c0.00,0.709,0.00,2.575,0.00,5.606c0.00,3.019, 0.088,6.164, 0.266,9.455
		c 0.172,3.285, 0.352,6.213, 0.53,8.795c 0.18,2.575, 0.439,3.861, 0.796,3.861l 53.572,0.00 c 0.352,0.00, 0.53-0.439, 0.53-1.335l-1.865-12.258
		c-1.242-7.995-2.36-14.747-3.335-20.249c-0.974-5.513-1.467-10.045-1.467-13.593l 0.268-1.60c0.00-9.599, 2.572-14.389, 7.725-14.389
		l 11.461,0.00 C 483.136,142.319, 488.207,147.996, 492.468,159.371z M 514.051,262.777c 1.242,6.93, 2.172,12.835, 2.799,17.72
		c 0.626,4.882, 0.935,9.191, 0.935,12.922l-0.266,1.602c-0.36,6.75-3.465,10.128-9.327,10.128l-11.188,0.00 c-3.026,0.00-5.559-0.892-7.594-2.667
		c-2.043-1.78-3.861-4.489-5.465-8.123c-1.594-3.645-3.055-8.265-4.39-13.859c-1.335-5.594-2.799-12.126-4.40-19.595l-2.925-17.056
		l-0.54-0.794c0.00-0.182-17.768-0.268-53.306-0.268c-0.707,0.00-1.067,0.709-1.067,2.131c0.00,0.182, 0.038,0.36, 0.139,0.54
		c 0.088,0.17, 0.134,0.35, 0.134,0.529c 3.198,12.263, 6.929,23.232, 11.186,32.917c 4.271,9.685, 8.80,17.90, 13.598,24.65
		c 4.788,6.75, 9.807,11.948, 15.051,15.591c 5.236,3.645, 10.433,5.465, 15.593,5.465l 67.153,0.00 c 8.894,0.00, 15.771-5.108, 20.658-15.327
		c 4.885-10.225, 7.325-24.482, 7.325-42.782c0.00-0.889-0.048-2.621-0.132-5.198c-0.096-2.573-0.228-5.236-0.396-7.995
		c-0.183-2.753-0.41-5.198-0.667-7.325c-0.266-2.131-0.494-3.198-0.666-3.198l-54.906,0.00 c-0.18,0.00-0.311,0.311-0.398,0.936
		c-0.088,0.616-0.132,1.287-0.132,1.998L 514.051,262.777z M 566.024,219.067l0.00,0.263 c-0.538-3.198-1.693-4.79-3.463-4.79l-55.438,0.00 
		c-1.594,0.00-2.489,1.419-2.657,4.261c0.00,0.17, 0.038,0.578, 0.132,1.192c 0.088,0.626, 0.216,1.372, 0.398,2.273l 1.602,7.457
		c 0.529,2.849, 1.594,4.271, 3.198,4.271l 55.694,0.00 c 1.42,0.00, 2.142-1.602, 2.142-4.801c0.00-0.892-0.097-1.60-0.269-2.131l 0.269,0.00 L 566.024,219.067
		z" horiz-adv-x="634.2193548387097" />
<glyph unicode="&#x74;" d="M 314.015,410.827c-1.271-7.194-3.805-10.787-7.609-10.787L 216.956,400.04 l-27.277-145.911c0.00-1.695-0.424-2.534-1.271-2.534L 65.342,251.595 
		c-0.424,0.00-0.856,0.733-1.271,2.225C 63.647,255.303, 63.435,256.874, 63.435,258.578l 26.642,141.471L 5.711,400.04 c-2.127,0.00-3.602,0.953-4.44,2.851
		C 0.415,404.798,0.00,407.022,0.00,409.556L0.00,415.267 l 4.44,19.668C 4.855,442.545, 7.609,446.349, 12.685,446.349l 300.058,0.00 c 1.686,0.00, 3.063-0.953, 4.122-2.851
		c 1.05-1.907, 1.589-4.122, 1.589-6.665l0.00-3.169 c0.00-1.271-0.212-2.322-0.636-3.169L 314.015,410.827z M 138.293-21.186
		c-0.856-7.609-3.593-11.423-8.245-11.423L 17.761-32.60 c-3.39,0.00-5.297,3.169-5.711,9.516c0.00,2.948, 0.212,5.076, 0.636,6.347l 33.624,178.264
		c0.00,1.271, 41.234,1.907, 123.701,1.907c 0.847,0.00, 1.271-1.695, 1.271-5.076l0.00-1.271 L 138.293-21.186z M 197.288,195.143
		c-0.424-7.194-3.169-10.787-8.245-10.787L 40.598,184.355 c-3.805,0.00-5.932,3.381-6.347,10.152c0.00,0.847, 0.097,1.907, 0.318,3.169
		c 0.203,1.271, 0.53,2.948, 0.953,5.076l 3.805,17.761c 1.271,6.762, 4.017,10.152, 8.245,10.152l 149.08,0.00 c 3.372,0.00, 5.076-3.805, 5.076-11.423
		c0.00-2.127-0.212-3.805-0.636-5.076l 0.636,0.00 L 197.288,195.143zM 248.673-32.60c-2.948,0.00-4.44,2.119-4.44,6.347c0.00,1.271, 0.115,2.534, 0.318,3.805c 0.221,1.271, 0.538,2.948, 0.953,5.076
		l 101.50,483.399C 349.122,475.745, 352.282,480.609, 356.52,480.609l 144.004,0.00 c 2.948,0.00, 4.44-2.534, 4.44-7.609c0.00-6.771-1.068-12.156-3.169-16.181
		c-2.127-4.025-4.025-6.453-5.711-7.292L 343.199,346.756c-3.39-2.127-5.614-5.182-6.665-9.198c-1.059-4.025-1.589-8.563-1.589-13.639
		c0.00-3.805, 0.839-5.711, 2.534-5.711c 1.686,0.00, 3.381,0.847, 5.076,2.534l 72.316,45.038c 3.805,0.00, 5.711-2.534, 5.711-7.609
		c0.00-2.957-0.636-6.568-1.907-10.787l-69.146-329.242c-0.424-2.127-0.636-4.652-0.636-7.609c0.00-4.661, 1.474-6.974, 4.44-6.974l 86.272,0.00 
		c 0.847,0.00, 1.271-1.068, 1.271-3.169l0.00-4.44 l-5.076-20.93c-0.856-5.076-2.127-7.609-3.805-7.609L 248.673-32.60 zM 440.249-32.60c-15.642,0.00-23.473,11.829-23.473,35.522c0.00,5.491, 0.424,11.423, 1.271,17.761c 0.856,6.347, 2.127,13.533, 3.805,21.566
		L 499.244,410.827c 1.686,9.728, 5.288,15.642, 10.787,17.761l 81.196,22.201c 5.914,0.00, 8.881-4.652, 8.881-13.956c0.00-4.228-0.636-9.516-1.907-15.863l-16.49-79.298
		l 38.70,0.00 c 2.534,0.00, 3.805-2.127, 3.805-6.347c0.00-1.271,0.00-2.639,0.00-4.122c0.00-1.492-0.212-3.072-0.636-4.758l-1.271-6.974
		c-2.127-10.152-5.508-15.228-10.152-15.228l-38.065,0.00 l-53.919-256.291c-0.856-4.661-1.589-8.881-2.225-12.685
		c-0.636-3.805-0.953-7.398-0.953-10.787c0.00-13.956, 4.652-20.93, 13.956-20.93l 76.129,0.00 c 0.847,0.00, 1.271-1.068, 1.271-3.169l-4.44-25.379
		c-1.271-5.076-2.754-7.609-4.44-7.609L 440.249-32.60 zM 610.26-32.60c-20.303,0.00-30.446,11.423-30.446,34.26c0.00,27.489, 6.771,56.673, 20.303,87.543l 47.581,109.745
		c 3.805,9.304, 7.503,16.181, 11.105,20.621c 3.584,4.44, 8.139,6.665, 13.639,6.665l 67.249,0.00 c 5.491,0.00, 8.245-2.957, 8.245-8.881
		c0.00-4.661-1.492-10.584-4.44-17.761L 674.339,39.715c-3.805-11.008-5.711-19.456-5.711-25.379c0.00-7.194, 2.534-10.787, 7.609-10.787l 41.869,0.00 
		c 4.652,0.00, 8.024,4.855, 10.152,14.592l 50.114,242.97c 2.11,10.567, 3.169,18.812, 3.169,24.744c0.00,13.10-4.44,19.668-13.321,19.668L 678.78,305.523 
		c-1.271,0.00-1.907,1.05-1.907,3.169c0.00,0.415, 0.097,1.059, 0.318,1.907c 0.212,0.847, 0.318,1.686, 0.318,2.534l 4.44,20.93
		c 0.415,5.076, 1.907,7.609, 4.44,7.609l 172.553,0.00 c 15.228,0.00, 22.837-11.635, 22.837-34.887c0.00-9.737-1.695-23.058-5.076-39.962l-52.021-248.673
		c-0.424-2.127-0.636-4.652-0.636-7.609c0.00-4.661, 1.483-6.974, 4.44-6.974l 72.316,0.00 c 1.271,0.00, 1.907-1.492, 1.907-4.44l-4.44-24.108
		c-1.271-5.076-2.957-7.609-5.076-7.609L 610.26-32.60 zM 1034.646-32.60c-2.957,0.00-4.44,2.119-4.44,6.347c0.00,1.271, 0.097,2.534, 0.318,3.805c 0.203,1.271, 0.53,2.948, 0.953,5.076
		l 48.216,230.276c 0.415,2.119, 0.733,3.805, 0.953,5.076c 0.203,1.271, 0.318,2.534, 0.318,3.805c0.00,3.381-0.856,5.076-2.534,5.076
		c-1.695,0.00-4.025-3.169-6.974-9.516l-104.669-230.276c-6.347-13.109-13.109-19.668-20.303-19.668l-63.435,0.00 c-2.948,0.00-4.44,2.119-4.44,6.347
		c0.00,1.271, 0.115,2.534, 0.318,3.805c 0.221,1.271, 0.538,2.948, 0.953,5.076l 72.316,343.834c 1.686,10.152, 4.855,15.228, 9.516,15.228l 76.756,0.00 
		c 5.923,0.00, 8.881-4.661, 8.881-13.956c0.00-4.228-0.636-9.516-1.907-15.863l-40.598-193.483l 85.01,183.331c 13.10,26.642, 26.218,39.962, 39.336,39.962
		l 53.919,0.00 c 9.295,0.00, 13.956-7.194, 13.956-21.566c0.00-3.39-0.318-6.974-0.953-10.787c-0.636-3.805-1.377-8.042-2.225-12.685l-58.359-278.493
		c-0.424-2.127-0.636-4.652-0.636-7.609c0.00-4.661, 1.474-6.974, 4.44-6.974l 75.494,0.00 c 1.271,0.00, 1.907-1.492, 1.907-4.44l-4.44-24.108
		c-1.271-5.076-2.957-7.609-5.076-7.609L 1034.646-32.60 zM 1192.607-32.60c-2.948,0.00-4.44,2.119-4.44,6.347c0.00,1.271, 0.115,2.534, 0.318,3.805c 0.221,1.271, 0.538,2.948, 0.953,5.076
		l 101.50,483.399c 2.119,9.728, 5.288,14.592, 9.516,14.592l 144.004,0.00 c 2.948,0.00, 4.44-2.534, 4.44-7.609c0.00-6.771-1.068-12.156-3.169-16.181
		c-2.127-4.025-4.025-6.453-5.711-7.292l-152.885-102.771c-3.39-2.127-5.614-5.182-6.665-9.198c-1.059-4.025-1.589-8.563-1.589-13.639
		c0.00-3.805, 0.839-5.711, 2.534-5.711c 1.686,0.00, 3.381,0.847, 5.076,2.534l 72.316,45.038c 3.805,0.00, 5.711-2.534, 5.711-7.609
		c0.00-2.957-0.636-6.568-1.907-10.787l-69.146-329.242c-0.424-2.127-0.636-4.652-0.636-7.609c0.00-4.661, 1.474-6.974, 4.44-6.974l 86.272,0.00 
		c 0.847,0.00, 1.271-1.068, 1.271-3.169l0.00-4.44 l-5.076-20.93c-0.856-5.076-2.127-7.609-3.805-7.609L 1192.607-32.60 zM 1519.307,341.681c 2.534,0.00, 3.805-2.127, 3.805-6.347c0.00-1.271,0.00-2.639,0.00-4.122c0.00-1.492-0.221-3.072-0.636-4.758l-48.216-230.276
		c-0.424-2.127-0.742-3.919-0.953-5.394c-0.221-1.483-0.318-2.639-0.318-3.487c0.00-3.805, 0.636-5.711, 1.907-5.711
		c 2.119,0.00, 4.44,3.381, 6.974,10.152l 90.712,199.194c 15.228,33.827, 31.497,50.75, 48.843,50.75l 48.843,0.00 c 2.948,0.00, 4.44-2.534, 4.44-7.609
		c0.00-2.957-0.221-5.508-0.636-7.609l-62.799-298.161c-0.856-2.534-1.271-4.864-1.271-6.974c0.00-2.127,0.00-4.025,0.00-5.711
		c0.00-8.042, 2.534-12.05, 7.609-12.05l 71.053,0.00 c 3.381,0.00, 5.076-2.322, 5.076-6.974c0.00-1.271-0.424-4.025-1.271-8.245l-1.271-5.711
		c-2.534-10.152-5.932-15.228-10.152-15.228l-165.57,0.00 c-6.347,0.00-9.516,4.855-9.516,14.592c0.00,4.22, 0.636,9.304, 1.907,15.228l 41.234,193.483
		l-72.951-160.494c-21.566-41.869-42.505-62.799-62.799-62.799l-42.505,0.00 c-9.728,0.00-14.592,7.177-14.592,21.566c0.00,3.372, 0.318,6.974, 0.953,10.787
		c 0.636,3.805, 1.377,8.024, 2.225,12.685l 66.613,314.015c 1.686,10.152, 4.855,15.228, 9.516,15.228L 1519.307,341.681 zM 1972.877-32.60c-2.957,0.00-4.44,2.534-4.44,7.609c0.00,2.948, 0.212,5.50, 0.636,7.609l 48.843,230.276
		c 0.415,2.119, 0.733,3.902, 0.953,5.394c 0.203,1.474, 0.318,2.631, 0.318,3.487c0.00,3.381-0.636,5.076-1.907,5.076
		c-2.127,0.00-4.652-3.169-7.609-9.516l-104.669-230.276c-6.347-13.109-13.118-19.668-20.303-19.668l-63.435,0.00 c-2.957,0.00-4.44,2.119-4.44,6.347
		c0.00,1.271, 0.097,2.534, 0.318,3.805c 0.203,1.271, 0.53,2.948, 0.953,5.076l 48.216,230.276c 0.415,2.119, 0.733,3.805, 0.953,5.076
		c 0.203,1.271, 0.318,2.534, 0.318,3.805c0.00,3.381-0.856,5.076-2.534,5.076c-1.695,0.00-4.025-3.169-6.974-9.516l-104.669-230.276
		c-6.347-13.109-13.109-19.668-20.303-19.668l-63.435,0.00 c-2.948,0.00-4.44,2.119-4.44,6.347c0.00,1.271, 0.115,2.534, 0.318,3.805
		c 0.221,1.271, 0.538,2.948, 0.953,5.076l 72.316,343.834c 1.686,10.152, 4.855,15.228, 9.516,15.228l 76.756,0.00 c 5.923,0.00, 8.881-4.661, 8.881-13.956
		c0.00-4.228-0.636-9.516-1.907-15.863l-40.598-193.483l 85.01,183.331c 13.10,26.642, 26.218,39.962, 39.336,39.962l 53.919,0.00 
		c 9.295,0.00, 13.956-7.194, 13.956-21.566c0.00-3.39-0.318-6.974-0.953-10.787c-0.636-3.805-1.377-8.042-2.225-12.685l-37.429-178.264
		l 85.01,183.331c 13.10,26.642, 26.006,39.962, 38.70,39.962l 54.554,0.00 c 9.295,0.00, 13.956-7.194, 13.956-21.566c0.00-3.39-0.318-6.974-0.953-10.787
		s-1.377-8.042-2.225-12.685l-58.359-278.493c-0.424-2.127-0.636-4.652-0.636-7.609c0.00-4.661, 1.474-6.974, 4.44-6.974l 76.129,0.00 
		c 0.847,0.00, 1.271-1.068, 1.271-3.169l0.00-4.44 l-5.076-20.93c-0.856-5.076-2.33-7.609-4.44-7.609L 1972.877-32.60 zM 2411.864-21.186c-0.865-7.609-3.593-11.423-8.245-11.423L 2291.959-32.60 c-4.22,0.00-6.347,3.169-6.347,9.516
		c0.00,2.948, 0.212,5.076, 0.636,6.347l 32.989,179.527c 0.415,0.415, 41.869,0.636, 124.337,0.636c 0.847,0.00, 1.28-1.068, 1.28-3.169l0.00-3.169 
		L 2411.864-21.186z M 2645.319,195.143c-0.433-7.194-2.966-10.787-7.609-10.787l-315.286,0.00 c-3.39,0.00-5.297,3.381-5.711,10.152
		c0.00,0.415, 0.097,1.368, 0.318,2.851c 0.203,1.474, 0.318,3.266, 0.318,5.394l 3.805,17.761c 1.271,6.762, 4.017,10.152, 8.245,10.152l 315.286,0.00 
		c 3.805,0.00, 5.711-4.228, 5.711-12.685c0.00-0.856-0.115-1.483-0.318-1.907c-0.221-0.424-0.318-1.068-0.318-1.907L 2645.319,195.143z
		 M 2551.428,251.595c-0.856,0.00-1.28,1.686-1.28,5.076c0.00,4.22, 1.916,10.787, 5.711,19.668s 6.559,18.176, 8.245,27.913l 6.356,36.793l0.00-0.636 
		c 1.271,5.50, 2.11,10.681, 2.534,15.545c 0.415,4.855, 0.627,8.978, 0.627,12.367c-0.424,11.423-2.428,19.562-6.029,24.426
		c-3.593,4.855-8.148,7.292-13.639,7.292l-63.435,0.00 l-27.277-145.911c0.00-0.856-0.953-1.377-2.851-1.589c-1.907-0.212-5.50-0.538-10.787-0.953
		c-5.305-0.424-12.588-0.636-21.884-0.636c-9.313,0.00-21.566,0.00-36.793,0.00c-6.347,0.00-12.685,0.097-19.032,0.318
		c-6.347,0.203-12.05,0.53-17.126,0.953c-5.076,0.415-9.313,0.953-12.685,1.589c-3.39,0.636-5.076,1.589-5.076,2.851
		c0.00,0.415, 0.097,0.733, 0.318,0.953c 0.212,0.212, 0.318,0.53, 0.318,0.953l 32.989,176.358c 0.415,7.609, 3.169,11.423, 8.245,11.423l 267.07,0.00 
		c 31.294,0.00, 48.225-24.964, 50.759-74.858c 0.415-2.127, 0.627-4.025, 0.627-5.711c0.00-1.695, 0.212-2.957, 0.636-3.805
		c-0.424-8.466-0.945-16.49-1.589-24.108c-0.636-7.609-1.598-15.016-2.851-22.201l0.00,0.636 c-4.652-24.108-11.626-45.674-20.93-64.706L 2551.428,251.595 z
		 M 2673.231-23.084c-1.28-6.347-4.025-9.516-8.254-9.516l-118.625,0.00 c-2.534,0.00-4.025,1.907-4.44,5.711l-56.461,182.705
		c-0.856,0.847-1.271,2.322-1.271,4.44c0.00,2.11, 0.627,3.169, 1.907,3.169l 128.777,0.00 l 58.359-174.451L 2673.223-23.084 zM 2970.112,75.873c-7.609-36.378-17.443-63.541-29.511-81.514c-12.05-17.982-26.959-26.959-44.721-26.959L 2739.20-32.60 
		c-24.108,0.00-36.158,17.126-36.158,51.385c0.00,15.228, 2.534,34.26, 7.609,57.097l 32.989,157.325c 7.609,36.361, 17.434,63.532, 29.502,81.514
		c 12.05,17.973, 26.968,26.959, 44.721,26.959l 156.054,0.00 c 24.108,0.00, 36.158-17.346, 36.158-52.021c0.00-8.042-0.636-16.711-1.916-26.006
		c-1.271-9.313-2.957-19.456-5.067-30.446L 2970.112,75.873z M 2798.186,32.742c-1.271-6.347-1.907-11.423-1.907-15.228
		c0.00-8.466, 2.745-12.685, 8.254-12.685l 41.234,0.00 c 8.457,0.00, 14.592,9.295, 18.397,27.913l 51.385,243.597c 0.415,2.948, 0.733,5.491, 0.953,7.609
		c 0.203,2.11, 0.318,4.22, 0.318,6.347c0.00,9.295-2.754,13.956-8.254,13.956l-41.234,0.00 c-8.042,0.00-13.956-9.304-17.77-27.913L 2798.186,32.742zM 3168.883-32.60l-193.059,0.00 c-2.957,0.00-4.44,2.534-4.44,7.609c0.00,2.948, 0.212,5.50, 0.627,7.609l 90.094,428.209
		c 2.11,9.728, 5.703,15.642, 10.787,17.761l 81.196,22.201c 5.923,0.00, 8.881-4.652, 8.881-13.956c0.00-4.228-0.627-9.516-1.907-15.863l-16.49-79.298l 150.351,0.00 
		c 11.829,0.00, 17.761-7.398, 17.761-22.201L 3168.883-32.60z M 3076.679,18.15c-0.424-2.127-0.627-4.652-0.627-7.609
		c0.00-4.661, 1.474-6.974, 4.44-6.974l 9.516,0.00 l 118.625,272.781c 2.11,8.448, 3.16,14.371, 3.16,17.761c0.00,6.762-2.525,10.152-7.601,10.152l-60.902,0.00 
		c-4.661,0.00-7.83-5.076-9.516-15.228L 3076.679,18.15zM 3533.709,75.873c-7.609-36.378-17.443-63.541-29.511-81.514c-12.05-17.982-26.959-26.959-44.721-26.959l-156.681,0.00 
		c-24.108,0.00-36.158,17.126-36.158,51.385c0.00,15.228, 2.534,34.26, 7.609,57.097l 32.989,157.325c 7.609,36.361, 17.434,63.532, 29.502,81.514
		c 12.05,17.973, 26.968,26.959, 44.721,26.959l 156.054,0.00 c 24.108,0.00, 36.158-17.346, 36.158-52.021c0.00-8.042-0.636-16.711-1.916-26.006
		c-1.271-9.313-2.957-19.456-5.067-30.446L 3533.709,75.873z M 3361.783,32.742c-1.271-6.347-1.907-11.423-1.907-15.228
		c0.00-8.466, 2.745-12.685, 8.254-12.685l 41.234,0.00 c 8.457,0.00, 14.592,9.295, 18.397,27.913l 51.385,243.597c 0.415,2.948, 0.733,5.491, 0.953,7.609
		c 0.203,2.11, 0.318,4.22, 0.318,6.347c0.00,9.295-2.754,13.956-8.254,13.956l-41.234,0.00 c-8.042,0.00-13.956-9.304-17.77-27.913L 3361.783,32.742zM 3569.867-32.60c-15.642,0.00-23.473,11.829-23.473,35.522c0.00,5.491, 0.424,11.423, 1.271,17.761c 0.856,6.347, 2.127,13.533, 3.805,21.566
		l 77.391,368.578c 1.686,9.728, 5.288,15.642, 10.796,17.761l 81.196,22.201c 5.923,0.00, 8.881-4.652, 8.881-13.956c0.00-4.228-0.636-9.516-1.907-15.863
		l-16.49-79.298l 38.70,0.00 c 2.534,0.00, 3.814-2.127, 3.814-6.347c0.00-1.271,0.00-2.639,0.00-4.122c0.00-1.492-0.221-3.072-0.636-4.758l-1.28-6.974
		c-2.119-10.152-5.50-15.228-10.143-15.228l-38.065,0.00 l-53.919-256.291c-0.856-4.661-1.589-8.881-2.225-12.685c-0.627-3.805-0.945-7.398-0.945-10.787
		c0.00-13.956, 4.643-20.93, 13.956-20.93l 76.129,0.00 c 0.847,0.00, 1.271-1.068, 1.271-3.169l-4.44-25.379c-1.271-5.076-2.745-7.609-4.44-7.609L 3569.867-32.60 z
		M 3713.236-32.60c-2.948,0.00-4.44,2.119-4.44,6.347c0.00,1.271, 0.115,2.534, 0.318,3.805c 0.212,1.271, 0.538,2.948, 0.953,5.076
		L 3811.558,466.017C 3813.667,475.745, 3816.845,480.609, 3821.074,480.609l 144.004,0.00 c 2.957,0.00, 4.44-2.534, 4.44-7.609c0.00-6.771-1.059-12.156-3.16-16.181
		c-2.127-4.025-4.025-6.453-5.711-7.292l-152.885-102.771c-3.39-2.127-5.614-5.182-6.665-9.198c-1.068-4.025-1.598-8.563-1.598-13.639
		c0.00-3.805, 0.847-5.711, 2.534-5.711c 1.686,0.00, 3.381,0.847, 5.076,2.534l 72.316,45.038c 3.805,0.00, 5.711-2.534, 5.711-7.609
		c0.00-2.957-0.636-6.568-1.916-10.787l-69.146-329.242c-0.433-2.127-0.636-4.652-0.636-7.609c0.00-4.661, 1.483-6.974, 4.44-6.974l 86.272,0.00 
		c 0.847,0.00, 1.28-1.068, 1.28-3.169l0.00-4.44 l-5.076-20.93c-0.856-5.076-2.127-7.609-3.805-7.609L 3713.236-32.60 zM 3982.204,32.742c-1.271-6.347-1.907-11.423-1.907-15.228c0.00-8.466, 2.745-12.685, 8.254-12.685l 41.234,0.00 c 8.457,0.00, 14.592,9.295, 18.397,27.913
		l 5.076,25.379c 2.11,9.728, 5.491,14.592, 10.152,14.592l 83.738,0.00 c 2.534,0.00, 3.805-1.907, 3.805-5.711c0.00-2.534-0.212-4.661-0.636-6.347
		c-14.813-62.173-38.285-93.255-70.418-93.255l-156.681,0.00 c-24.108,0.00-36.158,17.126-36.158,51.385c0.00,15.228, 2.534,34.26, 7.609,57.097l 32.989,157.325
		c 7.609,36.361, 17.434,63.532, 29.502,81.514c 12.05,17.973, 26.968,26.959, 44.721,26.959l 156.054,0.00 c 24.108,0.00, 36.158-17.346, 36.158-52.021
		c0.00-7.609-0.547-16.181-1.598-25.688c-1.059-9.516-2.851-19.783-5.385-30.764l-7.609-33.624c-2.534-10.152-5.711-15.228-9.516-15.228l-83.112,0.00 
		c-2.957,0.00-4.44,2.534-4.44,7.609c0.00,2.948, 0.212,5.50, 0.636,7.609l 16.49,76.756c 0.415,2.948, 0.733,5.491, 0.953,7.609
		c 0.203,2.11, 0.318,4.22, 0.318,6.347c0.00,9.295-2.754,13.956-8.254,13.956l-41.234,0.00 c-8.042,0.00-13.956-9.304-17.77-27.913L 3982.204,32.742zM 4195.99,137.41c-5.076,0.00-7.609,4.017-7.609,12.05c0.00,1.686,0.00,3.584,0.00,5.711c0.00,2.119, 0.424,4.44, 1.28,6.974l 15.228,71.053
		c 7.609,36.361, 17.443,63.532, 29.511,81.514c 12.041,17.973, 26.959,26.959, 44.712,26.959l 166.206,0.00 c 2.534,0.00, 3.814-2.127, 3.814-6.347
		c0.00-1.271,0.00-2.639,0.00-4.122c0.00-1.492-0.221-3.072-0.636-4.758l-1.907-8.881c-2.127-8.881-5.297-13.321-9.516-13.321l-107.847,0.00 
		c-8.466,0.00-14.592-9.304-18.397-27.913l-18.397-86.908c-0.433-2.127-0.636-4.661-0.636-7.609c0.00-4.661, 1.483-6.974, 4.44-6.974l 119.261,0.00 
		c 5.076,0.00, 7.609-4.228, 7.609-12.685c0.00-1.695-0.115-3.593-0.318-5.711c-0.212-2.127-0.538-4.228-0.953-6.347l-15.863-74.222
		c-7.609-36.378-17.434-63.541-29.502-81.514c-12.05-17.982-26.968-26.959-44.721-26.959l-206.804,0.00 c-2.957,0.00-4.449,2.074-4.449,6.241
		c0.00,1.254, 0.115,2.489, 0.318,3.734c 0.221,1.254, 0.547,2.913, 0.953,4.996l 1.271,8.722c 0.856,4.149, 2.127,7.256, 3.814,9.348
		c 1.695,2.083, 3.593,3.116, 5.703,3.116l 149.08,0.00 c 8.457,0.00, 14.592,9.128, 18.406,27.41l 16.481,80.958c 1.686,6.806, 2.534,12.747, 2.534,17.841
		c0.00,5.094-1.271,7.645-3.805,7.645L 4195.99,137.41 z" horiz-adv-x="4449.103448275862"  />
<glyph unicode="&#x20;" horiz-adv-x="256" />
<glyph class="hidden" unicode="&#xf000;" d="M0,480L 512 -32L0 -32 z" horiz-adv-x="0" />
</font>
</defs>
</svg>
