<?xml version="1.0" encoding="utf-8"?>
<!-- Generator: Adobe Illustrator 15.0.2, SVG Export Plug-In . SVG Version: 6.00 Build 0)  -->
<!DOCTYPE svg PUBLIC "-//W3C//DTD SVG 1.1//EN" "http://www.w3.org/Graphics/SVG/1.1/DTD/svg11.dtd">
<svg version="1.1" id="Layer_1" xmlns="http://www.w3.org/2000/svg" xmlns:xlink="http://www.w3.org/1999/xlink" x="0px" y="0px"
	 width="612px" height="792px" viewBox="0 0 612 792" enable-background="new 0 0 612 792" xml:space="preserve">
<g>
	<path fill="#0054A6" d="M86.91,88c-0.076,0.435-0.229,0.651-0.459,0.651h-5.394l-1.644,8.798c0,0.103-0.026,0.153-0.077,0.153
		h-7.421c-0.025,0-0.052-0.045-0.076-0.134c-0.025-0.089-0.039-0.186-0.039-0.287l1.607-8.53H68.32
		c-0.128,0-0.217-0.058-0.268-0.172c-0.052-0.114-0.076-0.249-0.076-0.401v-0.344l0.268-1.187c0.024-0.459,0.191-0.688,0.498-0.688
		h18.092c0.102,0,0.185,0.058,0.248,0.172c0.064,0.115,0.096,0.248,0.096,0.402v0.191c0,0.076-0.012,0.14-0.037,0.191L86.91,88z
		 M76.314,114.051c-0.051,0.46-0.216,0.688-0.496,0.688h-6.771c-0.204,0-0.318-0.191-0.344-0.573c0-0.179,0.012-0.307,0.039-0.383
		l2.026-10.749c0-0.075,2.485-0.114,7.459-0.114c0.051,0,0.077,0.102,0.077,0.306v0.077L76.314,114.051z M79.873,101.008
		c-0.026,0.433-0.191,0.649-0.498,0.649h-8.951c-0.229,0-0.357-0.204-0.382-0.612c0-0.05,0.006-0.115,0.019-0.191
		c0.014-0.076,0.031-0.178,0.058-0.306l0.229-1.071c0.076-0.407,0.242-0.611,0.498-0.611h8.988c0.204,0,0.307,0.229,0.307,0.688
		c0,0.128-0.014,0.229-0.039,0.307h0.039L79.873,101.008z M82.97,114.739c-0.178,0-0.268-0.128-0.268-0.382
		c0-0.077,0.006-0.153,0.02-0.23c0.012-0.076,0.031-0.178,0.057-0.306l6.12-29.147c0.127-0.587,0.318-0.88,0.574-0.88h8.683
		c0.178,0,0.268,0.152,0.268,0.46c0,0.406-0.063,0.732-0.191,0.975c-0.127,0.242-0.242,0.39-0.344,0.438l-9.219,6.198
		c-0.205,0.127-0.338,0.312-0.402,0.555c-0.062,0.242-0.095,0.517-0.095,0.821c0,0.23,0.051,0.345,0.153,0.345
		c0.102,0,0.203-0.051,0.306-0.154l4.36-2.714c0.229,0,0.344,0.152,0.344,0.459c0,0.179-0.037,0.396-0.114,0.649l-4.169,19.854
		c-0.026,0.126-0.039,0.28-0.039,0.458c0,0.281,0.09,0.422,0.269,0.422h5.202c0.051,0,0.076,0.063,0.076,0.19v0.268l-0.306,1.263
		c-0.052,0.307-0.128,0.459-0.229,0.459H82.97z M94.521,114.739c-0.942,0-1.414-0.713-1.414-2.142c0-0.331,0.025-0.689,0.076-1.071
		c0.051-0.384,0.127-0.815,0.229-1.302L98.079,88c0.103-0.585,0.319-0.941,0.651-1.069l4.896-1.339c0.356,0,0.536,0.28,0.536,0.842
		c0,0.254-0.039,0.573-0.115,0.956l-0.994,4.781h2.333c0.152,0,0.229,0.127,0.229,0.382c0,0.077,0,0.159,0,0.249
		c0,0.089-0.014,0.186-0.038,0.286L105.5,93.51c-0.127,0.612-0.332,0.917-0.611,0.917h-2.295l-3.252,15.454
		c-0.052,0.282-0.096,0.535-0.134,0.766c-0.038,0.229-0.058,0.446-0.058,0.649c0,0.842,0.281,1.264,0.842,1.264h4.59
		c0.051,0,0.076,0.063,0.076,0.19l-0.268,1.53c-0.076,0.307-0.166,0.459-0.268,0.459H94.521z M104.773,114.739
		c-1.225,0-1.836-0.688-1.836-2.066c0-1.657,0.407-3.417,1.224-5.277l2.869-6.618c0.229-0.561,0.452-0.976,0.669-1.243
		c0.217-0.267,0.491-0.401,0.822-0.401h4.055c0.332,0,0.498,0.179,0.498,0.535c0,0.281-0.09,0.639-0.269,1.07l-4.169,9.641
		c-0.229,0.664-0.344,1.173-0.344,1.529c0,0.434,0.152,0.651,0.459,0.651h2.524c0.28,0,0.483-0.293,0.612-0.88l3.021-14.65
		c0.127-0.639,0.191-1.134,0.191-1.493c0-0.789-0.268-1.185-0.805-1.185h-5.393c-0.076,0-0.114-0.064-0.114-0.191
		c0-0.025,0.006-0.064,0.019-0.115s0.02-0.102,0.02-0.152l0.268-1.263c0.025-0.307,0.115-0.459,0.268-0.459h10.404
		c0.918,0,1.377,0.701,1.377,2.104c0,0.587-0.102,1.391-0.305,2.41l-3.138,14.995c-0.025,0.126-0.038,0.28-0.038,0.458
		c0,0.281,0.09,0.422,0.268,0.422h4.361c0.076,0,0.114,0.089,0.114,0.268l-0.268,1.453c-0.077,0.307-0.179,0.459-0.307,0.459
		H104.773z M130.363,114.739c-0.179,0-0.268-0.128-0.268-0.382c0-0.077,0.006-0.153,0.019-0.23c0.013-0.076,0.032-0.178,0.058-0.306
		l2.907-13.885c0.024-0.128,0.044-0.23,0.058-0.307c0.012-0.076,0.02-0.153,0.02-0.229c0-0.205-0.053-0.306-0.154-0.306
		s-0.242,0.19-0.42,0.573l-6.312,13.885c-0.383,0.791-0.791,1.187-1.225,1.187h-3.825c-0.178,0-0.268-0.128-0.268-0.382
		c0-0.077,0.007-0.153,0.02-0.23c0.013-0.076,0.031-0.178,0.057-0.306l4.361-20.733c0.102-0.611,0.293-0.917,0.574-0.917h4.627
		c0.357,0,0.536,0.281,0.536,0.842c0,0.255-0.038,0.573-0.114,0.956l-2.449,11.667l5.127-11.055c0.789-1.606,1.58-2.41,2.371-2.41
		h3.251c0.561,0,0.842,0.435,0.842,1.301c0,0.204-0.019,0.421-0.058,0.65c-0.038,0.229-0.082,0.484-0.134,0.766l-3.519,16.792
		c-0.025,0.126-0.038,0.28-0.038,0.458c0,0.281,0.089,0.422,0.268,0.422h4.552c0.076,0,0.115,0.089,0.115,0.268l-0.269,1.453
		c-0.076,0.307-0.179,0.459-0.306,0.459H130.363z M139.886,114.739c-0.178,0-0.268-0.128-0.268-0.382c0-0.077,0.007-0.153,0.02-0.23
		c0.014-0.076,0.032-0.178,0.057-0.306l6.121-29.147c0.127-0.587,0.318-0.88,0.574-0.88h8.683c0.178,0,0.268,0.152,0.268,0.46
		c0,0.406-0.063,0.732-0.191,0.975s-0.242,0.39-0.345,0.438l-9.219,6.198c-0.203,0.127-0.337,0.312-0.4,0.555
		c-0.064,0.242-0.096,0.517-0.096,0.821c0,0.23,0.051,0.345,0.152,0.345s0.204-0.051,0.307-0.154l4.36-2.714
		c0.229,0,0.345,0.152,0.345,0.459c0,0.179-0.039,0.396-0.115,0.649l-4.169,19.854c-0.026,0.126-0.038,0.28-0.038,0.458
		c0,0.281,0.088,0.422,0.268,0.422h5.202c0.05,0,0.076,0.063,0.076,0.19v0.268l-0.306,1.263c-0.051,0.307-0.129,0.459-0.23,0.459
		H139.886z M159.585,92.171c0.154,0,0.23,0.127,0.23,0.382c0,0.077,0,0.159,0,0.249c0,0.089-0.014,0.186-0.039,0.286l-2.906,13.887
		c-0.026,0.127-0.045,0.235-0.058,0.325c-0.015,0.089-0.021,0.159-0.021,0.211c0,0.229,0.039,0.344,0.115,0.344
		c0.128,0,0.269-0.204,0.421-0.612l5.471-12.011c0.917-2.04,1.899-3.061,2.945-3.061h2.944c0.179,0,0.268,0.152,0.268,0.459
		c0,0.179-0.012,0.332-0.037,0.458l-3.787,17.979c-0.051,0.152-0.077,0.293-0.077,0.42c0,0.129,0,0.243,0,0.345
		c0,0.484,0.153,0.728,0.46,0.728h4.284c0.204,0,0.306,0.14,0.306,0.42c0,0.076-0.026,0.242-0.076,0.498l-0.077,0.344
		c-0.152,0.611-0.356,0.918-0.612,0.918h-9.982c-0.383,0-0.574-0.293-0.574-0.88c0-0.254,0.038-0.561,0.114-0.917l2.486-11.668
		l-4.399,9.678c-1.3,2.525-2.562,3.787-3.787,3.787h-2.562c-0.587,0-0.88-0.433-0.88-1.301c0-0.204,0.019-0.421,0.057-0.65
		c0.039-0.229,0.084-0.483,0.134-0.765l4.017-18.936c0.102-0.611,0.293-0.917,0.574-0.917H159.585z M186.936,114.739
		c-0.18,0-0.268-0.152-0.268-0.459c0-0.179,0.014-0.331,0.037-0.459l2.947-13.885c0.023-0.128,0.043-0.236,0.057-0.325
		c0.012-0.09,0.02-0.159,0.02-0.211c0-0.205-0.039-0.306-0.115-0.306c-0.129,0-0.281,0.19-0.459,0.573l-6.312,13.885
		c-0.381,0.791-0.789,1.187-1.223,1.187h-3.827c-0.178,0-0.267-0.128-0.267-0.382c0-0.077,0.005-0.153,0.02-0.23
		c0.012-0.076,0.03-0.178,0.057-0.306l2.908-13.885c0.023-0.128,0.043-0.23,0.057-0.307c0.012-0.076,0.02-0.153,0.02-0.229
		c0-0.205-0.053-0.306-0.154-0.306s-0.242,0.19-0.42,0.573l-6.311,13.885c-0.383,0.791-0.79,1.187-1.225,1.187h-3.824
		c-0.179,0-0.269-0.128-0.269-0.382c0-0.077,0.007-0.153,0.02-0.23c0.013-0.076,0.032-0.178,0.057-0.306l4.36-20.733
		c0.103-0.611,0.293-0.917,0.574-0.917h4.628c0.358,0,0.536,0.281,0.536,0.842c0,0.255-0.037,0.573-0.115,0.956l-2.447,11.667
		l5.124-11.055c0.793-1.606,1.582-2.41,2.373-2.41h3.25c0.562,0,0.844,0.435,0.844,1.301c0,0.204-0.02,0.421-0.059,0.65
		c-0.037,0.229-0.08,0.484-0.133,0.766l-2.256,10.748l5.125-11.055c0.789-1.606,1.568-2.41,2.332-2.41h3.291
		c0.561,0,0.842,0.435,0.842,1.301c0,0.204-0.02,0.421-0.059,0.65c-0.037,0.229-0.082,0.484-0.133,0.766l-3.52,16.792
		c-0.025,0.126-0.039,0.28-0.039,0.458c0,0.281,0.092,0.422,0.27,0.422h4.59c0.051,0,0.076,0.063,0.076,0.19v0.268l-0.307,1.263
		c-0.051,0.307-0.141,0.459-0.268,0.459H186.936z M213.406,114.051c-0.053,0.46-0.219,0.688-0.498,0.688h-6.732
		c-0.254,0-0.383-0.191-0.383-0.573c0-0.179,0.014-0.307,0.039-0.383l1.99-10.824c0.023-0.026,2.523-0.039,7.496-0.039
		c0.051,0,0.076,0.063,0.076,0.191v0.191L213.406,114.051z M227.48,101.008c-0.025,0.433-0.178,0.649-0.459,0.649h-19.01
		c-0.203,0-0.318-0.204-0.346-0.612c0-0.024,0.008-0.083,0.02-0.172c0.014-0.09,0.02-0.197,0.02-0.325l0.23-1.071
		c0.076-0.407,0.242-0.611,0.496-0.611h19.012c0.229,0,0.346,0.255,0.346,0.765c0,0.052-0.008,0.089-0.02,0.113
		c-0.016,0.027-0.02,0.065-0.02,0.117L227.48,101.008z M221.82,97.603c-0.051,0-0.076-0.102-0.076-0.306
		c0-0.255,0.115-0.649,0.344-1.186c0.23-0.536,0.395-1.098,0.496-1.685l0.385-2.218v0.039c0.076-0.332,0.127-0.645,0.152-0.938
		c0.023-0.292,0.037-0.542,0.037-0.746c-0.025-0.688-0.146-1.18-0.363-1.471c-0.215-0.294-0.49-0.441-0.822-0.441h-3.824
		l-1.645,8.798c0,0.052-0.059,0.083-0.172,0.096c-0.115,0.013-0.332,0.032-0.65,0.058c-0.32,0.025-0.76,0.037-1.32,0.037
		s-1.301,0-2.219,0c-0.383,0-0.766-0.005-1.148-0.018c-0.381-0.013-0.725-0.032-1.031-0.058s-0.562-0.058-0.766-0.096
		c-0.205-0.038-0.307-0.096-0.307-0.172c0-0.025,0.008-0.045,0.02-0.058c0.014-0.013,0.02-0.031,0.02-0.058l1.99-10.634
		c0.023-0.459,0.189-0.688,0.496-0.688h16.104c1.887,0,2.908,1.506,3.061,4.514c0.025,0.129,0.039,0.242,0.039,0.345
		s0.012,0.179,0.037,0.229c-0.025,0.512-0.057,0.995-0.096,1.455c-0.039,0.457-0.096,0.904-0.172,1.338v-0.038
		c-0.281,1.453-0.701,2.755-1.262,3.901H221.82z M229.164,114.166c-0.076,0.382-0.242,0.573-0.496,0.573h-7.152
		c-0.154,0-0.244-0.115-0.27-0.345l-3.404-11.017c-0.051-0.05-0.076-0.14-0.076-0.267c0-0.128,0.039-0.191,0.115-0.191h7.766
		l3.518,10.519V114.166z M247.066,108.198c-0.459,2.193-1.053,3.832-1.779,4.915c-0.727,1.085-1.625,1.626-2.697,1.626h-9.447
		c-1.455,0-2.18-1.032-2.18-3.099c0-0.918,0.152-2.065,0.459-3.442l1.988-9.486c0.459-2.193,1.053-3.831,1.779-4.915
		c0.727-1.085,1.625-1.626,2.697-1.626h9.41c1.453,0,2.18,1.045,2.18,3.136c0,0.485-0.039,1.01-0.115,1.568
		c-0.076,0.562-0.178,1.174-0.307,1.837L247.066,108.198z M236.699,110.8c-0.076,0.383-0.113,0.688-0.113,0.918
		c0,0.511,0.164,0.765,0.496,0.765h2.488c0.508,0,0.879-0.56,1.107-1.683l3.1-14.688c0.023-0.179,0.043-0.331,0.057-0.46
		c0.012-0.127,0.02-0.254,0.02-0.382c0-0.561-0.168-0.843-0.498-0.843h-2.486c-0.486,0-0.842,0.561-1.07,1.685L236.699,110.8z
		 M259.051,114.739H247.41c-0.178,0-0.268-0.152-0.268-0.459c0-0.179,0.014-0.331,0.037-0.459L252.613,88
		c0.127-0.585,0.344-0.941,0.648-1.069l4.898-1.339c0.355,0,0.535,0.28,0.535,0.842c0,0.254-0.039,0.573-0.117,0.956l-0.992,4.781
		h9.064c0.713,0,1.07,0.446,1.07,1.339L259.051,114.739z M253.492,111.68c-0.025,0.126-0.039,0.28-0.039,0.458
		c0,0.281,0.09,0.422,0.27,0.422h0.574l7.152-16.448c0.127-0.511,0.191-0.867,0.191-1.071c0-0.409-0.152-0.613-0.461-0.613h-3.672
		c-0.281,0-0.471,0.308-0.572,0.919L253.492,111.68z M282.047,108.198c-0.459,2.193-1.053,3.832-1.779,4.915
		c-0.727,1.085-1.625,1.626-2.695,1.626h-9.449c-1.453,0-2.18-1.032-2.18-3.099c0-0.918,0.152-2.065,0.459-3.442l1.988-9.486
		c0.459-2.193,1.051-3.831,1.779-4.915c0.727-1.085,1.625-1.626,2.697-1.626h9.408c1.455,0,2.182,1.045,2.182,3.136
		c0,0.485-0.039,1.01-0.115,1.568c-0.076,0.562-0.18,1.174-0.307,1.837L282.047,108.198z M271.68,110.8
		c-0.076,0.383-0.115,0.688-0.115,0.918c0,0.511,0.166,0.765,0.498,0.765h2.486c0.51,0,0.879-0.56,1.109-1.683l3.098-14.688
		c0.027-0.179,0.045-0.331,0.059-0.46c0.012-0.127,0.02-0.254,0.02-0.382c0-0.561-0.166-0.843-0.498-0.843h-2.486
		c-0.484,0-0.84,0.561-1.07,1.685L271.68,110.8z M284.227,114.739c-0.943,0-1.414-0.713-1.414-2.142
		c0-0.331,0.023-0.689,0.076-1.071c0.051-0.384,0.127-0.815,0.229-1.302L287.785,88c0.1-0.585,0.318-0.941,0.65-1.069l4.895-1.339
		c0.357,0,0.537,0.28,0.537,0.842c0,0.254-0.039,0.573-0.115,0.956l-0.996,4.781h2.334c0.152,0,0.23,0.127,0.23,0.382
		c0,0.077,0,0.159,0,0.249c0,0.089-0.014,0.186-0.039,0.286l-0.078,0.422c-0.127,0.612-0.33,0.917-0.609,0.917h-2.295l-3.254,15.454
		c-0.051,0.282-0.094,0.535-0.133,0.766c-0.039,0.229-0.057,0.446-0.057,0.649c0,0.842,0.281,1.264,0.842,1.264h4.59
		c0.051,0,0.076,0.063,0.076,0.19l-0.268,1.53c-0.078,0.307-0.166,0.459-0.268,0.459H284.227z M292.871,114.739
		c-0.178,0-0.268-0.128-0.268-0.382c0-0.077,0.006-0.153,0.02-0.23c0.014-0.076,0.033-0.178,0.057-0.306l6.121-29.147
		c0.127-0.587,0.318-0.88,0.574-0.88h8.682c0.18,0,0.27,0.152,0.27,0.46c0,0.406-0.064,0.732-0.191,0.975
		c-0.129,0.242-0.242,0.39-0.346,0.438l-9.219,6.198c-0.203,0.127-0.338,0.312-0.402,0.555c-0.062,0.242-0.094,0.517-0.094,0.821
		c0,0.23,0.049,0.345,0.152,0.345c0.102,0,0.205-0.051,0.305-0.154l4.363-2.714c0.229,0,0.344,0.152,0.344,0.459
		c0,0.179-0.039,0.396-0.115,0.649l-4.17,19.854c-0.025,0.126-0.039,0.28-0.039,0.458c0,0.281,0.09,0.422,0.27,0.422h5.201
		c0.051,0,0.078,0.063,0.078,0.19v0.268l-0.307,1.263c-0.053,0.307-0.127,0.459-0.229,0.459H292.871z M309.09,110.8
		c-0.076,0.383-0.115,0.688-0.115,0.918c0,0.511,0.166,0.765,0.498,0.765h2.486c0.51,0,0.879-0.56,1.107-1.683l0.309-1.531
		c0.127-0.586,0.33-0.879,0.611-0.879h5.049c0.154,0,0.229,0.114,0.229,0.345c0,0.152-0.014,0.279-0.037,0.382
		c-0.893,3.749-2.309,5.623-4.246,5.623h-9.449c-1.451,0-2.18-1.032-2.18-3.099c0-0.918,0.154-2.065,0.459-3.442l1.99-9.486
		c0.459-2.193,1.051-3.831,1.777-4.915c0.729-1.085,1.627-1.626,2.697-1.626h9.41c1.453,0,2.18,1.045,2.18,3.136
		c0,0.459-0.031,0.977-0.094,1.551c-0.064,0.573-0.174,1.191-0.326,1.854l-0.459,2.026c-0.154,0.613-0.346,0.919-0.574,0.919H315.4
		c-0.178,0-0.268-0.153-0.268-0.458c0-0.179,0.014-0.332,0.039-0.461l0.994-4.627c0.025-0.179,0.045-0.331,0.059-0.46
		c0.012-0.127,0.018-0.254,0.018-0.382c0-0.561-0.166-0.843-0.496-0.843h-2.486c-0.486,0-0.842,0.561-1.07,1.685L309.09,110.8z
		 M321.98,104.488c-0.307,0-0.459-0.243-0.459-0.728c0-0.102,0-0.216,0-0.344c0-0.127,0.023-0.268,0.076-0.421l0.918-4.284
		c0.459-2.193,1.053-3.831,1.779-4.915c0.727-1.085,1.625-1.626,2.695-1.626h10.023c0.152,0,0.23,0.127,0.23,0.382
		c0,0.077,0,0.159,0,0.249c0,0.089-0.014,0.186-0.039,0.286l-0.115,0.536c-0.129,0.536-0.318,0.803-0.574,0.803h-6.502
		c-0.512,0-0.881,0.561-1.109,1.685l-1.109,5.24c-0.027,0.127-0.039,0.28-0.039,0.458c0,0.282,0.09,0.422,0.268,0.422h7.191
		c0.307,0,0.461,0.255,0.461,0.765c0,0.103-0.008,0.217-0.02,0.345c-0.014,0.128-0.033,0.254-0.059,0.382l-0.957,4.476
		c-0.459,2.193-1.051,3.832-1.777,4.915c-0.727,1.085-1.625,1.626-2.697,1.626h-12.471c-0.178,0-0.268-0.125-0.268-0.376
		c0-0.075,0.008-0.15,0.02-0.226c0.014-0.075,0.033-0.175,0.057-0.301l0.078-0.526c0.051-0.251,0.127-0.438,0.229-0.562
		c0.102-0.126,0.217-0.188,0.344-0.188h8.99c0.51,0,0.879-0.552,1.109-1.653l0.994-4.881c0.102-0.41,0.152-0.769,0.152-1.076
		s-0.076-0.461-0.229-0.461H321.98z"/>
	<g>
		<path fill="#0054A6" d="M55.674,43.795c0,0-8.372-8.534-8.372-13.848s0-18.998,0-18.998S32.49,17.711,28.304,25.438
			c0,0,12.88-0.161,13.523,1.288c0,0-0.322-3.22-4.348-4.508c0,0,2.938-4.186,5.836-4.669L43.58,28.98
			C43.58,28.98,48.75,42.505,55.674,43.795z"/>
		<path fill="#0054A6" d="M108.968,65.852c0.16-10.305,1.932-17.872,1.932-17.872c-17.308,11.603-24.334,26.019-27.188,35.88h1.811
			C93.125,70.538,108.968,65.852,108.968,65.852z"/>
		<path fill="#0054A6" d="M119.509,34.938c0,0,5.474,30.108,6.117,31.235S130.62,46.531,119.509,34.938z"/>
		<path fill="#0054A6" d="M123.136,66.657c-0.644-3.542-5.011-31.093-5.011-31.093C109.916,50.698,123.782,70.199,123.136,66.657z"
			/>
		<path fill="#0054A6" d="M124.017,33.168c0,0,20.447,21.736,18.678,52.488c0,0,4.186-7.084,2.898-32.203
			C145.593,53.453,135.933,38.48,124.017,33.168z"/>
		<path fill="#0054A6" d="M112.843,97.146c0,0,0.145-0.71,0.159-0.794h-1.268c-0.048,0.262-0.098,0.521-0.146,0.781h0.987
			C112.667,97.133,112.755,97.137,112.843,97.146z"/>
		<path fill="#0054A6" d="M123.298,71.486c-9.338-2.414-9.824-22.38-9.824-22.38c-3.541,8.052-1.125,27.372-0.32,33.65
			c0.213,1.663,0.007,4.357-0.409,7.414h6.42C124.603,76.979,123.298,71.486,123.298,71.486z"/>
		<path fill="#0054A6" d="M65.818,55.063c0,0,13.363,14.33,14.17,28.176c0,0,0.644-12.88,13.684-27.692
			C93.671,55.547,79.665,68.427,65.818,55.063z"/>
		<path fill="#0054A6" d="M68.751,102.936c-0.177-0.187-0.326-0.416-0.444-0.678c0.002,1.205-0.04,2.451-0.134,3.741L68.751,102.936
			z"/>
		<path fill="#0054A6" d="M110.485,70.811c0,0-11.584,0.777-18.722,10.983h6.203C103.314,73.68,110.485,70.811,110.485,70.811z"/>
		<path fill="#0054A6" d="M69.8,97.103v-0.107l1.195-6.344H68.32c-0.867,0-1.617-0.474-2.014-1.229
			c1.014,3.001,1.717,6.434,1.934,10.345l0.152-0.709C68.587,98.018,69.164,97.405,69.8,97.103z"/>
		<path fill="#0054A6" d="M34.583,66.174c0.643-1.127,6.117-31.235,6.117-31.235C29.591,46.531,33.939,67.301,34.583,66.174z"/>
		<path fill="#0054A6" d="M49.396,47.979c0,0,1.771,7.567,1.93,17.872c0,0,15.845,4.687,23.447,18.008h1.811
			C73.729,73.998,66.703,59.582,49.396,47.979z"/>
		<path fill="#0054A6" d="M41.931,35.564c0,0-4.367,27.551-5.012,31.093C36.276,70.199,50.142,50.698,41.931,35.564z"/>
		<path fill="#0054A6" d="M65.976,88.078v-0.566l0.286-1.27c0.176-1.636,1.388-2.383,2.479-2.383h1.354
			c-6.922-12.162-20.017-13.049-20.017-13.049s11.063,4.431,15.954,17.842C65.998,88.467,65.976,88.276,65.976,88.078z"/>
		<path fill="#0054A6" d="M72.359,116.739h-3.312c-0.893,0-1.876-0.561-2.219-1.763c-1.2,5.419-3.188,11.444-6.195,18.144
			C60.632,133.12,68.585,129.132,72.359,116.739z"/>
		<path fill="#0054A6" d="M46.636,82.757c0.806-6.278,3.219-25.599-0.322-33.65c0,0-0.482,19.966-9.822,22.38
			c0,0-2.576,10.787,14.492,38.481C50.984,109.968,45.831,89.036,46.636,82.757z"/>
		<path fill="#0054A6" d="M75.83,116.738c-6.162,16.7-14.695,20.906-14.695,20.906c16.08,15.073,17.084,37.687,17.084,37.687
			v-60.638C77.893,116.09,76.83,116.733,75.83,116.738z"/>
		<path fill="#0054A6" d="M94.025,116.739h-5.82c3.773,12.393,11.727,16.381,11.727,16.381c-2.686-5.984-4.559-11.43-5.784-16.387
			C94.106,116.735,94.066,116.739,94.025,116.739z"/>
		<path fill="#0054A6" d="M84.125,116.739H82.97c-0.463,0-0.883-0.136-1.234-0.367v58.959c0,0,1.006-22.613,17.086-37.687
			C98.822,137.645,90.288,133.438,84.125,116.739z"/>
		<path fill="#0054A6" d="M34.261,71.327c-10.467-7.246,2.415-35.743,2.415-35.743c-14.974,14.65-14.169,29.785-14.331,35.26
			c-0.16,5.475,20.287,37.353,20.287,37.353C33.134,88.554,34.261,71.327,34.261,71.327z"/>
		<path fill="#0054A6" d="M36.033,33.168C24.119,38.48,14.457,53.453,14.457,53.453c-1.288,25.119,2.898,32.203,2.898,32.203
			C15.583,54.904,36.033,33.168,36.033,33.168z"/>
		<path fill="#0054A6" d="M86.042,36.357c-2.439-11.582-6.857-11.125-9.6-11.734c0,0,6.855,21.181-17.067,21.029
			c0,0-1.067,2.59,7.314,2.285c0,0-1.829,2.743-3.505,2.743l6.4,0.152c0,0-0.763,1.981-1.98,2.133c0,0,6.095,0.305,6.857-0.457
			c0,0,1.066,1.372-0.915,2.743c0,0,3.353,0.457,5.333-2.743c0,0,2.287,3.049,6.096,3.2c0,0-1.828-2.438-1.218-3.2
			c0,0,3.198,2.134,6.704,1.524c0,0-2.592-1.828-1.525-3.353c0,0,4.42,1.371,5.487,0.608c0,0-2.897-1.828-1.831-2.895
			c0,0,4.573,1.066,6.859-2.895C99.453,45.5,88.482,47.938,86.042,36.357z"/>
		<path fill="#0054A6" d="M100.435,40.574c14.492-0.321,10.125-32.863,10.125-32.863c20.125,7.244,27.229,22.237,27.229,22.237
			c-7.891-2.738-13.686-2.093-13.686-2.093c20.93,9.498,19.48,15.939,19.48,15.939l-2.573,0.321
			c12.073,10.948,19.802,27.854,19.802,27.854C152.601,5.957,98.666,0,98.666,0C112.511,17.551,100.435,40.574,100.435,40.574z"/>
		<path fill="#0054A6" d="M123.457,35.584c0,0,12.881,28.497,2.416,35.743c0,0,0.6,9.245-2.811,21.908
			c0.041,0.256,0.071,0.525,0.08,0.825l0.291-1.385c0.381-2.318,2.033-2.505,2.531-2.505h2.56c4.802-8.238,9.34-16.737,9.263-19.327
			C137.626,65.369,138.432,50.234,123.457,35.584z"/>
		<path fill="#0054A6" d="M19.77,44.116l-2.576-0.321c0,0-1.448-6.441,19.482-15.939c0,0-5.797-0.646-13.687,2.093
			c0,0,7.104-14.993,27.23-22.237c0,0-4.367,32.542,10.123,32.863c0,0-12.075-23.023,1.771-40.574c0,0-53.938,5.957-62.148,71.971
			C-0.034,71.971,7.695,55.064,19.77,44.116z"/>
		<path fill="#0054A6" d="M131.49,25.438c-4.186-7.728-19-14.489-19-14.489s0,13.685,0,18.998s-8.371,13.848-8.371,13.848
			c6.924-1.29,12.094-14.814,12.094-14.814l0.266-11.431c2.897,0.483,5.835,4.669,5.835,4.669c-4.025,1.288-4.349,4.508-4.349,4.508
			C118.609,25.277,131.49,25.438,131.49,25.438z"/>
		<path fill="#0054A6" d="M71.615,30.592c-1.128,5.795-8.373,10.305-8.373,10.305c20.124-4.186,9.018-20.467,9.018-20.467
			c10.626-3.039,12.557,0.502,15.938,11.612c3.38,11.108,8.535,7.888,8.535,7.888c-6.925-3.219-6.28-15.616-6.28-15.616
			s-4.832-12.398-15.78-10.788c-10.947,1.61-12.718,11.593-12.718,11.593C69.039,21.414,72.742,24.795,71.615,30.592z"/>
	</g>
</g>
<g>
	<path fill="#0054A6" d="M270.013,119.959c-0.036,0.204-0.108,0.306-0.217,0.306h-2.537l-0.774,4.141
		c0,0.048-0.012,0.071-0.036,0.071h-3.492c-0.012,0-0.023-0.021-0.036-0.062c-0.012-0.042-0.018-0.087-0.018-0.135l0.756-4.015
		h-2.394c-0.061,0-0.103-0.026-0.126-0.081c-0.024-0.054-0.036-0.116-0.036-0.188v-0.162l0.126-0.558
		c0.012-0.217,0.09-0.324,0.233-0.324h8.515c0.048,0,0.087,0.026,0.117,0.081c0.029,0.054,0.045,0.117,0.045,0.188v0.09
		c0,0.036-0.007,0.066-0.019,0.091L270.013,119.959z M265.026,132.217c-0.024,0.216-0.103,0.324-0.234,0.324h-3.186
		c-0.097,0-0.15-0.09-0.162-0.27c0-0.084,0.006-0.145,0.018-0.181l0.954-5.058c0-0.036,1.17-0.054,3.511-0.054
		c0.023,0,0.035,0.048,0.035,0.144v0.036L265.026,132.217z M266.7,126.079c-0.012,0.204-0.09,0.306-0.233,0.306h-4.213
		c-0.107,0-0.168-0.096-0.18-0.288c0-0.023,0.003-0.054,0.009-0.09s0.016-0.084,0.027-0.144l0.108-0.504
		c0.035-0.192,0.113-0.288,0.233-0.288h4.23c0.096,0,0.144,0.107,0.144,0.323c0,0.061-0.006,0.108-0.018,0.145h0.018L266.7,126.079z
		"/>
	<path fill="#0054A6" d="M270.57,127.483l-0.666,3.204c-0.036,0.18-0.054,0.323-0.054,0.432c0,0.24,0.078,0.36,0.234,0.36h1.17
		c0.239,0,0.414-0.265,0.521-0.792l0.145-0.721c0.06-0.275,0.155-0.414,0.288-0.414h2.376c0.071,0,0.107,0.055,0.107,0.162
		c0,0.072-0.006,0.133-0.018,0.18c-0.42,1.765-1.086,2.646-1.998,2.646h-4.446c-0.684,0-1.025-0.486-1.025-1.458
		c0-0.432,0.071-0.972,0.216-1.62l0.936-4.464c0.216-1.032,0.495-1.803,0.837-2.313c0.342-0.51,0.766-0.765,1.27-0.765h4.428
		c0.684,0,1.026,0.492,1.026,1.477c0,0.228-0.019,0.474-0.055,0.737c-0.036,0.265-0.084,0.553-0.144,0.864l-0.432,2.07
		c-0.061,0.275-0.156,0.414-0.288,0.414H270.57z M270.805,126.367h1.872l0.558-2.592c0.012-0.084,0.021-0.156,0.027-0.217
		c0.006-0.06,0.009-0.119,0.009-0.18c0-0.264-0.078-0.396-0.233-0.396h-1.171c-0.228,0-0.396,0.264-0.504,0.792L270.805,126.367z"/>
	<path fill="#0054A6" d="M275.79,132.541c-0.576,0-0.864-0.324-0.864-0.972c0-0.78,0.192-1.608,0.576-2.484l1.351-3.114
		c0.107-0.264,0.213-0.459,0.314-0.585c0.103-0.126,0.231-0.188,0.388-0.188h1.907c0.156,0,0.234,0.084,0.234,0.252
		c0,0.132-0.042,0.3-0.126,0.504l-1.962,4.536c-0.108,0.312-0.162,0.552-0.162,0.72c0,0.204,0.072,0.306,0.216,0.306h1.188
		c0.132,0,0.228-0.138,0.288-0.414l1.422-6.894c0.06-0.3,0.09-0.534,0.09-0.702c0-0.372-0.126-0.558-0.378-0.558h-2.538
		c-0.036,0-0.054-0.03-0.054-0.09c0-0.013,0.002-0.03,0.009-0.055c0.006-0.023,0.009-0.048,0.009-0.071l0.126-0.595
		c0.012-0.144,0.054-0.216,0.126-0.216h4.896c0.432,0,0.647,0.33,0.647,0.99c0,0.276-0.048,0.654-0.144,1.134l-1.477,7.056
		c-0.012,0.061-0.018,0.133-0.018,0.217c0,0.132,0.042,0.197,0.126,0.197h2.052c0.036,0,0.054,0.043,0.054,0.126l-0.126,0.685
		c-0.036,0.144-0.084,0.216-0.144,0.216H275.79z"/>
	<path fill="#0054A6" d="M292.135,132.541c-0.085,0-0.126-0.072-0.126-0.216c0-0.084,0.006-0.156,0.018-0.216l1.386-6.534
		c0.012-0.061,0.021-0.111,0.027-0.153s0.009-0.074,0.009-0.099c0-0.096-0.018-0.145-0.054-0.145c-0.061,0-0.133,0.09-0.216,0.271
		l-2.971,6.534c-0.18,0.372-0.372,0.558-0.575,0.558h-1.801c-0.084,0-0.126-0.06-0.126-0.18c0-0.036,0.003-0.072,0.01-0.108
		c0.006-0.036,0.015-0.084,0.026-0.144l1.368-6.534c0.012-0.061,0.021-0.108,0.027-0.145c0.006-0.036,0.009-0.071,0.009-0.107
		c0-0.096-0.024-0.145-0.072-0.145s-0.114,0.09-0.198,0.271l-2.97,6.534c-0.18,0.372-0.372,0.558-0.576,0.558h-1.8
		c-0.084,0-0.126-0.06-0.126-0.18c0-0.036,0.003-0.072,0.009-0.108c0.007-0.036,0.016-0.084,0.027-0.144l2.052-9.757
		c0.048-0.287,0.138-0.432,0.271-0.432h2.178c0.168,0,0.252,0.132,0.252,0.396c0,0.12-0.018,0.27-0.054,0.449l-1.152,5.49
		l2.412-5.202c0.372-0.756,0.744-1.134,1.116-1.134h1.529c0.265,0,0.396,0.204,0.396,0.612c0,0.096-0.009,0.198-0.027,0.306
		c-0.018,0.108-0.039,0.229-0.062,0.36l-1.062,5.058l2.412-5.202c0.372-0.756,0.738-1.134,1.098-1.134h1.549
		c0.264,0,0.396,0.204,0.396,0.612c0,0.096-0.009,0.198-0.026,0.306c-0.019,0.108-0.04,0.229-0.063,0.36l-1.656,7.901
		c-0.012,0.061-0.018,0.133-0.018,0.217c0,0.132,0.042,0.197,0.126,0.197h2.16c0.023,0,0.036,0.03,0.036,0.091v0.126l-0.145,0.594
		c-0.024,0.144-0.066,0.216-0.126,0.216H292.135z"/>
	<path fill="#0054A6" d="M304.933,132.217c-0.036,0.216-0.114,0.324-0.233,0.324h-3.168c-0.108,0-0.175-0.102-0.198-0.306
		c0.012-0.036,0.018-0.084,0.018-0.145l0.954-5.058c0-0.036,0.006-0.054,0.019-0.054h3.51c0.023,0,0.036,0.048,0.036,0.144v0.036
		L304.933,132.217z M306.606,126.079c-0.012,0.204-0.084,0.306-0.216,0.306h-4.122c-0.096,0-0.15-0.096-0.162-0.288
		c0-0.023,0-0.054,0-0.09s0.006-0.084,0.019-0.144l0.107-0.504c0.048-0.192,0.126-0.288,0.234-0.288h4.122
		c0.096,0,0.144,0.084,0.144,0.252v0.216L306.606,126.079z M303.564,120.265h-0.63c-0.06,0-0.105-0.026-0.135-0.081
		c-0.03-0.054-0.045-0.116-0.045-0.188c0-0.084,0.006-0.138,0.018-0.162l0.108-0.558c0.048-0.217,0.126-0.324,0.234-0.324h2.88
		c0.636,0,0.983,0.479,1.044,1.439c-0.024,0.156-0.039,0.321-0.045,0.495c-0.007,0.175-0.027,0.357-0.063,0.549l-0.54,2.971
		l-0.036,0.054c0,0.012-1.164,0.018-3.492,0.018c-0.048,0-0.071-0.041-0.071-0.126c0-0.012,0.003-0.023,0.009-0.035
		c0.006-0.013,0.009-0.024,0.009-0.036L303.564,120.265z"/>
	<path fill="#0054A6" d="M310.477,132.217c-0.036,0.216-0.114,0.324-0.233,0.324h-3.168c-0.108,0-0.175-0.102-0.198-0.306
		c0.012-0.036,0.018-0.084,0.018-0.145l0.954-5.058c0-0.036,0.006-0.054,0.019-0.054h3.51c0.023,0,0.036,0.048,0.036,0.144v0.036
		L310.477,132.217z M312.15,126.079c-0.012,0.204-0.084,0.306-0.216,0.306h-4.122c-0.096,0-0.15-0.096-0.162-0.288
		c0-0.023,0-0.054,0-0.09s0.006-0.084,0.019-0.144l0.107-0.504c0.048-0.192,0.126-0.288,0.234-0.288h4.122
		c0.096,0,0.144,0.084,0.144,0.252v0.216L312.15,126.079z M309.108,120.265h-0.63c-0.06,0-0.105-0.026-0.135-0.081
		c-0.03-0.054-0.045-0.116-0.045-0.188c0-0.084,0.006-0.138,0.018-0.162l0.108-0.558c0.048-0.217,0.126-0.324,0.234-0.324h2.88
		c0.636,0,0.983,0.479,1.044,1.439c-0.024,0.156-0.039,0.321-0.045,0.495c-0.007,0.175-0.027,0.357-0.063,0.549l-0.54,2.971
		l-0.036,0.054c0,0.012-1.164,0.018-3.492,0.018c-0.048,0-0.071-0.041-0.071-0.126c0-0.012,0.003-0.023,0.009-0.035
		c0.006-0.013,0.009-0.024,0.009-0.036L309.108,120.265z"/>
	<path fill="#0054A6" d="M316.309,129.517c-0.048,0.229-0.072,0.463-0.072,0.702c0,0.324,0.045,0.579,0.136,0.766
		c0.09,0.186,0.23,0.278,0.423,0.278h1.206c0.239,0,0.479-0.158,0.72-0.477s0.42-0.909,0.54-1.773
		c0.144-0.659,0.216-1.193,0.216-1.602c0-0.06-0.003-0.111-0.009-0.153s-0.009-0.093-0.009-0.152c0-0.084,0.012-0.126,0.036-0.126
		h3.546c0.035,0,0.054,0.042,0.054,0.126v0.197c0,0.805-0.087,1.53-0.261,2.179c-0.175,0.647-0.399,1.196-0.676,1.646
		c-0.275,0.45-0.582,0.795-0.918,1.035s-0.66,0.36-0.972,0.36h-5.922c-0.432,0-0.78-0.21-1.044-0.631
		c-0.265-0.42-0.396-1.05-0.396-1.89c0-0.252,0.016-0.513,0.045-0.783c0.03-0.27,0.063-0.549,0.1-0.837l0.252-1.386
		c0.012-0.012,1.152-0.018,3.42-0.018c0.023,0,0.036,0.048,0.036,0.144v0.036L316.309,129.517z M321.492,125.071
		c0.66,0.036,1.116,0.336,1.368,0.899l0.072,0.198c0.024,0.048,0.036,0.09,0.036,0.126c0,0.061-0.019,0.09-0.054,0.09h-9.792
		c-0.108,0-0.169-0.126-0.181-0.378l0.055-0.342c0.048-0.396,0.155-0.594,0.323-0.594H321.492z M314.148,122.497
		c0.084-0.504,0.229-0.972,0.433-1.404c0.203-0.432,0.438-0.808,0.701-1.128c0.265-0.321,0.546-0.569,0.847-0.747
		c0.3-0.178,0.6-0.267,0.899-0.267h7.093c0.083,0,0.138,0.089,0.161,0.267c0,0.023-0.003,0.05-0.009,0.079
		c-0.006,0.03-0.009,0.057-0.009,0.08l-0.108,0.568c-0.023,0.214-0.096,0.319-0.216,0.319h-5.04c-0.588,0-0.972,0.475-1.151,1.423
		l-0.504,2.718c0,0.036-0.072,0.057-0.217,0.062c-0.144,0.007-0.414,0.009-0.81,0.009h-2.358c-0.012,0-0.023-0.021-0.036-0.062
		c-0.012-0.042-0.018-0.087-0.018-0.135L314.148,122.497z"/>
	<path fill="#0054A6" d="M328.477,126.079c-0.012,0.204-0.084,0.306-0.216,0.306h-3.744c-0.097,0-0.15-0.096-0.162-0.288
		c0-0.012,0.003-0.038,0.009-0.081c0.006-0.042,0.009-0.093,0.009-0.152l0.108-0.504c0.036-0.192,0.114-0.288,0.234-0.288h3.743
		c0.097,0,0.145,0.107,0.145,0.323c0,0.061-0.006,0.108-0.018,0.145L328.477,126.079z M330.133,130.111
		c0.096-0.217,0.197-0.522,0.306-0.918c0.108-0.396,0.21-0.87,0.306-1.422l0.126-0.774c0.012-0.012,1.254-0.018,3.727-0.018
		c0.023,0,0.036,0.035,0.036,0.107v0.108c-0.204,0.792-0.447,1.518-0.729,2.178s-0.591,1.224-0.927,1.692
		c-0.336,0.468-0.682,0.831-1.035,1.089c-0.354,0.258-0.705,0.387-1.053,0.387h-4.536c-0.84,0-1.404-0.66-1.692-1.98v0.019
		c-0.12-0.479-0.18-1.056-0.18-1.729c0-0.048,0-0.174,0-0.378c0-0.203,0.006-0.416,0.018-0.639c0.013-0.222,0.024-0.42,0.036-0.594
		s0.03-0.261,0.055-0.261h3.617c0.024,0,0.036,0.029,0.036,0.09l-0.126,0.828c-0.084,0.54-0.159,0.996-0.225,1.367
		c-0.066,0.372-0.1,0.679-0.1,0.918l0.019,0.108c0,0.648,0.174,0.972,0.521,0.972h0.774
		C329.503,131.263,329.845,130.879,330.133,130.111z M331.591,123.127c0.083-0.468,0.146-0.867,0.188-1.197
		c0.042-0.329,0.063-0.621,0.063-0.873l-0.019-0.107c-0.024-0.456-0.233-0.685-0.63-0.685h-0.756c-0.204,0-0.375,0.061-0.513,0.181
		c-0.139,0.12-0.262,0.303-0.369,0.549c-0.108,0.246-0.207,0.558-0.297,0.936s-0.189,0.819-0.297,1.323l-0.198,1.152l-0.036,0.054
		c0,0.012-1.2,0.018-3.6,0.018c-0.049,0-0.072-0.047-0.072-0.144c0-0.012,0.003-0.023,0.009-0.036
		c0.006-0.012,0.009-0.023,0.009-0.036c0.216-0.828,0.468-1.568,0.756-2.223s0.595-1.209,0.918-1.665
		c0.324-0.456,0.663-0.807,1.018-1.053c0.354-0.246,0.705-0.369,1.053-0.369h4.536c0.6,0,1.064,0.345,1.395,1.035
		c0.33,0.689,0.495,1.653,0.495,2.889c0,0.061-0.003,0.177-0.009,0.351c-0.006,0.175-0.015,0.354-0.027,0.54
		c-0.012,0.187-0.026,0.352-0.045,0.495c-0.018,0.145-0.033,0.216-0.045,0.216h-3.708c-0.012,0-0.021-0.021-0.026-0.062
		c-0.007-0.042-0.01-0.087-0.01-0.135L331.591,123.127z M335.101,126.079v-0.019c-0.036,0.217-0.114,0.324-0.234,0.324h-3.744
		c-0.107,0-0.168-0.096-0.18-0.288c0-0.012,0.003-0.038,0.009-0.081c0.006-0.042,0.016-0.093,0.027-0.152l0.108-0.504
		c0.035-0.192,0.107-0.288,0.216-0.288h3.762c0.096,0,0.144,0.107,0.144,0.323c0,0.061-0.006,0.108-0.018,0.145h0.018
		L335.101,126.079z"/>
</g>
</svg>
