<?xml version="1.0" encoding="utf-8"?>
<!-- Generator: Adobe Illustrator 18.1.1, SVG Export Plug-In . SVG Version: 6.00 Build 0)  -->
<svg version="1.1" id="Layer_1" xmlns="http://www.w3.org/2000/svg" xmlns:xlink="http://www.w3.org/1999/xlink" x="0px" y="0px"
	 viewBox="0 32 123 60" enable-background="new 0 32 123 60" xml:space="preserve">
<rect y="32" fill="#0067C6" width="123" height="60"/>
<path fill="#FFFFFF" d="M63.4,47.2c0,0.2-0.1,0.3-0.2,0.3h-2.5l-0.8,4.1c0,0,0,0.1,0,0.1h-3.5c0,0,0,0,0-0.1c0,0,0-0.1,0-0.1l0.8-4
	h-2.4c-0.1,0-0.1,0-0.1-0.1c0-0.1,0-0.1,0-0.2V47l0.1-0.6c0-0.2,0.1-0.3,0.2-0.3h8.5c0,0,0.1,0,0.1,0.1c0,0.1,0,0.1,0,0.2v0.1
	c0,0,0,0.1,0,0.1L63.4,47.2z M58.5,59.4c0,0.2-0.1,0.3-0.2,0.3h-3.2c-0.1,0-0.1-0.1-0.2-0.3c0-0.1,0-0.1,0-0.2l1-5
	c0,0,1.2-0.1,3.5-0.1c0,0,0,0,0,0.1v0L58.5,59.4z M60.1,53.3c0,0.2-0.1,0.3-0.2,0.3h-4.2c-0.1,0-0.2-0.1-0.2-0.3c0,0,0-0.1,0-0.1
	c0,0,0-0.1,0-0.1l0.1-0.5c0-0.2,0.1-0.3,0.2-0.3h4.2c0.1,0,0.1,0.1,0.1,0.3c0,0.1,0,0.1,0,0.1h0L60.1,53.3z M61.6,59.7
	c-0.1,0-0.1-0.1-0.1-0.2c0,0,0-0.1,0-0.1c0,0,0-0.1,0-0.1l2.9-13.7c0.1-0.3,0.1-0.4,0.3-0.4h4.1c0.1,0,0.1,0.1,0.1,0.2
	c0,0.2,0,0.3-0.1,0.5c-0.1,0.1-0.1,0.2-0.2,0.2L64.3,49c-0.1,0.1-0.2,0.1-0.2,0.3c0,0.1,0,0.2,0,0.4c0,0.1,0,0.2,0.1,0.2
	c0,0,0.1,0,0.1-0.1l2-1.3c0.1,0,0.2,0.1,0.2,0.2c0,0.1,0,0.2-0.1,0.3l-2,9.3c0,0.1,0,0.1,0,0.2c0,0.1,0,0.2,0.1,0.2H67
	c0,0,0,0,0,0.1v0.1l-0.1,0.6c0,0.1-0.1,0.2-0.1,0.2L61.6,59.7L61.6,59.7z M67,59.7c-0.4,0-0.7-0.3-0.7-1c0-0.2,0-0.3,0-0.5
	c0-0.2,0.1-0.4,0.1-0.6l2.2-10.4c0-0.3,0.1-0.4,0.3-0.5l2.3-0.6c0.2,0,0.3,0.1,0.3,0.4c0,0.1,0,0.3-0.1,0.4L71,49.1h1.1
	c0.1,0,0.1,0.1,0.1,0.2c0,0,0,0.1,0,0.1c0,0,0,0.1,0,0.1l0,0.2c-0.1,0.3-0.2,0.4-0.3,0.4h-1.1l-1.5,7.2c0,0.1,0,0.3-0.1,0.4
	c0,0.1,0,0.2,0,0.3c0,0.4,0.1,0.6,0.4,0.6h2.2c0,0,0,0,0,0.1l-0.1,0.7c0,0.1-0.1,0.2-0.1,0.2L67,59.7L67,59.7z M71.8,59.7
	c-0.6,0-0.9-0.3-0.9-1c0-0.8,0.2-1.6,0.6-2.5l1.3-3.1c0.1-0.3,0.2-0.5,0.3-0.6c0.1-0.1,0.2-0.2,0.4-0.2h1.9c0.2,0,0.2,0.1,0.2,0.3
	c0,0.1,0,0.3-0.1,0.5l-2,4.5c-0.1,0.3-0.2,0.6-0.2,0.7c0,0.2,0.1,0.3,0.2,0.3h1.2c0.1,0,0.2-0.1,0.3-0.4l1.4-6.9
	c0.1-0.3,0.1-0.5,0.1-0.7c0-0.4-0.1-0.6-0.4-0.6h-2.5c0,0-0.1,0-0.1-0.1c0,0,0,0,0-0.1c0,0,0,0,0-0.1l0.1-0.6c0-0.1,0.1-0.2,0.1-0.2
	h4.9c0.4,0,0.6,0.3,0.6,1c0,0.3,0,0.7-0.1,1.1l-1.5,7c0,0.1,0,0.1,0,0.2c0,0.1,0,0.2,0.1,0.2h2c0,0,0.1,0,0.1,0.1L80,59.5
	c0,0.1-0.1,0.2-0.1,0.2L71.8,59.7L71.8,59.7z M83.8,59.7c-0.1,0-0.1-0.1-0.1-0.2c0,0,0-0.1,0-0.1c0,0,0-0.1,0-0.1l1.4-6.5
	c0-0.1,0-0.1,0-0.1c0,0,0-0.1,0-0.1c0-0.1,0-0.1-0.1-0.1c0,0-0.1,0.1-0.2,0.3l-3,6.5c-0.2,0.4-0.4,0.6-0.6,0.6h-1.8
	c-0.1,0-0.1-0.1-0.1-0.2c0,0,0-0.1,0-0.1c0,0,0-0.1,0-0.1l2-9.7c0-0.3,0.1-0.4,0.3-0.4h2.2c0.2,0,0.3,0.1,0.3,0.4
	c0,0.1,0,0.3-0.1,0.4L83,55.4l2.4-5.2c0.4-0.8,0.7-1.1,1.1-1.1H88c0.3,0,0.4,0.2,0.4,0.6c0,0.1,0,0.2,0,0.3c0,0.1,0,0.2-0.1,0.4
	l-1.7,7.9c0,0.1,0,0.1,0,0.2c0,0.1,0,0.2,0.1,0.2h2.1c0,0,0.1,0,0.1,0.1l-0.1,0.7c0,0.1-0.1,0.2-0.1,0.2L83.8,59.7L83.8,59.7z
	 M88.3,59.7c-0.1,0-0.1-0.1-0.1-0.2c0,0,0-0.1,0-0.1c0,0,0-0.1,0-0.1l2.9-13.7c0.1-0.3,0.1-0.4,0.3-0.4h4.1c0.1,0,0.1,0.1,0.1,0.2
	c0,0.2,0,0.3-0.1,0.5c-0.1,0.1-0.1,0.2-0.2,0.2L91,49c-0.1,0.1-0.2,0.1-0.2,0.3c0,0.1,0,0.2,0,0.4c0,0.1,0,0.2,0.1,0.2
	c0,0,0.1,0,0.1-0.1l2-1.3c0.1,0,0.2,0.1,0.2,0.2c0,0.1,0,0.2-0.1,0.3l-2,9.3c0,0.1,0,0.1,0,0.2c0,0.1,0,0.2,0.1,0.2h2.4
	c0,0,0,0,0,0.1v0.1l-0.1,0.6c0,0.1-0.1,0.2-0.1,0.2L88.3,59.7L88.3,59.7z M97.5,49.1c0.1,0,0.1,0.1,0.1,0.2c0,0,0,0.1,0,0.1
	c0,0,0,0.1,0,0.1L96.2,56c0,0.1,0,0.1,0,0.2c0,0,0,0.1,0,0.1c0,0.1,0,0.2,0.1,0.2c0.1,0,0.1-0.1,0.2-0.3l2.6-5.6
	c0.4-1,0.9-1.4,1.4-1.4h1.4c0.1,0,0.1,0.1,0.1,0.2c0,0.1,0,0.2,0,0.2l-1.8,8.4c0,0.1,0,0.1,0,0.2c0,0.1,0,0.1,0,0.2
	c0,0.2,0.1,0.3,0.2,0.3h2c0.1,0,0.1,0.1,0.1,0.2c0,0,0,0.1,0,0.2l0,0.2c-0.1,0.3-0.2,0.4-0.3,0.4h-4.7c-0.2,0-0.3-0.1-0.3-0.4
	c0-0.1,0-0.3,0.1-0.4l1.2-5.5l-2.1,4.5c-0.6,1.2-1.2,1.8-1.8,1.8h-1.2c-0.3,0-0.4-0.2-0.4-0.6c0-0.1,0-0.2,0-0.3
	c0-0.1,0-0.2,0.1-0.4l1.9-8.9c0-0.3,0.1-0.4,0.3-0.4L97.5,49.1L97.5,49.1z M110.4,59.7c-0.1,0-0.1-0.1-0.1-0.2c0-0.1,0-0.2,0-0.2
	l1.4-6.5c0-0.1,0-0.1,0-0.2c0,0,0-0.1,0-0.1c0-0.1,0-0.1-0.1-0.1c-0.1,0-0.1,0.1-0.2,0.3l-3,6.5c-0.2,0.4-0.4,0.6-0.6,0.6h-1.8
	c-0.1,0-0.1-0.1-0.1-0.2c0,0,0-0.1,0-0.1c0,0,0-0.1,0-0.1l1.4-6.5c0-0.1,0-0.1,0-0.1c0,0,0-0.1,0-0.1c0-0.1,0-0.1-0.1-0.1
	c0,0-0.1,0.1-0.2,0.3l-3,6.5c-0.2,0.4-0.4,0.6-0.6,0.6h-1.8c-0.1,0-0.1-0.1-0.1-0.2c0,0,0-0.1,0-0.1c0,0,0-0.1,0-0.1l2-9.7
	c0-0.3,0.1-0.4,0.3-0.4h2.2c0.2,0,0.3,0.1,0.3,0.4c0,0.1,0,0.3-0.1,0.4l-1.1,5.5l2.4-5.2c0.4-0.8,0.7-1.1,1.1-1.1h1.5
	c0.3,0,0.4,0.2,0.4,0.6c0,0.1,0,0.2,0,0.3c0,0.1,0,0.2-0.1,0.4l-1.1,5l2.4-5.2c0.4-0.8,0.7-1.1,1.1-1.1h1.5c0.3,0,0.4,0.2,0.4,0.6
	c0,0.1,0,0.2,0,0.3c0,0.1,0,0.2-0.1,0.4l-1.7,7.9c0,0.1,0,0.1,0,0.2c0,0.1,0,0.2,0.1,0.2h2.2c0,0,0,0,0,0.1v0.1l-0.1,0.6
	c0,0.1-0.1,0.2-0.1,0.2L110.4,59.7L110.4,59.7z M58.1,77.5c0,0.2-0.1,0.3-0.2,0.3h-3.2c-0.1,0-0.2-0.1-0.2-0.3c0-0.1,0-0.1,0-0.2
	l0.9-5.1c0,0,1.2,0,3.5,0c0,0,0,0,0,0.1v0.1L58.1,77.5z M64.7,71.4c0,0.2-0.1,0.3-0.2,0.3h-8.9c-0.1,0-0.1-0.1-0.2-0.3
	c0,0,0,0,0-0.1c0,0,0-0.1,0-0.2l0.1-0.5c0-0.2,0.1-0.3,0.2-0.3h8.9c0.1,0,0.2,0.1,0.2,0.4c0,0,0,0,0,0.1c0,0,0,0,0,0.1L64.7,71.4z
	 M62.1,69.8c0,0,0,0,0-0.1c0-0.1,0.1-0.3,0.2-0.6c0.1-0.3,0.2-0.5,0.2-0.8l0.2-1v0c0-0.2,0.1-0.3,0.1-0.4c0-0.1,0-0.3,0-0.3
	c0-0.3-0.1-0.6-0.2-0.7c-0.1-0.1-0.2-0.2-0.4-0.2h-1.8l-0.8,4.1c0,0,0,0-0.1,0c-0.1,0-0.2,0-0.3,0c-0.1,0-0.4,0-0.6,0
	c-0.3,0-0.6,0-1,0c-0.2,0-0.4,0-0.5,0c-0.2,0-0.3,0-0.5,0c-0.1,0-0.3,0-0.4,0c-0.1,0-0.1,0-0.1-0.1c0,0,0,0,0,0c0,0,0,0,0,0l0.9-5
	c0-0.2,0.1-0.3,0.2-0.3h7.6c0.9,0,1.4,0.7,1.4,2.1c0,0.1,0,0.1,0,0.2c0,0,0,0.1,0,0.1c0,0.2,0,0.5,0,0.7c0,0.2,0,0.4-0.1,0.6v0
	c-0.1,0.7-0.3,1.3-0.6,1.8C65.5,69.8,62.1,69.8,62.1,69.8z M65.5,77.6c0,0.2-0.1,0.3-0.2,0.3h-3.4c-0.1,0-0.1-0.1-0.1-0.2l-1.6-5.2
	c0,0,0-0.1,0-0.1c0-0.1,0-0.1,0.1-0.1h3.6l1.7,4.9L65.5,77.6L65.5,77.6z M73.9,74.8c-0.2,1-0.5,1.8-0.8,2.3
	c-0.3,0.5-0.8,0.8-1.3,0.8h-4.4c-0.7,0-1-0.5-1-1.5c0-0.4,0.1-1,0.2-1.6l0.9-4.4c0.2-1,0.5-1.8,0.8-2.3c0.3-0.5,0.8-0.8,1.3-0.8H74
	c0.7,0,1,0.5,1,1.5c0,0.2,0,0.5-0.1,0.7c0,0.3-0.1,0.6-0.1,0.9L73.9,74.8z M69.1,76c0,0.2-0.1,0.3-0.1,0.4c0,0.2,0.1,0.4,0.2,0.4
	h1.2c0.2,0,0.4-0.3,0.5-0.8l1.5-6.9c0-0.1,0-0.2,0-0.2c0-0.1,0-0.1,0-0.2c0-0.3-0.1-0.4-0.2-0.4H71c-0.2,0-0.4,0.3-0.5,0.8L69.1,76z
	 M79.5,77.8h-5.5c-0.1,0-0.1-0.1-0.1-0.2c0-0.1,0-0.2,0-0.2l2.5-12.1c0.1-0.3,0.2-0.4,0.3-0.5l2.3-0.6c0.2,0,0.3,0.1,0.3,0.4
	c0,0.1,0,0.3-0.1,0.4l-0.5,2.2h4.3c0.3,0,0.5,0.2,0.5,0.6L79.5,77.8z M76.9,76.4c0,0.1,0,0.1,0,0.2c0,0.1,0,0.2,0.1,0.2h0.3l3.4-7.7
	c0.1-0.2,0.1-0.4,0.1-0.5c0-0.2-0.1-0.3-0.2-0.3h-1.7c-0.1,0-0.2,0.1-0.3,0.4L76.9,76.4z M89.9,74.8c-0.2,1-0.5,1.8-0.8,2.3
	c-0.3,0.5-0.8,0.8-1.3,0.8h-4.4c-0.7,0-1-0.5-1-1.5c0-0.4,0.1-1,0.2-1.6l0.9-4.4c0.2-1,0.5-1.8,0.8-2.3c0.3-0.5,0.8-0.8,1.3-0.8H90
	c0.7,0,1,0.5,1,1.5c0,0.2,0,0.5-0.1,0.7c0,0.3-0.1,0.6-0.1,0.9L89.9,74.8z M85,76c0,0.2-0.1,0.3-0.1,0.4c0,0.2,0.1,0.4,0.2,0.4h1.2
	c0.2,0,0.4-0.3,0.5-0.8l1.5-6.9c0-0.1,0-0.2,0-0.2c0-0.1,0-0.1,0-0.2c0-0.3-0.1-0.4-0.2-0.4h-1.2c-0.2,0-0.4,0.3-0.5,0.8L85,76z
	 M90.9,77.8c-0.4,0-0.7-0.3-0.7-1c0-0.2,0-0.3,0-0.5c0-0.2,0.1-0.4,0.1-0.6l2.2-10.4c0-0.3,0.1-0.4,0.3-0.5l2.3-0.6
	c0.2,0,0.3,0.1,0.3,0.4c0,0.1,0,0.3-0.1,0.4l-0.5,2.2H96c0.1,0,0.1,0.1,0.1,0.2c0,0,0,0.1,0,0.1c0,0,0,0.1,0,0.1l0,0.2
	c-0.1,0.3-0.2,0.4-0.3,0.4h-1.1l-1.5,7.2c0,0.1,0,0.3-0.1,0.4c0,0.1,0,0.2,0,0.3c0,0.4,0.1,0.6,0.4,0.6h2.2c0,0,0,0,0,0.1l-0.1,0.7
	c0,0.1-0.1,0.2-0.1,0.2L90.9,77.8L90.9,77.8z M94.9,77.8c-0.1,0-0.1-0.1-0.1-0.2c0,0,0-0.1,0-0.1c0,0,0-0.1,0-0.1l2.9-13.7
	c0.1-0.3,0.1-0.4,0.3-0.4h4.1c0.1,0,0.1,0.1,0.1,0.2c0,0.2,0,0.3-0.1,0.5c-0.1,0.1-0.1,0.2-0.2,0.2l-4.3,2.9
	c-0.1,0.1-0.2,0.1-0.2,0.3c0,0.1,0,0.2,0,0.4c0,0.1,0,0.2,0.1,0.2c0,0,0.1,0,0.1-0.1l2-1.3c0.1,0,0.2,0.1,0.2,0.2
	c0,0.1,0,0.2-0.1,0.3l-2,9.3c0,0.1,0,0.1,0,0.2c0,0.1,0,0.2,0.1,0.2h2.4c0,0,0,0,0,0.1V77l-0.1,0.6c0,0.1-0.1,0.2-0.1,0.2L94.9,77.8
	L94.9,77.8z M102.5,76c0,0.2-0.1,0.3-0.1,0.4c0,0.2,0.1,0.4,0.2,0.4h1.2c0.2,0,0.4-0.3,0.5-0.8l0.1-0.7c0.1-0.3,0.2-0.4,0.3-0.4h2.4
	c0.1,0,0.1,0.1,0.1,0.2c0,0.1,0,0.1,0,0.2c-0.4,1.8-1.1,2.6-2,2.6h-4.4c-0.7,0-1-0.5-1-1.5c0-0.4,0.1-1,0.2-1.6l0.9-4.4
	c0.2-1,0.5-1.8,0.8-2.3c0.3-0.5,0.8-0.8,1.3-0.8h4.4c0.7,0,1,0.5,1,1.5c0,0.2,0,0.5,0,0.7c0,0.3-0.1,0.6-0.2,0.9l-0.2,1
	c-0.1,0.3-0.2,0.4-0.3,0.4h-2.4c-0.1,0-0.1-0.1-0.1-0.2c0-0.1,0-0.2,0-0.2l0.5-2.2c0-0.1,0-0.2,0-0.2c0-0.1,0-0.1,0-0.2
	c0-0.3-0.1-0.4-0.2-0.4h-1.2c-0.2,0-0.4,0.3-0.5,0.8L102.5,76z M108.6,73c-0.1,0-0.2-0.1-0.2-0.3c0,0,0-0.1,0-0.2c0-0.1,0-0.1,0-0.2
	l0.4-2c0.2-1,0.5-1.8,0.8-2.3c0.3-0.5,0.8-0.8,1.3-0.8h4.7c0.1,0,0.1,0.1,0.1,0.2c0,0,0,0.1,0,0.1c0,0,0,0.1,0,0.1l-0.1,0.3
	c-0.1,0.3-0.1,0.4-0.3,0.4h-3.1c-0.2,0-0.4,0.3-0.5,0.8l-0.5,2.5c0,0.1,0,0.1,0,0.2c0,0.1,0,0.2,0.1,0.2h3.4c0.1,0,0.2,0.1,0.2,0.4
	c0,0,0,0.1,0,0.2c0,0.1,0,0.1,0,0.2l-0.4,2.1c-0.2,1-0.5,1.8-0.8,2.3c-0.3,0.5-0.8,0.8-1.3,0.8h-5.8c-0.1,0-0.1-0.1-0.1-0.2
	c0,0,0-0.1,0-0.1c0,0,0-0.1,0-0.1l0-0.2c0-0.1,0.1-0.2,0.1-0.3c0-0.1,0.1-0.1,0.2-0.1h4.2c0.2,0,0.4-0.3,0.5-0.8l0.5-2.3
	c0-0.2,0.1-0.4,0.1-0.5c0-0.1,0-0.2-0.1-0.2L108.6,73L108.6,73z"/>
<path fill="#FFFFFF" d="M26.7,66.8v16.5c0,0-0.2-5.6-4.2-9.4C22.5,73.9,25.2,72.6,26.7,66.8z M27.6,66.8v16.5c0,0,0.2-5.6,4.2-9.4
	C31.8,73.9,29.1,72.6,27.6,66.8z M19.7,57.3c0,0,8.1,3.2,2.6,15.5c0,0,3.7-1.9,3.4-8.5C25.3,57.7,19.7,57.3,19.7,57.3z M28.7,64.3
	c-0.4,6.6,3.4,8.5,3.4,8.5c-5.5-12.2,2.6-15.5,2.6-15.5S29.1,57.7,28.7,64.3z M20,56.1c0,0,6.1,1.8,6.8,7.3c0,0,0-6.9-7.2-11.8
	C19.5,51.6,20,53.5,20,56.1z M34.8,51.6c-7.3,4.9-7.2,11.8-7.2,11.8c0.6-5.5,6.8-7.3,6.8-7.3C34.4,53.5,34.8,51.6,34.8,51.6z
	 M23.6,53.4c0,0,3.3,3.6,3.5,7c0,0,0.2-3.2,3.4-6.9C30.6,53.5,27.1,56.7,23.6,53.4z M21.1,50.6c0,0-2.1-2.1-2.1-3.4
	c0-1.3,0-4.7,0-4.7s-3.7,1.7-4.7,3.6c0,0,3.2,0,3.4,0.3c0,0-0.1-0.8-1.1-1.1c0,0,0.7-1,1.5-1.2l0.1,2.8
	C18.1,46.9,19.4,50.3,21.1,50.6z M36.2,46.9l0.1-2.8c0.7,0.1,1.5,1.2,1.5,1.2c-1,0.3-1.1,1.1-1.1,1.1C36.8,46,40,46,40,46
	c-1-1.9-4.7-3.6-4.7-3.6s0,3.4,0,4.7c0,1.3-2.1,3.4-2.1,3.4C34.9,50.3,36.2,46.9,36.2,46.9z M37.9,57.5c-2.3-0.6-2.4-5.6-2.4-5.6
	c-0.9,2-0.3,6.8-0.1,8.4c0.2,1.6-1.1,6.8-1.1,6.8C38.6,60.2,37.9,57.5,37.9,57.5z M19.9,67c0,0-1.3-5.2-1.1-6.8
	c0.2-1.6,0.8-6.4-0.1-8.4c0,0-0.1,5-2.4,5.6C16.3,57.5,15.7,60.2,19.9,67z M38,48.6c0,0,3.2,7.1,0.6,8.9c0,0,0.3,4.3-2.1,9.2
	c0,0,5.1-7.9,5-9.3C41.5,56,41.7,52.2,38,48.6z M12.8,57.3c0,1.4,5,9.3,5,9.3c-2.4-4.9-2.1-9.2-2.1-9.2c-2.6-1.8,0.6-8.9,0.6-8.9
	C12.7,52.2,12.9,56,12.8,57.3z M15.9,56.2c0.2-0.3,1.5-7.8,1.5-7.8C14.6,51.3,15.7,56.4,15.9,56.2z M37,48.4c0,0,1.4,7.5,1.5,7.8
	C38.7,56.4,39.7,51.3,37,48.4z M37.9,56.3c-0.2-0.9-1.2-7.7-1.2-7.7C34.6,52.3,38,57.2,37.9,56.3z M17.7,48.5c0,0-1.1,6.9-1.2,7.7
	C16.3,57.2,19.7,52.3,17.7,48.5z M10.9,53c-0.3,6.2,0.7,8,0.7,8c-0.4-7.6,4.6-13.1,4.6-13.1C13.3,49.3,10.9,53,10.9,53z M38.1,47.9
	c0,0,5.1,5.4,4.6,13.1c0,0,1-1.8,0.7-8C43.5,53,41.1,49.3,38.1,47.9z M25.2,44.8c2.6-0.8,3.1,0.1,4,2.9c0.8,2.8,2.1,2,2.1,2
	c-1.7-0.8-1.6-3.9-1.6-3.9s-1.2-3.1-3.9-2.7c-2.7,0.4-3.2,2.9-3.2,2.9c1.8-0.9,2.7-0.1,2.4,1.4c-0.3,1.4-2.1,2.6-2.1,2.6
	C28,48.8,25.2,44.8,25.2,44.8z M22.3,49.8c0,0-3-5.7,0.4-10.1c0,0-13.4,1.5-15.5,17.9c0,0,1.9-4.2,4.9-6.9l-0.6-0.1
	c0,0-0.4-1.6,4.8-4c0,0-1.4-0.2-3.4,0.5c0,0,1.8-3.7,6.8-5.5C19.8,41.6,18.7,49.7,22.3,49.8z M34.8,41.6c5,1.8,6.8,5.5,6.8,5.5
	c-2-0.7-3.4-0.5-3.4-0.5c5.2,2.4,4.8,4,4.8,4l-0.6,0.1c3,2.7,4.9,6.9,4.9,6.9c-2-16.4-15.5-17.9-15.5-17.9
	c3.4,4.4,0.4,10.1,0.4,10.1C35.8,49.7,34.8,41.6,34.8,41.6z M26.3,45.8c0,0,1.7,5.3-4.2,5.2c0,0-0.3,0.6,1.8,0.6
	c0,0-0.5,0.7-0.9,0.7l1.6,0c0,0-0.2,0.5-0.5,0.5c0,0,1.5,0.1,1.7-0.1c0,0,0.3,0.3-0.2,0.7c0,0,0.8,0.1,1.3-0.7c0,0,0.6,0.8,1.5,0.8
	c0,0-0.5-0.6-0.3-0.8c0,0,0.8,0.5,1.7,0.4c0,0-0.6-0.5-0.4-0.8c0,0,1.1,0.3,1.4,0.2c0,0-0.7-0.5-0.5-0.7c0,0,1.1,0.3,1.7-0.7
	c0,0-2.7,0.6-3.3-2.3C28.1,45.9,27,46,26.3,45.8z"/>
</svg>
