<svg xmlns="http://www.w3.org/2000/svg" viewBox="0 0 565.852 267.329">
<rect fill="#0067c6" width="565.852" height="267.329"/>
	<path fill="#FFFFFF" d="M291.829,67.651c-0.165,0.936-0.495,1.403-0.99,1.403H279.2l-3.549,18.984c0,0.221-0.055,0.33-0.165,0.33
		h-16.013c-0.055,0-0.111-0.096-0.165-0.289c-0.056-0.193-0.083-0.399-0.083-0.619l3.467-18.406h-10.977
		c-0.276,0-0.469-0.124-0.578-0.372c-0.111-0.248-0.165-0.536-0.165-0.867v-0.743l0.578-2.559c0.054-0.991,0.412-1.486,1.073-1.486
		h39.041c0.219,0,0.398,0.124,0.537,0.371c0.137,0.248,0.206,0.537,0.206,0.867v0.413c0,0.165-0.028,0.303-0.082,0.412
		L291.829,67.651z M268.965,123.861c-0.111,0.99-0.468,1.486-1.073,1.486h-14.61c-0.441,0-0.689-0.413-0.743-1.238
		c0-0.384,0.028-0.66,0.083-0.825l4.374-23.194c0-0.165,5.365-0.248,16.095-0.248c0.11,0,0.165,0.221,0.165,0.661v0.165
		L268.965,123.861z M276.641,95.715c-0.055,0.936-0.413,1.403-1.073,1.403h-19.314c-0.495,0-0.771-0.44-0.826-1.321
		c0-0.11,0.013-0.248,0.041-0.413c0.027-0.165,0.068-0.384,0.124-0.66l0.495-2.311c0.165-0.879,0.522-1.321,1.073-1.321h19.397
		c0.439,0,0.66,0.495,0.66,1.486c0,0.276-0.028,0.495-0.082,0.661h0.082L276.641,95.715z M283.327,125.347
		c-0.385,0-0.578-0.275-0.578-0.826c0-0.165,0.015-0.33,0.041-0.495c0.029-0.165,0.069-0.384,0.124-0.66l13.206-62.895
		c0.275-1.266,0.687-1.899,1.238-1.899h18.737c0.384,0,0.578,0.33,0.578,0.991c0,0.881-0.138,1.582-0.413,2.105
		c-0.276,0.523-0.523,0.84-0.743,0.949l-19.892,13.371c-0.441,0.276-0.73,0.675-0.866,1.197c-0.138,0.524-0.206,1.114-0.206,1.775
		c0,0.495,0.109,0.743,0.33,0.743c0.219,0,0.44-0.11,0.661-0.33l9.41-5.86c0.495,0,0.743,0.33,0.743,0.99
		c0,0.386-0.082,0.854-0.247,1.403l-8.997,42.838c-0.055,0.276-0.082,0.606-0.082,0.99c0,0.606,0.192,0.908,0.578,0.908h11.225
		c0.11,0,0.165,0.138,0.165,0.412v0.578l-0.661,2.724c-0.111,0.66-0.276,0.99-0.495,0.99H283.327z M308.253,125.347
		c-2.035,0-3.054-1.54-3.054-4.622c0-0.714,0.055-1.486,0.165-2.311c0.111-0.826,0.276-1.76,0.495-2.807l10.07-47.956
		c0.219-1.265,0.687-2.035,1.403-2.311l10.565-2.888c0.77,0,1.155,0.606,1.155,1.816c0,0.55-0.082,1.238-0.247,2.063l-2.146,10.317
		h5.035c0.33,0,0.495,0.276,0.495,0.826c0,0.165,0,0.344,0,0.536c0,0.194-0.028,0.4-0.082,0.619l-0.165,0.908
		c-0.276,1.321-0.716,1.981-1.32,1.981h-4.953l-7.016,33.346c-0.111,0.606-0.206,1.155-0.289,1.651
		c-0.082,0.495-0.124,0.963-0.124,1.403c0,1.816,0.605,2.724,1.816,2.724h9.905c0.11,0,0.165,0.138,0.165,0.412l-0.578,3.302
		c-0.165,0.66-0.359,0.99-0.578,0.99H308.253z M330.373,125.347c-2.642,0-3.962-1.486-3.962-4.457c0-3.576,0.881-7.373,2.641-11.39
		l6.191-14.279c0.495-1.21,0.976-2.105,1.444-2.683c0.467-0.578,1.059-0.867,1.774-0.867h8.75c0.714,0,1.073,0.386,1.073,1.155
		c0,0.606-0.194,1.376-0.578,2.311l-8.996,20.8c-0.495,1.431-0.743,2.532-0.743,3.301c0,0.936,0.33,1.403,0.99,1.403h5.448
		c0.605,0,1.045-0.632,1.321-1.898l6.521-31.613c0.274-1.375,0.412-2.448,0.412-3.219c0-1.705-0.578-2.559-1.734-2.559h-11.638
		c-0.165,0-0.247-0.137-0.247-0.413c0-0.054,0.013-0.137,0.041-0.248c0.027-0.11,0.041-0.219,0.041-0.33l0.578-2.724
		c0.054-0.66,0.248-0.99,0.578-0.99h22.451c1.981,0,2.972,1.514,2.972,4.54c0,1.267-0.221,3-0.661,5.2l-6.768,32.356
		c-0.055,0.276-0.083,0.606-0.083,0.99c0,0.606,0.193,0.908,0.578,0.908h9.41c0.165,0,0.247,0.194,0.247,0.578l-0.578,3.137
		c-0.165,0.66-0.386,0.99-0.661,0.99H330.373z M385.59,125.347c-0.385,0-0.578-0.275-0.578-0.826c0-0.165,0.013-0.33,0.041-0.495
		c0.027-0.165,0.068-0.384,0.124-0.66l6.273-29.962c0.054-0.275,0.095-0.495,0.124-0.661c0.027-0.165,0.041-0.33,0.041-0.495
		c0-0.44-0.111-0.661-0.33-0.661c-0.22,0-0.523,0.413-0.908,1.238l-13.619,29.962c-0.826,1.706-1.706,2.559-2.642,2.559h-8.254
		c-0.385,0-0.578-0.275-0.578-0.826c0-0.165,0.015-0.33,0.041-0.495c0.029-0.165,0.069-0.384,0.124-0.66l9.41-44.737
		c0.219-1.32,0.632-1.981,1.238-1.981h9.987c0.77,0,1.156,0.606,1.156,1.816c0,0.551-0.083,1.238-0.248,2.063l-5.282,25.175
		l11.06-23.854c1.705-3.467,3.411-5.2,5.117-5.2h7.016c1.21,0,1.816,0.936,1.816,2.806c0,0.441-0.041,0.908-0.124,1.403
		c-0.082,0.495-0.179,1.046-0.289,1.651l-7.594,36.235c-0.055,0.276-0.082,0.606-0.082,0.99c0,0.606,0.192,0.908,0.578,0.908h9.822
		c0.165,0,0.247,0.194,0.247,0.578l-0.578,3.137c-0.165,0.66-0.386,0.99-0.66,0.99H385.59z M406.142,125.347
		c-0.384,0-0.578-0.275-0.578-0.826c0-0.165,0.015-0.33,0.041-0.495c0.029-0.165,0.069-0.384,0.124-0.66l13.206-62.895
		c0.275-1.266,0.687-1.899,1.238-1.899h18.737c0.384,0,0.578,0.33,0.578,0.991c0,0.881-0.138,1.582-0.413,2.105
		c-0.276,0.523-0.523,0.84-0.743,0.949L418.44,75.988c-0.441,0.276-0.73,0.675-0.867,1.197c-0.138,0.524-0.206,1.114-0.206,1.775
		c0,0.495,0.109,0.743,0.33,0.743c0.219,0,0.44-0.11,0.661-0.33l9.41-5.86c0.495,0,0.743,0.33,0.743,0.99
		c0,0.386-0.082,0.854-0.247,1.403l-8.997,42.838c-0.055,0.276-0.082,0.606-0.082,0.99c0,0.606,0.192,0.908,0.578,0.908h11.225
		c0.11,0,0.165,0.138,0.165,0.412v0.578l-0.66,2.724c-0.111,0.66-0.276,0.99-0.495,0.99H406.142z M448.649,76.648
		c0.33,0,0.495,0.276,0.495,0.826c0,0.165,0,0.344,0,0.536c0,0.194-0.029,0.4-0.082,0.619l-6.273,29.962
		c-0.055,0.276-0.097,0.51-0.124,0.702c-0.029,0.193-0.041,0.344-0.041,0.454c0,0.495,0.082,0.743,0.247,0.743
		c0.275,0,0.578-0.44,0.908-1.32l11.804-25.918c1.98-4.401,4.099-6.603,6.355-6.603h6.356c0.384,0,0.578,0.33,0.578,0.99
		c0,0.386-0.029,0.716-0.082,0.991l-8.172,38.794c-0.111,0.33-0.165,0.633-0.165,0.908c0,0.276,0,0.524,0,0.743
		c0,1.046,0.33,1.568,0.991,1.568h9.244c0.44,0,0.661,0.303,0.661,0.908c0,0.165-0.055,0.523-0.165,1.073l-0.165,0.743
		c-0.33,1.32-0.771,1.981-1.32,1.981h-21.543c-0.826,0-1.238-0.632-1.238-1.898c0-0.55,0.082-1.21,0.247-1.981l5.365-25.175
		l-9.492,20.883c-2.806,5.448-5.53,8.171-8.171,8.171h-5.53c-1.266,0-1.899-0.935-1.899-2.807c0-0.439,0.042-0.908,0.124-1.403
		c0.083-0.495,0.179-1.044,0.289-1.651l8.667-40.857c0.219-1.32,0.632-1.981,1.238-1.981H448.649z M507.664,125.347
		c-0.385,0-0.578-0.33-0.578-0.99c0-0.384,0.027-0.715,0.083-0.991l6.355-29.962c0.054-0.275,0.095-0.508,0.124-0.702
		c0.027-0.192,0.042-0.343,0.042-0.454c0-0.44-0.083-0.661-0.248-0.661c-0.276,0-0.606,0.413-0.99,1.238l-13.619,29.962
		c-0.826,1.706-1.707,2.559-2.641,2.559h-8.254c-0.385,0-0.578-0.275-0.578-0.826c0-0.165,0.013-0.33,0.041-0.495
		c0.027-0.165,0.068-0.384,0.124-0.66l6.273-29.962c0.054-0.275,0.095-0.495,0.124-0.661c0.027-0.165,0.042-0.33,0.042-0.495
		c0-0.44-0.111-0.661-0.33-0.661c-0.221,0-0.523,0.413-0.908,1.238l-13.619,29.962c-0.826,1.706-1.706,2.559-2.641,2.559h-8.254
		c-0.385,0-0.578-0.275-0.578-0.826c0-0.165,0.015-0.33,0.041-0.495c0.029-0.165,0.069-0.384,0.124-0.66l9.41-44.737
		c0.22-1.32,0.632-1.981,1.238-1.981h9.987c0.77,0,1.156,0.606,1.156,1.816c0,0.551-0.083,1.238-0.248,2.063l-5.282,25.175
		l11.06-23.854c1.705-3.467,3.411-5.2,5.117-5.2h7.016c1.21,0,1.816,0.936,1.816,2.806c0,0.441-0.041,0.908-0.124,1.403
		c-0.082,0.495-0.179,1.046-0.289,1.651l-4.87,23.194l11.06-23.854c1.705-3.467,3.384-5.2,5.035-5.2h7.098
		c1.21,0,1.816,0.936,1.816,2.806c0,0.441-0.041,0.908-0.124,1.403c-0.082,0.495-0.179,1.046-0.289,1.651l-7.594,36.235
		c-0.056,0.276-0.082,0.606-0.082,0.99c0,0.606,0.192,0.908,0.578,0.908h9.904c0.11,0,0.165,0.138,0.165,0.412v0.578l-0.66,2.724
		c-0.111,0.66-0.303,0.99-0.578,0.99H507.664z M267.397,207.33c-0.112,0.99-0.468,1.486-1.073,1.486h-14.527
		c-0.549,0-0.825-0.413-0.825-1.238c0-0.384,0.028-0.66,0.082-0.825l4.292-23.359c0.054-0.054,5.448-0.083,16.178-0.083
		c0.11,0,0.166,0.138,0.166,0.413v0.413L267.397,207.33z M297.772,179.183c-0.056,0.936-0.386,1.403-0.991,1.403h-41.022
		c-0.441,0-0.689-0.44-0.743-1.321c0-0.054,0.013-0.178,0.041-0.372c0.027-0.192,0.041-0.425,0.041-0.701l0.495-2.311
		c0.165-0.879,0.522-1.321,1.073-1.321h41.022c0.495,0,0.743,0.551,0.743,1.651c0,0.111-0.015,0.193-0.041,0.247
		c-0.029,0.055-0.042,0.138-0.042,0.248L297.772,179.183z M285.556,171.838c-0.111,0-0.166-0.219-0.166-0.66
		c0-0.549,0.249-1.403,0.743-2.559c0.495-1.155,0.853-2.366,1.072-3.632l0.826-4.788v0.083c0.165-0.715,0.274-1.389,0.33-2.022
		c0.054-0.632,0.082-1.168,0.082-1.609c-0.055-1.486-0.317-2.545-0.784-3.178c-0.468-0.632-1.06-0.949-1.774-0.949h-8.254
		l-3.549,18.984c0,0.111-0.124,0.179-0.372,0.207c-0.247,0.028-0.715,0.069-1.403,0.124c-0.69,0.055-1.638,0.082-2.848,0.082
		c-1.211,0-2.807,0-4.787,0c-0.826,0-1.651-0.013-2.476-0.041c-0.826-0.027-1.568-0.068-2.228-0.124
		c-0.661-0.054-1.211-0.124-1.651-0.206c-0.441-0.083-0.66-0.207-0.66-0.372c0-0.054,0.013-0.095,0.041-0.124
		c0.027-0.027,0.041-0.068,0.041-0.124l4.292-22.946c0.054-0.991,0.412-1.486,1.073-1.486h34.749c4.072,0,6.274,3.247,6.604,9.74
		c0.054,0.276,0.082,0.523,0.082,0.743c0,0.221,0.028,0.386,0.083,0.495c-0.055,1.102-0.123,2.146-0.206,3.137
		c-0.083,0.99-0.207,1.954-0.372,2.889v-0.083c-0.606,3.137-1.514,5.943-2.724,8.419H285.556z M301.403,207.577
		c-0.166,0.826-0.524,1.238-1.074,1.238h-15.435c-0.33,0-0.524-0.247-0.578-0.743l-7.346-23.771
		c-0.111-0.11-0.165-0.302-0.165-0.578c0-0.274,0.082-0.413,0.247-0.413h16.756l7.594,22.698V207.577z M340.031,194.701
		c-0.991,4.733-2.27,8.268-3.839,10.606c-1.568,2.34-3.507,3.508-5.819,3.508h-20.386c-3.137,0-4.705-2.228-4.705-6.686
		c0-1.981,0.33-4.457,0.991-7.429l4.292-20.47c0.991-4.732,2.269-8.267,3.838-10.606c1.568-2.338,3.508-3.508,5.819-3.508h20.305
		c3.137,0,4.705,2.257,4.705,6.768c0,1.046-0.083,2.175-0.249,3.384c-0.165,1.211-0.385,2.532-0.659,3.962L340.031,194.701z
		 M317.662,200.314c-0.164,0.826-0.247,1.486-0.247,1.981c0,1.102,0.357,1.651,1.074,1.651h5.365c1.101,0,1.899-1.21,2.394-3.632
		l6.686-31.695c0.054-0.384,0.095-0.714,0.124-0.991c0.027-0.274,0.042-0.549,0.042-0.825c0-1.21-0.359-1.816-1.074-1.816h-5.365
		c-1.047,0-1.816,1.211-2.312,3.632L317.662,200.314z M365.893,208.815h-25.12c-0.385,0-0.578-0.33-0.578-0.99
		c0-0.384,0.028-0.715,0.082-0.991l11.721-55.714c0.274-1.265,0.742-2.035,1.403-2.311l10.565-2.888c0.77,0,1.155,0.606,1.155,1.816
		c0,0.55-0.082,1.238-0.247,2.063l-2.146,10.317h19.562c1.539,0,2.311,0.963,2.311,2.889L365.893,208.815z M353.896,202.212
		c-0.055,0.276-0.082,0.606-0.082,0.99c0,0.606,0.191,0.908,0.578,0.908h1.238l15.435-35.492c0.274-1.1,0.412-1.87,0.412-2.311
		c0-0.879-0.329-1.32-0.99-1.32h-7.924c-0.607,0-1.019,0.66-1.238,1.981L353.896,202.212z M413.362,194.701
		c-0.991,4.733-2.27,8.268-3.839,10.606c-1.568,2.34-3.507,3.508-5.819,3.508h-20.386c-3.137,0-4.705-2.228-4.705-6.686
		c0-1.981,0.33-4.457,0.991-7.429l4.292-20.47c0.991-4.732,2.269-8.267,3.838-10.606c1.568-2.338,3.509-3.508,5.819-3.508h20.305
		c3.137,0,4.705,2.257,4.705,6.768c0,1.046-0.083,2.175-0.249,3.384c-0.165,1.211-0.385,2.532-0.659,3.962L413.362,194.701z
		 M390.993,200.314c-0.165,0.826-0.247,1.486-0.247,1.981c0,1.102,0.357,1.651,1.074,1.651h5.365c1.101,0,1.899-1.21,2.394-3.632
		l6.686-31.695c0.054-0.384,0.095-0.714,0.124-0.991c0.027-0.274,0.042-0.549,0.042-0.825c0-1.21-0.359-1.816-1.074-1.816h-5.365
		c-1.047,0-1.816,1.211-2.312,3.632L390.993,200.314z M418.066,208.815c-2.035,0-3.054-1.54-3.054-4.622
		c0-0.714,0.055-1.486,0.165-2.311c0.111-0.826,0.276-1.76,0.495-2.807l10.07-47.956c0.22-1.265,0.687-2.035,1.404-2.311
		l10.565-2.888c0.77,0,1.155,0.606,1.155,1.816c0,0.55-0.083,1.238-0.247,2.063l-2.146,10.317h5.034c0.33,0,0.496,0.276,0.496,0.826
		c0,0.165,0,0.344,0,0.536c0,0.194-0.029,0.4-0.083,0.619l-0.166,0.908c-0.275,1.321-0.715,1.981-1.32,1.981h-4.953l-7.016,33.346
		c-0.111,0.606-0.206,1.155-0.289,1.651c-0.082,0.495-0.123,0.963-0.123,1.403c0,1.816,0.605,2.724,1.816,2.724h9.904
		c0.11,0,0.165,0.138,0.165,0.412l-0.578,3.302c-0.165,0.66-0.358,0.99-0.578,0.99H418.066z M436.719,208.815
		c-0.384,0-0.578-0.275-0.578-0.826c0-0.165,0.015-0.33,0.041-0.495c0.028-0.165,0.069-0.385,0.124-0.66l13.206-62.895
		c0.274-1.266,0.687-1.899,1.238-1.899h18.736c0.385,0,0.578,0.33,0.578,0.991c0,0.881-0.138,1.582-0.412,2.105
		c-0.276,0.523-0.524,0.84-0.743,0.949l-19.892,13.371c-0.441,0.276-0.73,0.675-0.866,1.197c-0.139,0.524-0.207,1.114-0.207,1.775
		c0,0.495,0.11,0.743,0.33,0.743c0.219,0,0.44-0.11,0.661-0.33l9.41-5.86c0.495,0,0.743,0.33,0.743,0.99
		c0,0.386-0.083,0.854-0.249,1.403l-8.996,42.838c-0.056,0.276-0.083,0.606-0.083,0.99c0,0.606,0.193,0.908,0.578,0.908h11.225
		c0.11,0,0.166,0.138,0.166,0.412v0.578l-0.66,2.724c-0.111,0.66-0.277,0.99-0.495,0.99H436.719z M471.715,200.314
		c-0.165,0.826-0.247,1.486-0.247,1.981c0,1.102,0.357,1.651,1.074,1.651h5.365c1.1,0,1.899-1.21,2.393-3.632l0.661-3.301
		c0.274-1.265,0.714-1.899,1.321-1.899h10.895c0.33,0,0.495,0.248,0.495,0.743c0,0.33-0.028,0.606-0.083,0.826
		c-1.927,8.089-4.981,12.133-9.162,12.133H464.04c-3.137,0-4.705-2.228-4.705-6.686c0-1.981,0.33-4.457,0.991-7.429l4.292-20.47
		c0.991-4.732,2.269-8.267,3.838-10.606c1.568-2.338,3.509-3.508,5.819-3.508h20.305c3.137,0,4.705,2.257,4.705,6.768
		c0,0.991-0.07,2.105-0.207,3.343c-0.138,1.238-0.372,2.573-0.701,4.003l-0.991,4.374c-0.33,1.321-0.743,1.981-1.238,1.981h-10.814
		c-0.385,0-0.578-0.33-0.578-0.99c0-0.385,0.028-0.715,0.083-0.991l2.146-9.987c0.054-0.384,0.095-0.714,0.124-0.991
		c0.027-0.274,0.041-0.549,0.041-0.825c0-1.21-0.359-1.816-1.074-1.816h-5.365c-1.047,0-1.816,1.211-2.312,3.632L471.715,200.314z
		 M499.531,186.695c-0.66,0-0.991-0.522-0.991-1.568c0-0.219,0-0.467,0-0.743c0-0.275,0.055-0.578,0.166-0.908l1.98-9.244
		c0.991-4.732,2.27-8.267,3.839-10.606c1.567-2.338,3.507-3.508,5.818-3.508h21.626c0.33,0,0.496,0.276,0.496,0.826
		c0,0.165,0,0.344,0,0.536c0,0.194-0.029,0.4-0.083,0.619l-0.247,1.155c-0.276,1.156-0.688,1.734-1.238,1.734h-14.032
		c-1.102,0-1.899,1.211-2.394,3.632l-2.394,11.308c-0.056,0.276-0.083,0.606-0.083,0.991c0,0.606,0.193,0.908,0.578,0.908h15.518
		c0.661,0,0.991,0.551,0.991,1.651c0,0.221-0.015,0.468-0.041,0.743c-0.028,0.276-0.069,0.551-0.124,0.826l-2.063,9.657
		c-0.991,4.733-2.269,8.268-3.838,10.606c-1.568,2.34-3.509,3.508-5.819,3.508h-26.908c-0.385,0-0.579-0.27-0.579-0.811
		c0-0.163,0.015-0.324,0.041-0.486c0.029-0.162,0.07-0.379,0.124-0.65l0.165-1.135c0.111-0.54,0.276-0.945,0.496-1.216
		c0.221-0.271,0.468-0.406,0.742-0.406h19.397c1.1,0,1.899-1.188,2.395-3.566l2.145-10.532c0.219-0.885,0.33-1.658,0.33-2.322
		c0-0.663-0.165-0.995-0.495-0.995H499.531z"/>
	<path fill="#FFFFFF" d="M122.898,158.171v75.771c0,0-1.148-25.867-19.543-43.109C103.355,190.833,115.999,184.61,122.898,158.171z
		 M126.922,158.171v75.771c0,0,1.15-25.867,19.542-43.109C146.464,190.833,133.819,184.61,126.922,158.171z M90.709,114.385
		c0,0,37.363,14.945,12.071,71.273c0,0,17.243-8.622,15.519-39.085C116.576,116.109,90.709,114.385,90.709,114.385z
		 M132.216,146.573c-1.725,30.464,15.519,39.085,15.519,39.085c-25.29-56.329,12.072-71.273,12.072-71.273
		S133.941,116.109,132.216,146.573z M92.137,108.712c0,0,28.178,8.315,31.125,33.731c0,0,0.183-31.705-33.335-54.174
		C89.928,88.269,91.953,96.925,92.137,108.712z M160.28,88.269c-33.518,22.469-33.335,54.174-33.335,54.174
		c2.948-25.416,31.125-33.731,31.125-33.731C158.255,96.925,160.28,88.269,160.28,88.269z M108.713,96.373
		c0,0,15.286,16.392,16.208,32.229c0,0,0.735-14.733,15.653-31.677C140.574,96.925,124.552,111.659,108.713,96.373z M97.11,83.482
		c0,0-9.576-9.761-9.576-15.839c0-6.077,0-21.731,0-21.731S70.59,53.646,65.802,62.486c0,0,14.733-0.184,15.469,1.473
		c0,0-0.368-3.683-4.973-5.157c0,0,3.359-4.787,6.675-5.34l0.302,13.076C83.276,66.538,89.191,82.008,97.11,83.482z M166.358,66.538
		l0.303-13.076c3.314,0.553,6.675,5.34,6.675,5.34c-4.605,1.474-4.974,5.157-4.974,5.157c0.737-1.657,15.471-1.473,15.471-1.473
		c-4.788-8.84-21.733-16.575-21.733-16.575s0,15.654,0,21.731c0,6.078-9.577,15.839-9.577,15.839
		C160.442,82.008,166.358,66.538,166.358,66.538z M174.462,115.158c-10.681-2.762-11.236-25.6-11.236-25.6
		c-4.051,9.209-1.288,31.309-0.368,38.491c0.923,7.183-4.973,31.125-4.973,31.125C177.41,127.498,174.462,115.158,174.462,115.158z
		 M91.744,159.174c0,0-5.894-23.941-4.973-31.125c0.921-7.182,3.683-29.282-0.369-38.491c0,0-0.552,22.838-11.235,25.6
		C75.168,115.158,72.222,127.498,91.744,159.174z M174.644,74.09c0,0,14.733,32.598,2.761,40.886c0,0,1.291,19.706-9.577,42.174
		c0,0,23.392-36.465,23.207-42.727C190.851,108.16,191.773,90.848,174.644,74.09z M58.987,114.422
		c-0.184,6.262,23.205,42.727,23.205,42.727c-10.866-22.468-9.576-42.174-9.576-42.174c-11.971-8.288,2.763-40.886,2.763-40.886
		C58.251,90.848,59.171,108.16,58.987,114.422z M72.985,109.081c0.736-1.288,6.997-35.729,6.997-35.729
		C67.275,86.613,72.247,110.371,72.985,109.081z M170.128,73.352c0,0,6.261,34.44,6.998,35.729
		C177.861,110.371,182.837,86.613,170.128,73.352z M174.278,109.634c-0.737-4.051-5.733-35.566-5.733-35.566
		C159.154,91.379,175.015,113.685,174.278,109.634z M81.389,74.067c0,0-4.995,31.515-5.732,35.566
		C74.921,113.685,90.781,91.379,81.389,74.067z M49.963,94.531c-1.474,28.732,3.314,36.836,3.314,36.836
		c-2.026-35.177,21.365-60.04,21.365-60.04C61.014,77.404,49.963,94.531,49.963,94.531z M175.285,71.327
		c0,0,23.389,24.863,21.364,60.04c0,0,4.788-8.104,3.315-36.836C199.964,94.531,188.914,77.404,175.285,71.327z M116.08,56.755
		c12.155-3.476,14.363,0.574,18.232,13.283c3.867,12.706,9.762,9.023,9.762,9.023c-7.92-3.683-7.184-17.863-7.184-17.863
		s-5.525-14.182-18.049-12.34c-12.522,1.842-14.549,13.261-14.549,13.261c8.104-4.237,12.34-0.369,11.051,6.261
		c-1.29,6.629-9.577,11.787-9.577,11.787C128.785,75.379,116.08,56.755,116.08,56.755z M102.451,79.799
		c0,0-13.813-26.336,2.026-46.411c0,0-61.697,6.815-71.09,82.325c0,0,8.84-19.338,22.653-31.861l-2.947-0.369
		c0,0-1.657-7.367,22.285-18.233c0,0-6.631-0.737-15.655,2.395c0,0,8.125-17.15,31.147-25.438
		C90.871,42.206,85.876,79.431,102.451,79.799z M159.891,42.206c23.021,8.287,31.146,25.438,31.146,25.438
		c-9.025-3.132-15.655-2.395-15.655-2.395c23.942,10.866,22.284,18.233,22.284,18.233l-2.945,0.369
		c13.811,12.524,22.652,31.861,22.652,31.861c-9.394-75.51-71.089-82.325-71.089-82.325c15.839,20.075,2.026,46.411,2.026,46.411
		C164.886,79.431,159.891,42.206,159.891,42.206z M120.867,61.553c0,0,7.842,24.228-19.523,24.054c0,0-1.221,2.963,8.366,2.615
		c0,0-2.092,3.137-4.009,3.137l7.322,0.174c0,0-0.873,2.266-2.267,2.44c0,0,6.973,0.348,7.844-0.523c0,0,1.221,1.569-1.045,3.139
		c0,0,3.836,0.522,6.101-3.139c0,0,2.616,3.487,6.971,3.661c0,0-2.092-2.789-1.393-3.661c0,0,3.659,2.44,7.668,1.743
		c0,0-2.963-2.09-1.742-3.835c0,0,5.054,1.569,6.275,0.697c0,0-3.313-2.092-2.094-3.311c0,0,5.23,1.219,7.845-3.312
		c0,0-12.549,2.789-15.339-10.458C129.057,61.727,124.003,62.25,120.867,61.553z"/>
</svg>