<?xml version="1.0" encoding="utf-8"?>
<!-- Generator: Adobe Illustrator 15.0.2, SVG Export Plug-In . SVG Version: 6.00 Build 0)  -->
<!DOCTYPE svg PUBLIC "-//W3C//DTD SVG 1.1 Basic//EN" "http://www.w3.org/Graphics/SVG/1.1/DTD/svg11-basic.dtd">
<svg version="1.1" baseProfile="basic" id="Layer_1"
	 xmlns="http://www.w3.org/2000/svg" xmlns:xlink="http://www.w3.org/1999/xlink" x="0px" y="0px" width="612px" height="792px"
	 viewBox="0 0 612 792" xml:space="preserve">
<g>
	<path fill="#F1F2F2" d="M52.005,153.993c-0.072,0.413-0.218,0.618-0.436,0.618h-5.126l-1.563,8.362
		c0,0.097-0.024,0.145-0.073,0.145h-7.053c-0.024,0-0.049-0.042-0.073-0.126c-0.024-0.085-0.037-0.176-0.037-0.273l1.527-8.107
		h-4.835c-0.121,0-0.206-0.055-0.254-0.164c-0.049-0.108-0.073-0.236-0.073-0.381v-0.327l0.255-1.126
		c0.023-0.437,0.182-0.655,0.473-0.655h17.196c0.096,0,0.175,0.055,0.236,0.164c0.061,0.109,0.09,0.236,0.09,0.382v0.182
		c0,0.073-0.012,0.133-0.036,0.182L52.005,153.993z M41.935,178.751c-0.048,0.437-0.206,0.654-0.472,0.654h-6.435
		c-0.194,0-0.303-0.182-0.327-0.545c0-0.169,0.012-0.291,0.037-0.363l1.927-10.216c0-0.072,2.363-0.109,7.089-0.109
		c0.048,0,0.072,0.097,0.072,0.291v0.073L41.935,178.751z M45.316,166.354c-0.024,0.413-0.182,0.619-0.473,0.619h-8.507
		c-0.219,0-0.34-0.194-0.364-0.582c0-0.048,0.006-0.109,0.018-0.182c0.012-0.072,0.03-0.169,0.055-0.291l0.218-1.018
		c0.073-0.387,0.23-0.582,0.472-0.582h8.543c0.194,0,0.291,0.218,0.291,0.655c0,0.122-0.012,0.218-0.036,0.291h0.036L45.316,166.354
		z"/>
	<path fill="#F1F2F2" d="M48.261,179.406c-0.169,0-0.255-0.121-0.255-0.364c0-0.072,0.006-0.145,0.019-0.218s0.03-0.169,0.054-0.291
		l5.817-27.703c0.122-0.558,0.303-0.836,0.545-0.836h8.252c0.17,0,0.255,0.146,0.255,0.437c0,0.388-0.061,0.697-0.182,0.927
		c-0.122,0.23-0.23,0.37-0.328,0.417l-8.762,5.89c-0.194,0.122-0.321,0.297-0.381,0.527c-0.061,0.231-0.091,0.491-0.091,0.782
		c0,0.218,0.049,0.327,0.146,0.327c0.096,0,0.193-0.048,0.291-0.146l4.145-2.581c0.218,0,0.327,0.145,0.327,0.436
		c0,0.17-0.037,0.376-0.109,0.618l-3.963,18.869c-0.024,0.121-0.036,0.267-0.036,0.436c0,0.267,0.084,0.4,0.254,0.4h4.944
		c0.048,0,0.073,0.061,0.073,0.182v0.254l-0.292,1.2c-0.048,0.291-0.121,0.436-0.218,0.436H48.261z"/>
	<path fill="#F1F2F2" d="M59.24,179.406c-0.897,0-1.346-0.678-1.346-2.036c0-0.314,0.025-0.654,0.073-1.018s0.121-0.775,0.218-1.236
		l4.436-21.123c0.096-0.557,0.303-0.896,0.618-1.018l4.653-1.272c0.339,0,0.51,0.267,0.51,0.8c0,0.242-0.037,0.545-0.109,0.909
		l-0.945,4.544h2.218c0.145,0,0.218,0.122,0.218,0.364c0,0.072,0,0.152,0,0.236c0,0.085-0.012,0.176-0.036,0.273l-0.072,0.4
		c-0.122,0.582-0.316,0.873-0.582,0.873H66.91l-3.09,14.688c-0.049,0.267-0.091,0.509-0.127,0.728
		c-0.036,0.218-0.055,0.424-0.055,0.618c0,0.8,0.267,1.2,0.8,1.2h4.363c0.048,0,0.073,0.061,0.073,0.182l-0.254,1.455
		c-0.073,0.291-0.158,0.436-0.254,0.436H59.24z"/>
	<path fill="#F1F2F2" d="M68.983,179.406c-1.164,0-1.746-0.654-1.746-1.963c0-1.575,0.388-3.248,1.163-5.017l2.728-6.29
		c0.218-0.533,0.43-0.927,0.636-1.182s0.466-0.382,0.782-0.382h3.854c0.315,0,0.473,0.17,0.473,0.51
		c0,0.267-0.085,0.606-0.255,1.018l-3.962,9.162c-0.219,0.63-0.327,1.115-0.327,1.454c0,0.412,0.145,0.618,0.436,0.618h2.399
		c0.267,0,0.46-0.278,0.582-0.836l2.872-13.924c0.121-0.605,0.182-1.078,0.182-1.417c0-0.751-0.255-1.127-0.764-1.127h-5.126
		c-0.073,0-0.109-0.06-0.109-0.182c0-0.024,0.006-0.061,0.018-0.109c0.012-0.048,0.019-0.096,0.019-0.146l0.254-1.2
		c0.024-0.291,0.109-0.436,0.254-0.436h9.889c0.873,0,1.309,0.667,1.309,2c0,0.558-0.098,1.321-0.291,2.29l-2.981,14.251
		c-0.024,0.121-0.037,0.267-0.037,0.436c0,0.267,0.085,0.4,0.255,0.4h4.144c0.073,0,0.109,0.085,0.109,0.254l-0.254,1.382
		c-0.073,0.291-0.17,0.436-0.291,0.436H68.983z"/>
	<path fill="#F1F2F2" d="M93.304,179.406c-0.169,0-0.254-0.121-0.254-0.364c0-0.072,0.006-0.145,0.018-0.218s0.03-0.169,0.055-0.291
		l2.763-13.197c0.024-0.122,0.042-0.218,0.054-0.291c0.012-0.073,0.019-0.146,0.019-0.218c0-0.194-0.049-0.292-0.146-0.292
		c-0.098,0-0.23,0.182-0.4,0.546l-5.998,13.197c-0.364,0.751-0.752,1.127-1.164,1.127h-3.635c-0.17,0-0.255-0.121-0.255-0.364
		c0-0.072,0.006-0.145,0.018-0.218c0.013-0.073,0.031-0.169,0.055-0.291l4.144-19.705c0.097-0.582,0.279-0.873,0.546-0.873h4.399
		c0.339,0,0.509,0.267,0.509,0.799c0,0.243-0.037,0.546-0.109,0.909l-2.327,11.088l4.872-10.506
		c0.751-1.527,1.502-2.291,2.254-2.291h3.09c0.533,0,0.8,0.413,0.8,1.236c0,0.194-0.018,0.4-0.055,0.618
		c-0.036,0.218-0.079,0.461-0.127,0.727l-3.345,15.96c-0.024,0.121-0.036,0.267-0.036,0.436c0,0.267,0.084,0.4,0.254,0.4h4.326
		c0.073,0,0.109,0.085,0.109,0.254l-0.254,1.382c-0.073,0.291-0.17,0.436-0.291,0.436H93.304z"/>
	<path fill="#F1F2F2" d="M102.356,179.406c-0.169,0-0.254-0.121-0.254-0.364c0-0.072,0.006-0.145,0.018-0.218
		c0.013-0.073,0.03-0.169,0.054-0.291l5.817-27.703c0.121-0.558,0.303-0.836,0.546-0.836h8.252c0.169,0,0.254,0.146,0.254,0.437
		c0,0.388-0.061,0.697-0.182,0.927c-0.121,0.23-0.23,0.37-0.327,0.417l-8.761,5.89c-0.194,0.122-0.322,0.297-0.382,0.527
		c-0.061,0.231-0.091,0.491-0.091,0.782c0,0.218,0.048,0.327,0.146,0.327c0.097,0,0.194-0.048,0.291-0.146l4.145-2.581
		c0.218,0,0.327,0.145,0.327,0.436c0,0.17-0.037,0.376-0.109,0.618l-3.962,18.869c-0.025,0.121-0.037,0.267-0.037,0.436
		c0,0.267,0.085,0.4,0.254,0.4h4.944c0.048,0,0.073,0.061,0.073,0.182v0.254l-0.291,1.2c-0.049,0.291-0.122,0.436-0.219,0.436
		H102.356z"/>
	<path fill="#F1F2F2" d="M121.079,157.956c0.145,0,0.218,0.122,0.218,0.364c0,0.072,0,0.152,0,0.236
		c0,0.085-0.012,0.176-0.036,0.273l-2.763,13.197c-0.024,0.122-0.042,0.225-0.054,0.309c-0.013,0.085-0.018,0.152-0.018,0.2
		c0,0.219,0.036,0.327,0.109,0.327c0.121,0,0.255-0.193,0.4-0.582l5.199-11.416c0.873-1.938,1.805-2.908,2.8-2.908h2.799
		c0.169,0,0.254,0.146,0.254,0.436c0,0.17-0.013,0.315-0.037,0.437l-3.6,17.087c-0.048,0.146-0.072,0.279-0.072,0.4
		c0,0.122,0,0.231,0,0.327c0,0.461,0.145,0.691,0.436,0.691h4.072c0.194,0,0.291,0.133,0.291,0.4c0,0.073-0.024,0.23-0.072,0.473
		l-0.073,0.327c-0.146,0.582-0.34,0.873-0.582,0.873h-9.489c-0.364,0-0.546-0.278-0.546-0.836c0-0.242,0.037-0.533,0.109-0.873
		l2.363-11.088l-4.181,9.198c-1.236,2.399-2.436,3.599-3.599,3.599h-2.436c-0.558,0-0.837-0.412-0.837-1.236
		c0-0.194,0.019-0.4,0.055-0.618c0.037-0.218,0.079-0.46,0.127-0.727l3.817-17.996c0.097-0.582,0.278-0.873,0.545-0.873H121.079z"/>
	<path fill="#F1F2F2" d="M147.072,179.406c-0.169,0-0.254-0.146-0.254-0.436c0-0.169,0.012-0.315,0.036-0.437l2.8-13.197
		c0.024-0.122,0.042-0.224,0.055-0.309c0.012-0.085,0.018-0.151,0.018-0.2c0-0.194-0.037-0.292-0.109-0.292
		c-0.121,0-0.267,0.182-0.436,0.546l-5.999,13.197c-0.363,0.751-0.751,1.127-1.163,1.127h-3.635c-0.17,0-0.254-0.121-0.254-0.364
		c0-0.072,0.005-0.145,0.018-0.218c0.012-0.073,0.03-0.169,0.054-0.291l2.763-13.197c0.024-0.122,0.042-0.218,0.054-0.291
		s0.018-0.146,0.018-0.218c0-0.194-0.048-0.292-0.145-0.292c-0.097,0-0.23,0.182-0.4,0.546l-5.999,13.197
		c-0.364,0.751-0.752,1.127-1.164,1.127h-3.635c-0.169,0-0.255-0.121-0.255-0.364c0-0.072,0.006-0.145,0.018-0.218
		c0.013-0.073,0.031-0.169,0.055-0.291l4.145-19.705c0.097-0.582,0.278-0.873,0.546-0.873h4.398c0.339,0,0.509,0.267,0.509,0.799
		c0,0.243-0.036,0.546-0.109,0.909l-2.326,11.088l4.872-10.506c0.75-1.527,1.502-2.291,2.253-2.291h3.09
		c0.533,0,0.8,0.413,0.8,1.236c0,0.194-0.018,0.4-0.055,0.618s-0.079,0.461-0.127,0.727l-2.145,10.216l4.872-10.506
		c0.751-1.527,1.49-2.291,2.218-2.291h3.127c0.532,0,0.799,0.413,0.799,1.236c0,0.194-0.018,0.4-0.055,0.618
		c-0.036,0.218-0.079,0.461-0.127,0.727l-3.345,15.96c-0.024,0.121-0.036,0.267-0.036,0.436c0,0.267,0.084,0.4,0.254,0.4h4.363
		c0.048,0,0.072,0.061,0.072,0.182v0.254l-0.291,1.2c-0.049,0.291-0.133,0.436-0.254,0.436H147.072z"/>
	<path fill="#F1F2F2" d="M172.23,178.751c-0.05,0.437-0.206,0.654-0.473,0.654h-6.398c-0.242,0-0.364-0.182-0.364-0.545
		c0-0.169,0.013-0.291,0.037-0.363l1.891-10.289c0.024-0.024,2.399-0.037,7.125-0.037c0.048,0,0.073,0.061,0.073,0.182v0.182
		L172.23,178.751z M185.609,166.354c-0.024,0.413-0.17,0.619-0.436,0.619h-18.069c-0.194,0-0.303-0.194-0.327-0.582
		c0-0.024,0.005-0.078,0.019-0.164c0.011-0.085,0.018-0.188,0.018-0.309l0.218-1.018c0.072-0.387,0.23-0.582,0.473-0.582h18.069
		c0.218,0,0.328,0.243,0.328,0.728c0,0.049-0.007,0.085-0.018,0.109c-0.013,0.024-0.019,0.061-0.019,0.109L185.609,166.354z
		 M180.229,163.118c-0.049,0-0.073-0.096-0.073-0.291c0-0.242,0.11-0.618,0.328-1.127c0.218-0.509,0.375-1.042,0.473-1.6
		l0.363-2.109v0.037c0.073-0.314,0.122-0.612,0.146-0.891c0.023-0.278,0.036-0.515,0.036-0.709
		c-0.024-0.655-0.139-1.121-0.345-1.399c-0.206-0.278-0.467-0.418-0.782-0.418h-3.635l-1.563,8.362c0,0.049-0.055,0.079-0.163,0.091
		c-0.109,0.012-0.315,0.03-0.618,0.054c-0.304,0.025-0.722,0.037-1.254,0.037c-0.534,0-1.236,0-2.108,0
		c-0.364,0-0.728-0.006-1.091-0.018c-0.363-0.012-0.691-0.03-0.981-0.055c-0.292-0.024-0.534-0.055-0.728-0.09
		c-0.194-0.037-0.291-0.091-0.291-0.164c0-0.024,0.006-0.042,0.018-0.055c0.012-0.012,0.018-0.03,0.018-0.054l1.891-10.106
		c0.024-0.437,0.182-0.655,0.473-0.655h15.306c1.793,0,2.763,1.43,2.909,4.29c0.023,0.121,0.036,0.23,0.036,0.327
		s0.013,0.169,0.037,0.218c-0.024,0.485-0.054,0.945-0.09,1.381c-0.037,0.437-0.092,0.861-0.164,1.272v-0.036
		c-0.267,1.382-0.667,2.618-1.2,3.708H180.229z M187.208,178.86c-0.073,0.364-0.23,0.545-0.473,0.545h-6.798
		c-0.146,0-0.231-0.109-0.255-0.327l-3.235-10.471c-0.049-0.048-0.072-0.132-0.072-0.254c0-0.121,0.036-0.182,0.109-0.182h7.38
		l3.344,9.998V178.86z"/>
	<path fill="#F1F2F2" d="M204.223,173.189c-0.437,2.085-1,3.642-1.69,4.672s-1.545,1.545-2.563,1.545h-8.979
		c-1.382,0-2.072-0.982-2.072-2.944c0-0.873,0.146-1.964,0.436-3.272l1.891-9.016c0.437-2.084,1-3.641,1.69-4.672
		c0.691-1.029,1.545-1.545,2.563-1.545h8.944c1.382,0,2.073,0.994,2.073,2.981c0,0.461-0.037,0.958-0.11,1.491
		c-0.072,0.534-0.17,1.115-0.291,1.745L204.223,173.189z M194.371,175.661c-0.073,0.364-0.109,0.654-0.109,0.873
		c0,0.485,0.157,0.727,0.473,0.727h2.363c0.485,0,0.836-0.533,1.054-1.6l2.945-13.96c0.023-0.169,0.042-0.314,0.055-0.437
		c0.012-0.121,0.018-0.242,0.018-0.364c0-0.533-0.158-0.799-0.473-0.799h-2.363c-0.461,0-0.799,0.533-1.018,1.6L194.371,175.661z"/>
	<path fill="#F1F2F2" d="M215.614,179.406h-11.065c-0.169,0-0.254-0.146-0.254-0.436c0-0.169,0.013-0.315,0.037-0.437l5.163-24.54
		c0.121-0.557,0.327-0.896,0.618-1.018l4.654-1.272c0.339,0,0.509,0.267,0.509,0.8c0,0.242-0.036,0.545-0.109,0.909l-0.945,4.544
		h8.617c0.678,0,1.018,0.424,1.018,1.272L215.614,179.406z M210.33,176.498c-0.024,0.121-0.036,0.267-0.036,0.436
		c0,0.267,0.084,0.4,0.254,0.4h0.545l6.798-15.633c0.121-0.484,0.182-0.824,0.182-1.018c0-0.388-0.145-0.582-0.436-0.582h-3.49
		c-0.268,0-0.449,0.291-0.545,0.873L210.33,176.498z"/>
	<path fill="#F1F2F2" d="M238.542,173.189c-0.437,2.085-1,3.642-1.691,4.672s-1.545,1.545-2.563,1.545h-8.979
		c-1.382,0-2.073-0.982-2.073-2.944c0-0.873,0.146-1.964,0.437-3.272l1.891-9.016c0.437-2.084,0.999-3.641,1.69-4.672
		c0.691-1.029,1.546-1.545,2.563-1.545h8.943c1.382,0,2.073,0.994,2.073,2.981c0,0.461-0.037,0.958-0.11,1.491
		c-0.072,0.534-0.169,1.115-0.29,1.745L238.542,173.189z M228.689,175.661c-0.072,0.364-0.109,0.654-0.109,0.873
		c0,0.485,0.157,0.727,0.473,0.727h2.363c0.485,0,0.836-0.533,1.054-1.6l2.945-13.96c0.023-0.169,0.042-0.314,0.055-0.437
		c0.012-0.121,0.019-0.242,0.019-0.364c0-0.533-0.158-0.799-0.473-0.799h-2.363c-0.461,0-0.8,0.533-1.018,1.6L228.689,175.661z"/>
	<path fill="#F1F2F2" d="M240.614,179.406c-0.897,0-1.346-0.678-1.346-2.036c0-0.314,0.024-0.654,0.072-1.018
		c0.049-0.364,0.122-0.775,0.218-1.236l4.436-21.123c0.097-0.557,0.303-0.896,0.618-1.018l4.653-1.272
		c0.339,0,0.509,0.267,0.509,0.8c0,0.242-0.036,0.545-0.108,0.909l-0.945,4.544h2.217c0.146,0,0.218,0.122,0.218,0.364
		c0,0.072,0,0.152,0,0.236c0,0.085-0.012,0.176-0.036,0.273l-0.073,0.4c-0.121,0.582-0.315,0.873-0.582,0.873h-2.181l-3.09,14.688
		c-0.049,0.267-0.09,0.509-0.127,0.728c-0.036,0.218-0.054,0.424-0.054,0.618c0,0.8,0.267,1.2,0.8,1.2h4.362
		c0.048,0,0.072,0.061,0.072,0.182l-0.254,1.455c-0.072,0.291-0.158,0.436-0.254,0.436H240.614z"/>
	<path fill="#F1F2F2" d="M248.83,179.406c-0.169,0-0.254-0.121-0.254-0.364c0-0.072,0.007-0.145,0.019-0.218
		c0.012-0.073,0.031-0.169,0.055-0.291l5.816-27.703c0.121-0.558,0.303-0.836,0.545-0.836h8.252c0.17,0,0.255,0.146,0.255,0.437
		c0,0.388-0.061,0.697-0.182,0.927c-0.122,0.23-0.23,0.37-0.327,0.417l-8.762,5.89c-0.194,0.122-0.321,0.297-0.382,0.527
		c-0.061,0.231-0.091,0.491-0.091,0.782c0,0.218,0.048,0.327,0.146,0.327c0.097,0,0.193-0.048,0.291-0.146l4.145-2.581
		c0.217,0,0.327,0.145,0.327,0.436c0,0.17-0.036,0.376-0.11,0.618l-3.962,18.869c-0.025,0.121-0.037,0.267-0.037,0.436
		c0,0.267,0.085,0.4,0.254,0.4h4.944c0.048,0,0.074,0.061,0.074,0.182v0.254l-0.291,1.2c-0.049,0.291-0.122,0.436-0.218,0.436
		H248.83z"/>
	<path fill="#F1F2F2" d="M264.244,175.661c-0.072,0.364-0.109,0.654-0.109,0.873c0,0.485,0.157,0.727,0.473,0.727h2.363
		c0.485,0,0.836-0.533,1.054-1.6l0.291-1.454c0.121-0.557,0.314-0.836,0.582-0.836h4.799c0.146,0,0.218,0.109,0.218,0.327
		c0,0.146-0.013,0.267-0.037,0.363c-0.849,3.563-2.194,5.345-4.036,5.345h-8.979c-1.382,0-2.073-0.982-2.073-2.944
		c0-0.873,0.146-1.964,0.437-3.272l1.891-9.016c0.437-2.084,0.999-3.641,1.69-4.672c0.691-1.029,1.546-1.545,2.563-1.545h8.943
		c1.382,0,2.072,0.994,2.072,2.981c0,0.437-0.031,0.927-0.091,1.472c-0.06,0.546-0.163,1.134-0.308,1.764l-0.437,1.927
		c-0.146,0.582-0.327,0.873-0.545,0.873h-4.763c-0.17,0-0.254-0.146-0.254-0.437c0-0.169,0.012-0.315,0.036-0.437l0.945-4.399
		c0.023-0.169,0.042-0.314,0.055-0.437c0.012-0.121,0.019-0.242,0.019-0.364c0-0.533-0.158-0.799-0.473-0.799h-2.363
		c-0.461,0-0.8,0.533-1.018,1.6L264.244,175.661z"/>
	<path fill="#F1F2F2" d="M276.496,169.663c-0.291,0-0.437-0.23-0.437-0.691c0-0.097,0-0.206,0-0.327c0-0.121,0.024-0.254,0.073-0.4
		l0.872-4.071c0.437-2.084,1-3.641,1.69-4.672c0.69-1.029,1.545-1.545,2.563-1.545h9.525c0.146,0,0.219,0.122,0.219,0.364
		c0,0.072,0,0.152,0,0.236c0,0.085-0.013,0.176-0.037,0.273l-0.108,0.509c-0.122,0.509-0.303,0.764-0.546,0.764h-6.181
		c-0.485,0-0.836,0.533-1.054,1.6l-1.055,4.98c-0.024,0.122-0.037,0.268-0.037,0.437c0,0.267,0.085,0.4,0.254,0.4h6.835
		c0.291,0,0.436,0.243,0.436,0.727c0,0.098-0.006,0.207-0.018,0.328c-0.013,0.122-0.031,0.243-0.055,0.363l-0.909,4.254
		c-0.437,2.085-1,3.642-1.69,4.672s-1.545,1.545-2.563,1.545h-11.852c-0.169,0-0.255-0.119-0.255-0.357
		c0-0.072,0.006-0.143,0.018-0.214c0.013-0.072,0.032-0.167,0.055-0.286l0.073-0.5c0.048-0.238,0.122-0.416,0.218-0.536
		c0.097-0.119,0.207-0.179,0.327-0.179h8.543c0.485,0,0.836-0.523,1.055-1.571l0.945-4.639c0.097-0.39,0.146-0.73,0.146-1.023
		c0-0.292-0.072-0.438-0.218-0.438H276.496z"/>
</g>
</svg>
