<svg xmlns="http://www.w3.org/2000/svg" viewBox="0 0 347.143 378.404">
<path fill="#FFF" d="M168.887,235.439v142.964c0,0-2.166-48.805-36.873-81.337C132.014,297.066,155.871,285.325,168.887,235.439z
	 M176.479,235.439v142.964c0,0,2.17-48.805,36.872-81.337C213.351,297.066,189.493,285.325,176.479,235.439z M108.154,152.826
	c0,0,70.495,28.197,22.776,134.478c0,0,32.533-16.268,29.28-73.746C156.959,156.079,108.154,152.826,108.154,152.826z
	 M186.468,213.558c-3.254,57.478,29.28,73.746,29.28,73.746c-47.717-106.28,22.777-134.478,22.777-134.478
	S189.723,156.079,186.468,213.558z M110.847,142.122c0,0,53.165,15.689,58.727,63.643c0,0,0.346-59.82-62.895-102.215
	C106.679,103.55,110.501,119.883,110.847,142.122z M239.419,103.55c-63.241,42.395-62.896,102.215-62.896,102.215
	c5.562-47.955,58.727-63.643,58.727-63.643C235.598,119.883,239.419,103.55,239.419,103.55z M142.123,118.84
	c0,0,28.841,30.928,30.582,60.81c0,0,1.387-27.797,29.534-59.768C202.239,119.881,172.007,147.681,142.123,118.84z M120.231,94.517
	c0,0-18.068-18.417-18.068-29.885c0-11.466,0-41.002,0-41.002S70.194,38.224,61.16,54.902c0,0,27.798-0.346,29.186,2.779
	c0,0-0.695-6.949-9.382-9.73c0,0,6.339-9.033,12.593-10.075l0.571,24.671C94.128,62.547,105.289,91.736,120.231,94.517z
	 M250.886,62.547l0.572-24.671c6.253,1.043,12.594,10.075,12.594,10.075c-8.689,2.781-9.385,9.73-9.385,9.73
	c1.391-3.126,29.19-2.779,29.19-2.779c-9.034-16.679-41.006-31.273-41.006-31.273s0,29.536,0,41.002
	c0,11.469-18.069,29.885-18.069,29.885C239.725,91.736,250.886,62.547,250.886,62.547z M266.177,154.284
	c-20.153-5.211-21.201-48.302-21.201-48.302c-7.643,17.376-2.429,59.074-0.694,72.625c1.741,13.553-9.384,58.725-9.384,58.725
	C271.739,177.566,266.177,154.284,266.177,154.284z M110.107,237.333c0,0-11.121-45.172-9.382-58.725
	c1.738-13.551,6.949-55.249-0.695-72.625c0,0-1.041,43.091-21.197,48.302C78.831,154.284,73.273,177.566,110.107,237.333z
	 M266.521,76.797c0,0,27.799,61.505,5.21,77.142c0,0,2.436,37.18-18.07,79.574c0,0,44.136-68.802,43.786-80.617
	C297.101,141.08,298.84,108.415,266.521,76.797z M48.3,152.895c-0.347,11.815,43.784,80.617,43.784,80.617
	c-20.502-42.393-18.068-79.574-18.068-79.574c-22.587-15.638,5.213-77.142,5.213-77.142C46.912,108.415,48.649,141.08,48.3,152.895z
	 M74.712,142.817c1.389-2.431,13.202-67.413,13.202-67.413C63.938,100.425,73.319,145.251,74.712,142.817z M258,75.405
	c0,0,11.814,64.982,13.203,67.413C272.591,145.251,281.979,100.425,258,75.405z M265.83,143.861
	c-1.39-7.644-10.816-67.106-10.816-67.106C237.294,109.418,267.22,151.505,265.83,143.861z M90.568,76.754
	c0,0-9.424,59.463-10.815,67.106C78.365,151.505,108.29,109.418,90.568,76.754z M31.274,115.365
	c-2.78,54.211,6.253,69.501,6.253,69.501C33.706,118.494,77.839,71.583,77.839,71.583C52.125,83.049,31.274,115.365,31.274,115.365z
	 M267.731,71.583c0,0,44.13,46.911,40.309,113.282c0,0,9.035-15.29,6.254-69.501C314.294,115.365,293.446,83.049,267.731,71.583z
	 M156.024,44.091c22.934-6.559,27.101,1.084,34.401,25.062c7.295,23.974,18.418,17.025,18.418,17.025
	c-14.944-6.948-13.555-33.704-13.555-33.704s-10.425-26.757-34.055-23.283c-23.627,3.475-27.45,25.02-27.45,25.02
	c15.29-7.994,23.282-0.696,20.851,11.814c-2.434,12.508-18.07,22.24-18.07,22.24C179.994,79.229,156.024,44.091,156.024,44.091z
	 M130.308,87.568c0,0-26.062-49.691,3.823-87.568c0,0-116.41,12.858-134.131,155.329c0,0,16.68-36.486,42.741-60.116l-5.56-0.695
	c0,0-3.126-13.899,42.047-34.401c0,0-12.51-1.39-29.537,4.518c0,0,15.33-32.359,58.767-47.996
	C108.459,16.64,99.035,86.874,130.308,87.568z M238.685,16.64c43.435,15.636,58.767,47.996,58.767,47.996
	c-17.028-5.909-29.537-4.518-29.537-4.518c45.173,20.502,42.045,34.401,42.045,34.401l-5.556,0.695
	c26.059,23.63,42.739,60.116,42.739,60.116C329.419,12.858,213.014,0,213.014,0c29.884,37.878,3.822,87.568,3.822,87.568
	C248.11,86.874,238.685,16.64,238.685,16.64z M165.055,53.142c0,0,14.797,45.713-36.836,45.384c0,0-2.303,5.591,15.785,4.934
	c0,0-3.947,5.919-7.565,5.919l13.815,0.329c0,0-1.646,4.275-4.277,4.604c0,0,13.157,0.657,14.8-0.987c0,0,2.304,2.961-1.972,5.922
	c0,0,7.237,0.985,11.511-5.922c0,0,4.935,6.579,13.153,6.907c0,0-3.946-5.263-2.629-6.907c0,0,6.904,4.604,14.469,3.289
	c0,0-5.591-3.944-3.287-7.235c0,0,9.536,2.961,11.84,1.315c0,0-6.251-3.947-3.95-6.247c0,0,9.868,2.301,14.802-6.25
	c0,0-23.678,5.262-28.941-19.732C180.508,53.471,170.972,54.458,165.055,53.142z"/>
</svg>